<svg width="347" height="201" viewBox="0 0 347 201" fill="none" xmlns="http://www.w3.org/2000/svg">
<path d="M127.837 176.167C117.243 176.167 107.914 173.278 99.8484 167.499C91.9033 161.601 85.7038 153.475 81.2497 143.123C76.7957 132.65 74.5686 120.491 74.5686 106.648C74.5686 92.8039 76.7957 80.7057 81.2497 70.3531C85.7038 59.88 91.9033 51.7544 99.8484 45.9762C107.793 40.1979 117.063 37.3088 127.656 37.3088C138.25 37.3088 147.519 40.1979 155.464 45.9762C163.409 51.7544 169.608 59.88 174.062 70.3531C178.517 80.7057 180.744 92.8039 180.744 106.648C180.744 120.491 178.517 132.65 174.062 143.123C169.729 153.596 163.589 161.721 155.644 167.499C147.699 173.278 138.43 176.167 127.837 176.167ZM127.837 162.624C135.541 162.624 142.282 160.277 148.06 155.582C153.839 150.887 158.353 144.387 161.603 136.08C164.853 127.654 166.479 117.843 166.479 106.648C166.479 95.4522 164.853 85.7015 161.603 77.3953C158.353 68.9687 153.839 62.4682 148.06 57.8938C142.282 53.1989 135.481 50.8515 127.656 50.8515C119.952 50.8515 113.211 53.1989 107.432 57.8938C101.654 62.4682 97.1398 68.9687 93.8896 77.3953C90.6393 85.7015 89.0142 95.4522 89.0142 106.648C89.0142 117.722 90.6393 127.473 93.8896 135.9C97.1398 144.326 101.654 150.887 107.432 155.582C113.331 160.277 120.132 162.624 127.837 162.624ZM246.908 176.167C239.926 176.167 233.486 174.963 227.587 172.555C221.689 170.148 216.512 166.717 212.058 162.263C207.725 157.809 204.414 152.512 202.127 146.373L213.683 140.956C216.452 147.938 220.786 153.475 226.684 157.568C232.583 161.541 239.324 163.527 246.908 163.527C252.927 163.527 258.284 162.383 262.979 160.096C267.674 157.689 271.345 154.258 273.994 149.804C276.642 145.35 277.966 139.933 277.966 133.552C277.966 127.172 276.582 121.755 273.813 117.301C271.165 112.847 267.493 109.476 262.798 107.189C258.104 104.902 252.747 103.758 246.728 103.758C245.163 103.758 243.417 103.819 241.491 103.939C239.685 104.059 238.181 104.24 236.977 104.481L234.088 98.1608L270.382 52.1155H208.447V39.4757H286.634V52.1155L252.686 94.9105L250.881 92.5631C258.946 92.8039 266.109 94.7299 272.369 98.3413C278.628 101.832 283.504 106.587 286.995 112.606C290.606 118.625 292.412 125.607 292.412 133.552C292.412 141.497 290.486 148.72 286.634 155.221C282.781 161.601 277.424 166.717 270.563 170.569C263.701 174.301 255.816 176.167 246.908 176.167Z" fill="#0A0A0A"/>
<rect x="15.0869" y="126.62" width="315.748" height="73.7281" rx="36.864" fill="white"/>
<rect x="15.8883" y="127.421" width="314.146" height="72.1253" rx="36.0626" stroke="white" stroke-opacity="0.2" stroke-width="1.60278"/>
<rect x="0.801392" y="135.506" width="345.397" height="64.1332" rx="32.0666" fill="white"/>
<rect x="0.801392" y="135.506" width="345.397" height="64.1332" rx="32.0666" stroke="black" stroke-width="1.60278"/>
<rect x="0.801392" y="135.506" width="345.397" height="64.1332" rx="32.0666" stroke="white" stroke-opacity="0.2" stroke-width="1.60278"/>
<path d="M53.1672 181.059L62.1401 156.483H64.9771L73.9501 181.059H71.179L69.0677 175.055H58.0825L55.9382 181.059H53.1672ZM58.9402 172.581H68.1441L63.1628 158.462H63.9545L58.9402 172.581ZM85.8043 181.455C84.2869 181.455 82.9123 181.114 81.6807 180.432C80.4712 179.729 79.5585 178.739 78.9427 177.463L79.3386 177.1V181.059H76.8644V156.087H79.3386V167.336L78.9427 166.643C79.6464 165.521 80.5811 164.631 81.7467 163.971C82.9343 163.311 84.2869 162.981 85.8043 162.981C87.4758 162.981 88.9602 163.388 90.2578 164.202C91.5773 164.994 92.611 166.082 93.3587 167.468C94.1285 168.853 94.5133 170.437 94.5133 172.218C94.5133 173.978 94.1285 175.561 93.3587 176.968C92.611 178.354 91.5773 179.454 90.2578 180.267C88.9602 181.059 87.4758 181.455 85.8043 181.455ZM85.6724 178.981C86.86 178.981 87.9156 178.684 88.8393 178.09C89.785 177.496 90.5217 176.694 91.0495 175.682C91.5993 174.648 91.8742 173.494 91.8742 172.218C91.8742 170.921 91.5993 169.766 91.0495 168.754C90.5217 167.743 89.785 166.94 88.8393 166.346C87.9156 165.752 86.86 165.455 85.6724 165.455C84.4848 165.455 83.4072 165.752 82.4395 166.346C81.4938 166.94 80.7351 167.754 80.1633 168.787C79.6135 169.799 79.3386 170.943 79.3386 172.218C79.3386 173.494 79.6135 174.648 80.1633 175.682C80.7351 176.694 81.4938 177.496 82.4395 178.09C83.4072 178.684 84.4848 178.981 85.6724 178.981ZM107.148 181.455C105.476 181.455 103.959 181.059 102.595 180.267C101.232 179.454 100.143 178.354 99.3294 176.968C98.5377 175.561 98.1418 173.967 98.1418 172.185C98.1418 170.426 98.5377 168.853 99.3294 167.468C100.121 166.082 101.188 164.994 102.529 164.202C103.893 163.388 105.432 162.981 107.148 162.981C108.863 162.981 110.392 163.377 111.733 164.169C113.097 164.961 114.163 166.049 114.933 167.435C115.725 168.82 116.121 170.404 116.121 172.185C116.121 173.989 115.714 175.594 114.9 177.001C114.086 178.387 112.998 179.476 111.634 180.267C110.293 181.059 108.797 181.455 107.148 181.455ZM107.148 178.981C108.335 178.981 109.402 178.684 110.348 178.09C111.315 177.496 112.074 176.683 112.624 175.649C113.196 174.615 113.482 173.461 113.482 172.185C113.482 170.91 113.196 169.766 112.624 168.754C112.074 167.743 111.315 166.94 110.348 166.346C109.402 165.752 108.335 165.455 107.148 165.455C105.96 165.455 104.883 165.752 103.915 166.346C102.969 166.94 102.21 167.743 101.639 168.754C101.067 169.766 100.781 170.91 100.781 172.185C100.781 173.461 101.067 174.615 101.639 175.649C102.21 176.683 102.969 177.496 103.915 178.09C104.883 178.684 105.96 178.981 107.148 178.981ZM126.752 181.455C125.52 181.455 124.399 181.169 123.387 180.597C122.376 180.003 121.573 179.19 120.979 178.156C120.407 177.1 120.121 175.891 120.121 174.527V163.377H122.595V174.23C122.595 175.176 122.782 176.012 123.156 176.738C123.552 177.441 124.091 177.991 124.773 178.387C125.476 178.783 126.279 178.981 127.181 178.981C128.083 178.981 128.885 178.783 129.589 178.387C130.293 177.969 130.843 177.386 131.238 176.639C131.634 175.869 131.832 174.956 131.832 173.901V163.377H134.306V181.059H131.832V177.628L132.393 177.76C131.975 178.904 131.26 179.806 130.249 180.465C129.237 181.125 128.072 181.455 126.752 181.455ZM146.157 181.257C144.574 181.257 143.353 180.795 142.496 179.871C141.638 178.948 141.209 177.628 141.209 175.913V165.851H137.943V163.377H138.768C139.516 163.377 140.109 163.135 140.549 162.651C140.989 162.146 141.209 161.519 141.209 160.771V159.287H143.683V163.377H147.576V165.851H143.683V175.913C143.683 176.507 143.771 177.034 143.947 177.496C144.123 177.936 144.42 178.288 144.838 178.552C145.278 178.816 145.86 178.948 146.586 178.948C146.762 178.948 146.971 178.937 147.213 178.915C147.455 178.893 147.664 178.871 147.84 178.849V181.059C147.576 181.125 147.279 181.169 146.949 181.191C146.619 181.235 146.355 181.257 146.157 181.257ZM166.433 181.455C164.871 181.455 163.453 181.158 162.177 180.564C160.902 179.97 159.824 179.179 158.944 178.189C158.065 177.177 157.438 176.067 157.064 174.857L159.439 173.967C160.011 175.638 160.902 176.914 162.111 177.793C163.321 178.651 164.761 179.08 166.433 179.08C167.488 179.08 168.412 178.915 169.204 178.585C170.018 178.233 170.644 177.749 171.084 177.133C171.524 176.518 171.744 175.803 171.744 174.989C171.744 173.78 171.414 172.845 170.754 172.185C170.095 171.525 169.149 171.02 167.917 170.668L163.497 169.348C161.759 168.842 160.418 167.996 159.472 166.808C158.548 165.62 158.087 164.268 158.087 162.75C158.087 161.453 158.406 160.309 159.043 159.32C159.681 158.308 160.55 157.516 161.649 156.944C162.771 156.373 164.036 156.087 165.443 156.087C166.917 156.087 168.236 156.362 169.402 156.911C170.589 157.439 171.59 158.143 172.404 159.023C173.217 159.902 173.8 160.881 174.152 161.959L171.843 162.882C171.315 161.431 170.49 160.331 169.369 159.583C168.269 158.836 166.972 158.462 165.476 158.462C164.53 158.462 163.695 158.627 162.969 158.957C162.265 159.287 161.715 159.759 161.32 160.375C160.924 160.991 160.726 161.717 160.726 162.552C160.726 163.564 161.045 164.477 161.682 165.29C162.32 166.082 163.299 166.676 164.618 167.072L168.511 168.226C170.446 168.798 171.909 169.623 172.899 170.701C173.888 171.778 174.383 173.131 174.383 174.758C174.383 176.078 174.042 177.243 173.36 178.255C172.701 179.245 171.766 180.025 170.556 180.597C169.369 181.169 167.994 181.455 166.433 181.455ZM187.199 181.455C185.461 181.455 183.933 181.048 182.613 180.234C181.294 179.421 180.26 178.321 179.512 176.935C178.765 175.528 178.391 173.945 178.391 172.185C178.391 170.426 178.765 168.853 179.512 167.468C180.26 166.082 181.294 164.994 182.613 164.202C183.933 163.388 185.461 162.981 187.199 162.981C188.298 162.981 189.332 163.179 190.3 163.575C191.267 163.971 192.125 164.51 192.873 165.192C193.62 165.851 194.181 166.621 194.555 167.501L192.312 168.655C191.872 167.71 191.201 166.94 190.3 166.346C189.398 165.752 188.364 165.455 187.199 165.455C186.033 165.455 184.977 165.752 184.032 166.346C183.108 166.918 182.371 167.721 181.821 168.754C181.294 169.766 181.03 170.921 181.03 172.218C181.03 173.494 181.294 174.648 181.821 175.682C182.371 176.694 183.108 177.496 184.032 178.09C184.977 178.684 186.033 178.981 187.199 178.981C188.364 178.981 189.387 178.684 190.267 178.09C191.168 177.496 191.85 176.705 192.312 175.715L194.555 176.935C194.181 177.793 193.62 178.563 192.873 179.245C192.125 179.926 191.267 180.465 190.3 180.861C189.332 181.257 188.298 181.455 187.199 181.455ZM203.688 181.455C202.566 181.455 201.566 181.246 200.686 180.828C199.806 180.388 199.113 179.795 198.608 179.047C198.102 178.299 197.849 177.441 197.849 176.474C197.849 175.55 198.047 174.714 198.443 173.967C198.838 173.197 199.454 172.548 200.29 172.02C201.126 171.492 202.192 171.118 203.49 170.899L210.417 169.744V171.987L204.084 173.043C202.808 173.263 201.884 173.67 201.313 174.263C200.763 174.857 200.488 175.561 200.488 176.375C200.488 177.166 200.796 177.837 201.412 178.387C202.049 178.937 202.863 179.212 203.853 179.212C205.062 179.212 206.118 178.959 207.02 178.453C207.921 177.925 208.625 177.221 209.131 176.342C209.637 175.462 209.89 174.483 209.89 173.406V168.919C209.89 167.864 209.505 167.006 208.735 166.346C207.965 165.686 206.965 165.356 205.733 165.356C204.655 165.356 203.71 165.631 202.896 166.181C202.082 166.709 201.478 167.402 201.082 168.259L198.838 167.039C199.168 166.291 199.685 165.609 200.389 164.994C201.115 164.378 201.939 163.894 202.863 163.542C203.787 163.168 204.743 162.981 205.733 162.981C207.031 162.981 208.174 163.234 209.164 163.74C210.176 164.246 210.956 164.95 211.506 165.851C212.078 166.731 212.364 167.754 212.364 168.919V181.059H209.89V177.529L210.253 177.892C209.945 178.552 209.461 179.157 208.801 179.707C208.163 180.234 207.405 180.663 206.525 180.993C205.667 181.301 204.721 181.455 203.688 181.455ZM217.453 181.059V156.087H219.927V181.059H217.453ZM233.041 181.455C231.391 181.455 229.896 181.059 228.554 180.267C227.234 179.454 226.19 178.343 225.42 176.935C224.65 175.528 224.266 173.934 224.266 172.152C224.266 170.371 224.639 168.798 225.387 167.435C226.135 166.049 227.147 164.961 228.422 164.169C229.72 163.377 231.171 162.981 232.777 162.981C234.052 162.981 235.185 163.223 236.174 163.707C237.186 164.169 238.044 164.807 238.748 165.62C239.451 166.412 239.99 167.314 240.364 168.325C240.738 169.315 240.925 170.338 240.925 171.393C240.925 171.613 240.914 171.866 240.892 172.152C240.87 172.416 240.837 172.691 240.793 172.977H225.849V170.668H239.374L238.187 171.657C238.385 170.448 238.242 169.37 237.758 168.424C237.296 167.457 236.625 166.698 235.746 166.148C234.866 165.576 233.876 165.29 232.777 165.29C231.677 165.29 230.654 165.576 229.709 166.148C228.785 166.72 228.059 167.523 227.531 168.556C227.004 169.568 226.795 170.778 226.905 172.185C226.795 173.593 227.015 174.824 227.564 175.88C228.136 176.914 228.906 177.716 229.874 178.288C230.863 178.86 231.919 179.146 233.041 179.146C234.338 179.146 235.427 178.838 236.306 178.222C237.186 177.606 237.901 176.837 238.451 175.913L240.562 177.034C240.21 177.826 239.671 178.563 238.945 179.245C238.22 179.904 237.351 180.443 236.339 180.861C235.35 181.257 234.25 181.455 233.041 181.455ZM254.293 181.455C252.556 181.455 251.027 181.092 249.708 180.366C248.388 179.641 247.365 178.651 246.64 177.397C245.914 176.122 245.551 174.67 245.551 173.043V156.483H248.19V173.043C248.19 174.23 248.443 175.275 248.949 176.177C249.477 177.056 250.191 177.749 251.093 178.255C252.017 178.739 253.083 178.981 254.293 178.981C255.503 178.981 256.558 178.739 257.46 178.255C258.384 177.749 259.098 177.056 259.604 176.177C260.132 175.275 260.396 174.23 260.396 173.043V156.483H263.035V173.043C263.035 174.67 262.672 176.122 261.946 177.397C261.221 178.651 260.198 179.641 258.878 180.366C257.581 181.092 256.052 181.455 254.293 181.455ZM268.386 187.657V163.377H270.86V167.336L270.464 166.643C271.168 165.521 272.102 164.631 273.268 163.971C274.455 163.311 275.808 162.981 277.325 162.981C278.997 162.981 280.481 163.388 281.779 164.202C283.098 164.994 284.132 166.082 284.88 167.468C285.65 168.853 286.034 170.437 286.034 172.218C286.034 173.978 285.65 175.561 284.88 176.968C284.132 178.354 283.098 179.454 281.779 180.267C280.481 181.059 278.997 181.455 277.325 181.455C275.808 181.455 274.433 181.114 273.202 180.432C271.992 179.729 271.08 178.739 270.464 177.463L270.86 177.1V187.657H268.386ZM277.194 178.981C278.381 178.981 279.437 178.684 280.36 178.09C281.306 177.496 282.043 176.694 282.571 175.682C283.12 174.648 283.395 173.494 283.395 172.218C283.395 170.921 283.12 169.766 282.571 168.754C282.043 167.743 281.306 166.94 280.36 166.346C279.437 165.752 278.381 165.455 277.194 165.455C276.006 165.455 274.928 165.752 273.961 166.346C273.015 166.94 272.256 167.754 271.684 168.787C271.135 169.799 270.86 170.943 270.86 172.218C270.86 173.494 271.135 174.648 271.684 175.682C272.256 176.694 273.015 177.496 273.961 178.09C274.928 178.684 276.006 178.981 277.194 178.981Z" fill="black"/>
</svg>
