<svg width="347" height="164" viewBox="0 0 347 164" fill="none" xmlns="http://www.w3.org/2000/svg">
<path d="M243.73 138.858C236.507 138.858 229.706 137.534 223.326 134.885C217.066 132.237 211.649 128.505 207.075 123.69C202.621 118.875 199.43 113.217 197.504 106.717L215.561 99.8549C217.969 106.235 221.641 111.171 226.576 114.662C231.512 118.153 237.23 119.898 243.73 119.898C249.027 119.898 253.601 118.875 257.453 116.828C261.426 114.782 264.496 111.893 266.663 108.161C268.95 104.429 270.093 99.9151 270.093 94.6184C270.093 89.4421 268.95 84.988 266.663 81.2562C264.496 77.5245 261.426 74.6955 257.453 72.7695C253.601 70.8434 249.027 69.8804 243.73 69.8804C241.563 69.8804 239.336 70.0609 237.049 70.4221C234.882 70.7832 232.956 71.2647 231.271 71.8666L226.576 61.9353L261.968 20.2237H204.727V2.16675H285.803V19.3209L251.134 60.8519L250.592 53.9902C258.657 54.1106 265.76 55.9163 271.899 59.4073C278.038 62.7779 282.793 67.4728 286.164 73.4917C289.655 79.3904 291.401 86.252 291.401 94.0767C291.401 102.503 289.354 110.147 285.261 117.009C281.168 123.75 275.51 129.107 268.288 133.08C261.185 136.932 252.999 138.858 243.73 138.858Z" fill="#0A0A0A"/>
<path d="M126.392 138.858C115.678 138.858 106.289 135.969 98.2234 130.191C90.158 124.292 83.838 116.166 79.2636 105.814C74.8095 95.3407 72.5825 83.1824 72.5825 69.3387C72.5825 55.3747 74.8095 43.2163 79.2636 32.8637C83.838 22.511 90.0978 14.4456 98.0428 8.66734C106.108 2.88911 115.498 0 126.212 0C136.925 0 146.255 2.88911 154.2 8.66734C162.265 14.4456 168.525 22.5712 172.979 33.0442C177.554 43.3969 179.841 55.4951 179.841 69.3387C179.841 83.1824 177.614 95.3407 173.16 105.814C168.706 116.166 162.446 124.292 154.381 130.191C146.435 135.969 137.106 138.858 126.392 138.858ZM126.392 119.356C133.013 119.356 138.731 117.31 143.546 113.217C148.362 109.124 152.093 103.346 154.742 95.8824C157.39 88.4189 158.714 79.571 158.714 69.3387C158.714 59.1064 157.39 50.2585 154.742 42.795C152.093 35.3315 148.362 29.5532 143.546 25.4603C138.731 21.3674 132.953 19.3209 126.212 19.3209C119.591 19.3209 113.873 21.3674 109.058 25.4603C104.242 29.5532 100.511 35.3315 97.8623 42.795C95.2139 50.2585 93.8897 59.1064 93.8897 69.3387C93.8897 79.4506 95.2139 88.2985 97.8623 95.8824C100.511 103.346 104.242 109.124 109.058 113.217C113.993 117.31 119.771 119.356 126.392 119.356Z" fill="#0A0A0A"/>
<rect x="15.0869" y="89.3108" width="315.748" height="73.7281" rx="36.864" fill="white"/>
<rect x="15.8883" y="90.1122" width="314.146" height="72.1253" rx="36.0626" stroke="white" stroke-opacity="0.2" stroke-width="1.60278"/>
<rect x="0.801392" y="98.1974" width="345.397" height="64.1332" rx="32.0666" fill="white"/>
<rect x="0.801392" y="98.1974" width="345.397" height="64.1332" rx="32.0666" stroke="black" stroke-width="1.60278"/>
<rect x="0.801392" y="98.1974" width="345.397" height="64.1332" rx="32.0666" stroke="white" stroke-opacity="0.2" stroke-width="1.60278"/>
<path d="M53.1671 143.75L62.14 119.174H64.977L73.9499 143.75H71.1789L69.0676 137.746H58.0824L55.9381 143.75H53.1671ZM58.9401 135.272H68.1439L63.1626 121.153H63.9544L58.9401 135.272ZM85.8042 144.146C84.2867 144.146 82.9122 143.805 81.6806 143.123C80.471 142.42 79.5584 141.43 78.9426 140.154L79.3384 139.792V143.75H76.8643V118.778H79.3384V130.027L78.9426 129.334C79.6463 128.213 80.581 127.322 81.7466 126.662C82.9342 126.002 84.2867 125.672 85.8042 125.672C87.4756 125.672 88.9601 126.079 90.2577 126.893C91.5772 127.685 92.6109 128.773 93.3586 130.159C94.1284 131.544 94.5132 133.128 94.5132 134.909C94.5132 136.669 94.1284 138.252 93.3586 139.66C92.6109 141.045 91.5772 142.145 90.2577 142.959C88.9601 143.75 87.4756 144.146 85.8042 144.146ZM85.6723 141.672C86.8598 141.672 87.9155 141.375 88.8392 140.781C89.7848 140.187 90.5216 139.385 91.0494 138.373C91.5992 137.339 91.8741 136.185 91.8741 134.909C91.8741 133.612 91.5992 132.457 91.0494 131.445C90.5216 130.434 89.7848 129.631 88.8392 129.037C87.9155 128.444 86.8598 128.147 85.6723 128.147C84.4847 128.147 83.407 128.444 82.4394 129.037C81.4937 129.631 80.735 130.445 80.1631 131.478C79.6133 132.49 79.3384 133.634 79.3384 134.909C79.3384 136.185 79.6133 137.339 80.1631 138.373C80.735 139.385 81.4937 140.187 82.4394 140.781C83.407 141.375 84.4847 141.672 85.6723 141.672ZM107.148 144.146C105.476 144.146 103.959 143.75 102.595 142.959C101.232 142.145 100.143 141.045 99.3293 139.66C98.5376 138.252 98.1417 136.658 98.1417 134.876C98.1417 133.117 98.5376 131.544 99.3293 130.159C100.121 128.773 101.188 127.685 102.529 126.893C103.893 126.079 105.432 125.672 107.148 125.672C108.863 125.672 110.392 126.068 111.733 126.86C113.097 127.652 114.163 128.74 114.933 130.126C115.725 131.511 116.121 133.095 116.121 134.876C116.121 136.68 115.714 138.285 114.9 139.693C114.086 141.078 112.998 142.167 111.634 142.959C110.293 143.75 108.797 144.146 107.148 144.146ZM107.148 141.672C108.335 141.672 109.402 141.375 110.348 140.781C111.315 140.187 112.074 139.374 112.624 138.34C113.196 137.306 113.481 136.152 113.481 134.876C113.481 133.601 113.196 132.457 112.624 131.445C112.074 130.434 111.315 129.631 110.348 129.037C109.402 128.444 108.335 128.147 107.148 128.147C105.96 128.147 104.882 128.444 103.915 129.037C102.969 129.631 102.21 130.434 101.639 131.445C101.067 132.457 100.781 133.601 100.781 134.876C100.781 136.152 101.067 137.306 101.639 138.34C102.21 139.374 102.969 140.187 103.915 140.781C104.882 141.375 105.96 141.672 107.148 141.672ZM126.752 144.146C125.52 144.146 124.399 143.86 123.387 143.288C122.375 142.695 121.573 141.881 120.979 140.847C120.407 139.792 120.121 138.582 120.121 137.218V126.068H122.595V136.922C122.595 137.867 122.782 138.703 123.156 139.429C123.552 140.132 124.091 140.682 124.773 141.078C125.476 141.474 126.279 141.672 127.181 141.672C128.082 141.672 128.885 141.474 129.589 141.078C130.293 140.66 130.843 140.078 131.238 139.33C131.634 138.56 131.832 137.647 131.832 136.592V126.068H134.306V143.75H131.832V140.319L132.393 140.451C131.975 141.595 131.26 142.497 130.249 143.156C129.237 143.816 128.071 144.146 126.752 144.146ZM146.157 143.948C144.574 143.948 143.353 143.486 142.495 142.563C141.638 141.639 141.209 140.319 141.209 138.604V128.542H137.943V126.068H138.768C139.516 126.068 140.109 125.826 140.549 125.343C140.989 124.837 141.209 124.21 141.209 123.462V121.978H143.683V126.068H147.576V128.542H143.683V138.604C143.683 139.198 143.771 139.726 143.947 140.187C144.123 140.627 144.42 140.979 144.838 141.243C145.278 141.507 145.86 141.639 146.586 141.639C146.762 141.639 146.971 141.628 147.213 141.606C147.455 141.584 147.664 141.562 147.84 141.54V143.75C147.576 143.816 147.279 143.86 146.949 143.882C146.619 143.926 146.355 143.948 146.157 143.948ZM166.433 144.146C164.871 144.146 163.453 143.849 162.177 143.255C160.902 142.662 159.824 141.87 158.944 140.88C158.065 139.869 157.438 138.758 157.064 137.548L159.439 136.658C160.011 138.329 160.902 139.605 162.111 140.484C163.321 141.342 164.761 141.771 166.433 141.771C167.488 141.771 168.412 141.606 169.204 141.276C170.017 140.924 170.644 140.44 171.084 139.825C171.524 139.209 171.744 138.494 171.744 137.68C171.744 136.471 171.414 135.536 170.754 134.876C170.094 134.217 169.149 133.711 167.917 133.359L163.497 132.039C161.759 131.533 160.418 130.687 159.472 129.499C158.548 128.312 158.087 126.959 158.087 125.442C158.087 124.144 158.405 123 159.043 122.011C159.681 120.999 160.55 120.207 161.649 119.636C162.771 119.064 164.035 118.778 165.443 118.778C166.916 118.778 168.236 119.053 169.402 119.603C170.589 120.13 171.59 120.834 172.404 121.714C173.217 122.594 173.8 123.572 174.152 124.65L171.843 125.573C171.315 124.122 170.49 123.022 169.369 122.275C168.269 121.527 166.971 121.153 165.476 121.153C164.53 121.153 163.695 121.318 162.969 121.648C162.265 121.978 161.715 122.451 161.319 123.066C160.924 123.682 160.726 124.408 160.726 125.244C160.726 126.255 161.044 127.168 161.682 127.982C162.32 128.773 163.299 129.367 164.618 129.763L168.511 130.918C170.446 131.489 171.909 132.314 172.898 133.392C173.888 134.469 174.383 135.822 174.383 137.449C174.383 138.769 174.042 139.935 173.36 140.946C172.7 141.936 171.766 142.717 170.556 143.288C169.369 143.86 167.994 144.146 166.433 144.146ZM187.198 144.146C185.461 144.146 183.933 143.739 182.613 142.926C181.294 142.112 180.26 141.012 179.512 139.627C178.764 138.219 178.391 136.636 178.391 134.876C178.391 133.117 178.764 131.544 179.512 130.159C180.26 128.773 181.294 127.685 182.613 126.893C183.933 126.079 185.461 125.672 187.198 125.672C188.298 125.672 189.332 125.87 190.299 126.266C191.267 126.662 192.125 127.201 192.873 127.883C193.62 128.542 194.181 129.312 194.555 130.192L192.312 131.347C191.872 130.401 191.201 129.631 190.299 129.037C189.398 128.444 188.364 128.147 187.198 128.147C186.033 128.147 184.977 128.444 184.032 129.037C183.108 129.609 182.371 130.412 181.821 131.445C181.294 132.457 181.03 133.612 181.03 134.909C181.03 136.185 181.294 137.339 181.821 138.373C182.371 139.385 183.108 140.187 184.032 140.781C184.977 141.375 186.033 141.672 187.198 141.672C188.364 141.672 189.387 141.375 190.266 140.781C191.168 140.187 191.85 139.396 192.312 138.406L194.555 139.627C194.181 140.484 193.62 141.254 192.873 141.936C192.125 142.618 191.267 143.156 190.299 143.552C189.332 143.948 188.298 144.146 187.198 144.146ZM203.688 144.146C202.566 144.146 201.565 143.937 200.686 143.519C199.806 143.079 199.113 142.486 198.607 141.738C198.102 140.99 197.849 140.132 197.849 139.165C197.849 138.241 198.047 137.405 198.442 136.658C198.838 135.888 199.454 135.239 200.29 134.711C201.126 134.184 202.192 133.81 203.49 133.59L210.417 132.435V134.678L204.084 135.734C202.808 135.954 201.884 136.361 201.312 136.955C200.763 137.548 200.488 138.252 200.488 139.066C200.488 139.858 200.796 140.528 201.411 141.078C202.049 141.628 202.863 141.903 203.853 141.903C205.062 141.903 206.118 141.65 207.02 141.144C207.921 140.616 208.625 139.913 209.131 139.033C209.637 138.153 209.89 137.175 209.89 136.097V131.61C209.89 130.555 209.505 129.697 208.735 129.037C207.965 128.378 206.965 128.048 205.733 128.048C204.655 128.048 203.71 128.323 202.896 128.872C202.082 129.4 201.477 130.093 201.082 130.951L198.838 129.73C199.168 128.982 199.685 128.301 200.389 127.685C201.115 127.069 201.939 126.585 202.863 126.233C203.787 125.859 204.743 125.672 205.733 125.672C207.031 125.672 208.174 125.925 209.164 126.431C210.175 126.937 210.956 127.641 211.506 128.542C212.078 129.422 212.364 130.445 212.364 131.61V143.75H209.89V140.22L210.252 140.583C209.945 141.243 209.461 141.848 208.801 142.398C208.163 142.926 207.404 143.354 206.525 143.684C205.667 143.992 204.721 144.146 203.688 144.146ZM217.453 143.75V118.778H219.927V143.75H217.453ZM233.04 144.146C231.391 144.146 229.895 143.75 228.554 142.959C227.234 142.145 226.19 141.034 225.42 139.627C224.65 138.219 224.265 136.625 224.265 134.843C224.265 133.062 224.639 131.489 225.387 130.126C226.135 128.74 227.146 127.652 228.422 126.86C229.72 126.068 231.171 125.672 232.776 125.672C234.052 125.672 235.185 125.914 236.174 126.398C237.186 126.86 238.044 127.498 238.747 128.312C239.451 129.103 239.99 130.005 240.364 131.017C240.738 132.006 240.925 133.029 240.925 134.085C240.925 134.304 240.914 134.557 240.892 134.843C240.87 135.107 240.837 135.382 240.793 135.668H225.849V133.359H239.374L238.187 134.348C238.385 133.139 238.242 132.061 237.758 131.116C237.296 130.148 236.625 129.389 235.745 128.839C234.866 128.268 233.876 127.982 232.776 127.982C231.677 127.982 230.654 128.268 229.709 128.839C228.785 129.411 228.059 130.214 227.531 131.248C227.003 132.259 226.795 133.469 226.904 134.876C226.795 136.284 227.014 137.515 227.564 138.571C228.136 139.605 228.906 140.407 229.873 140.979C230.863 141.551 231.919 141.837 233.04 141.837C234.338 141.837 235.427 141.529 236.306 140.913C237.186 140.297 237.901 139.528 238.451 138.604L240.562 139.726C240.21 140.517 239.671 141.254 238.945 141.936C238.22 142.596 237.351 143.134 236.339 143.552C235.35 143.948 234.25 144.146 233.04 144.146ZM254.293 144.146C252.555 144.146 251.027 143.783 249.707 143.057C248.388 142.332 247.365 141.342 246.639 140.089C245.914 138.813 245.551 137.361 245.551 135.734V119.174H248.19V135.734C248.19 136.922 248.443 137.966 248.949 138.868C249.476 139.748 250.191 140.44 251.093 140.946C252.017 141.43 253.083 141.672 254.293 141.672C255.502 141.672 256.558 141.43 257.46 140.946C258.383 140.44 259.098 139.748 259.604 138.868C260.132 137.966 260.396 136.922 260.396 135.734V119.174H263.035V135.734C263.035 137.361 262.672 138.813 261.946 140.089C261.22 141.342 260.198 142.332 258.878 143.057C257.581 143.783 256.052 144.146 254.293 144.146ZM268.385 150.348V126.068H270.86V130.027L270.464 129.334C271.167 128.213 272.102 127.322 273.268 126.662C274.455 126.002 275.808 125.672 277.325 125.672C278.997 125.672 280.481 126.079 281.779 126.893C283.098 127.685 284.132 128.773 284.88 130.159C285.649 131.544 286.034 133.128 286.034 134.909C286.034 136.669 285.649 138.252 284.88 139.66C284.132 141.045 283.098 142.145 281.779 142.959C280.481 143.75 278.997 144.146 277.325 144.146C275.808 144.146 274.433 143.805 273.202 143.123C271.992 142.42 271.079 141.43 270.464 140.154L270.86 139.792V150.348H268.385ZM277.193 141.672C278.381 141.672 279.437 141.375 280.36 140.781C281.306 140.187 282.043 139.385 282.571 138.373C283.12 137.339 283.395 136.185 283.395 134.909C283.395 133.612 283.12 132.457 282.571 131.445C282.043 130.434 281.306 129.631 280.36 129.037C279.437 128.444 278.381 128.147 277.193 128.147C276.006 128.147 274.928 128.444 273.961 129.037C273.015 129.631 272.256 130.445 271.684 131.478C271.134 132.49 270.86 133.634 270.86 134.909C270.86 136.185 271.134 137.339 271.684 138.373C272.256 139.385 273.015 140.187 273.961 140.781C274.928 141.375 276.006 141.672 277.193 141.672Z" fill="black"/>
</svg>
