<svg width="462" height="164" viewBox="0 0 462 164" fill="none" xmlns="http://www.w3.org/2000/svg">
<path d="M243.73 139.167C236.507 139.167 229.706 137.843 223.326 135.194C217.066 132.546 211.649 128.814 207.075 123.999C202.621 119.184 199.43 113.526 197.504 107.025L215.561 100.164C217.969 106.544 221.641 111.479 226.576 114.97C231.512 118.461 237.23 120.207 243.73 120.207C249.027 120.207 253.601 119.184 257.453 117.137C261.426 115.091 264.496 112.202 266.663 108.47C268.95 104.738 270.093 100.224 270.093 94.9272C270.093 89.7509 268.95 85.2968 266.663 81.5651C264.496 77.8333 261.426 75.0044 257.453 73.0783C253.601 71.1522 249.027 70.1892 243.73 70.1892C241.563 70.1892 239.336 70.3698 237.049 70.7309C234.882 71.092 232.956 71.5735 231.271 72.1754L226.576 62.2441L261.968 20.5325H204.727V2.47559H285.803V19.6297L251.134 61.1607L250.592 54.2991C258.657 54.4194 265.76 56.2251 271.899 59.7162C278.038 63.0868 282.793 67.7816 286.164 73.8006C289.655 79.6992 291.401 86.5608 291.401 94.3855C291.401 102.812 289.354 110.456 285.261 117.318C281.168 124.059 275.51 129.416 268.288 133.389C261.185 137.241 252.999 139.167 243.73 139.167Z" fill="#0A0A0A"/>
<path d="M126.392 139.167C115.678 139.167 106.289 136.278 98.2234 130.5C90.158 124.601 83.838 116.475 79.2636 106.123C74.8095 95.6496 72.5825 83.4912 72.5825 69.6476C72.5825 55.6835 74.8095 43.5252 79.2636 33.1725C83.838 22.8198 90.0978 14.7544 98.0428 8.97617C106.108 3.19795 115.498 0.308838 126.212 0.308838C136.925 0.308838 146.255 3.19795 154.2 8.97617C162.265 14.7544 168.525 22.88 172.979 33.3531C177.554 43.7057 179.841 55.8039 179.841 69.6476C179.841 83.4912 177.614 95.6496 173.16 106.123C168.706 116.475 162.446 124.601 154.381 130.5C146.435 136.278 137.106 139.167 126.392 139.167ZM126.392 119.665C133.013 119.665 138.731 117.619 143.546 113.526C148.362 109.433 152.093 103.655 154.742 96.1913C157.39 88.7277 158.714 79.8798 158.714 69.6476C158.714 59.4153 157.39 50.5674 154.742 43.1038C152.093 35.6403 148.362 29.8621 143.546 25.7691C138.731 21.6762 132.953 19.6298 126.212 19.6298C119.591 19.6298 113.873 21.6762 109.058 25.7691C104.242 29.8621 100.511 35.6403 97.8623 43.1038C95.2139 50.5674 93.8897 59.4153 93.8897 69.6476C93.8897 79.7595 95.2139 88.6074 97.8623 96.1913C100.511 103.655 104.242 109.433 109.058 113.526C113.993 117.619 119.771 119.665 126.392 119.665Z" fill="#0A0A0A"/>
<rect x="15.0869" y="89.6196" width="315.748" height="73.7281" rx="36.864" fill="white"/>
<rect x="15.8883" y="90.421" width="314.146" height="72.1253" rx="36.0626" stroke="white" stroke-opacity="0.2" stroke-width="1.60278"/>
<rect x="0.801392" y="98.5062" width="345.397" height="64.1332" rx="32.0666" fill="white"/>
<rect x="0.801392" y="98.5062" width="345.397" height="64.1332" rx="32.0666" stroke="black" stroke-width="1.60278"/>
<rect x="0.801392" y="98.5062" width="345.397" height="64.1332" rx="32.0666" stroke="white" stroke-opacity="0.2" stroke-width="1.60278"/>
<path d="M53.1671 144.059L62.14 119.483H64.977L73.9499 144.059H71.1789L69.0676 138.055H58.0824L55.9381 144.059H53.1671ZM58.9401 135.581H68.1439L63.1626 121.462H63.9544L58.9401 135.581ZM85.8042 144.455C84.2867 144.455 82.9122 144.114 81.6806 143.432C80.471 142.729 79.5584 141.739 78.9426 140.463L79.3384 140.1V144.059H76.8643V119.087H79.3384V130.336L78.9426 129.643C79.6463 128.521 80.581 127.631 81.7466 126.971C82.9342 126.311 84.2867 125.981 85.8042 125.981C87.4756 125.981 88.9601 126.388 90.2577 127.202C91.5772 127.994 92.6109 129.082 93.3586 130.468C94.1284 131.853 94.5132 133.437 94.5132 135.218C94.5132 136.978 94.1284 138.561 93.3586 139.968C92.6109 141.354 91.5772 142.454 90.2577 143.267C88.9601 144.059 87.4756 144.455 85.8042 144.455ZM85.6723 141.981C86.8598 141.981 87.9155 141.684 88.8392 141.09C89.7848 140.496 90.5216 139.694 91.0494 138.682C91.5992 137.648 91.8741 136.494 91.8741 135.218C91.8741 133.921 91.5992 132.766 91.0494 131.754C90.5216 130.743 89.7848 129.94 88.8392 129.346C87.9155 128.752 86.8598 128.455 85.6723 128.455C84.4847 128.455 83.407 128.752 82.4394 129.346C81.4937 129.94 80.735 130.754 80.1631 131.787C79.6133 132.799 79.3384 133.943 79.3384 135.218C79.3384 136.494 79.6133 137.648 80.1631 138.682C80.735 139.694 81.4937 140.496 82.4394 141.09C83.407 141.684 84.4847 141.981 85.6723 141.981ZM107.148 144.455C105.476 144.455 103.959 144.059 102.595 143.267C101.232 142.454 100.143 141.354 99.3293 139.968C98.5376 138.561 98.1417 136.967 98.1417 135.185C98.1417 133.426 98.5376 131.853 99.3293 130.468C100.121 129.082 101.188 127.994 102.529 127.202C103.893 126.388 105.432 125.981 107.148 125.981C108.863 125.981 110.392 126.377 111.733 127.169C113.097 127.961 114.163 129.049 114.933 130.435C115.725 131.82 116.121 133.404 116.121 135.185C116.121 136.989 115.714 138.594 114.9 140.001C114.086 141.387 112.998 142.476 111.634 143.267C110.293 144.059 108.797 144.455 107.148 144.455ZM107.148 141.981C108.335 141.981 109.402 141.684 110.348 141.09C111.315 140.496 112.074 139.683 112.624 138.649C113.196 137.615 113.481 136.461 113.481 135.185C113.481 133.91 113.196 132.766 112.624 131.754C112.074 130.743 111.315 129.94 110.348 129.346C109.402 128.752 108.335 128.455 107.148 128.455C105.96 128.455 104.882 128.752 103.915 129.346C102.969 129.94 102.21 130.743 101.639 131.754C101.067 132.766 100.781 133.91 100.781 135.185C100.781 136.461 101.067 137.615 101.639 138.649C102.21 139.683 102.969 140.496 103.915 141.09C104.882 141.684 105.96 141.981 107.148 141.981ZM126.752 144.455C125.52 144.455 124.399 144.169 123.387 143.597C122.375 143.003 121.573 142.19 120.979 141.156C120.407 140.1 120.121 138.891 120.121 137.527V126.377H122.595V137.23C122.595 138.176 122.782 139.012 123.156 139.738C123.552 140.441 124.091 140.991 124.773 141.387C125.476 141.783 126.279 141.981 127.181 141.981C128.082 141.981 128.885 141.783 129.589 141.387C130.293 140.969 130.843 140.386 131.238 139.639C131.634 138.869 131.832 137.956 131.832 136.901V126.377H134.306V144.059H131.832V140.628L132.393 140.76C131.975 141.904 131.26 142.806 130.249 143.465C129.237 144.125 128.071 144.455 126.752 144.455ZM146.157 144.257C144.574 144.257 143.353 143.795 142.495 142.871C141.638 141.948 141.209 140.628 141.209 138.913V128.851H137.943V126.377H138.768C139.516 126.377 140.109 126.135 140.549 125.651C140.989 125.146 141.209 124.519 141.209 123.771V122.287H143.683V126.377H147.576V128.851H143.683V138.913C143.683 139.507 143.771 140.034 143.947 140.496C144.123 140.936 144.42 141.288 144.838 141.552C145.278 141.816 145.86 141.948 146.586 141.948C146.762 141.948 146.971 141.937 147.213 141.915C147.455 141.893 147.664 141.871 147.84 141.849V144.059C147.576 144.125 147.279 144.169 146.949 144.191C146.619 144.235 146.355 144.257 146.157 144.257ZM166.433 144.455C164.871 144.455 163.453 144.158 162.177 143.564C160.902 142.97 159.824 142.179 158.944 141.189C158.065 140.177 157.438 139.067 157.064 137.857L159.439 136.967C160.011 138.638 160.902 139.914 162.111 140.793C163.321 141.651 164.761 142.08 166.433 142.08C167.488 142.08 168.412 141.915 169.204 141.585C170.017 141.233 170.644 140.749 171.084 140.133C171.524 139.518 171.744 138.803 171.744 137.989C171.744 136.78 171.414 135.845 170.754 135.185C170.094 134.525 169.149 134.02 167.917 133.668L163.497 132.348C161.759 131.842 160.418 130.996 159.472 129.808C158.548 128.62 158.087 127.268 158.087 125.75C158.087 124.453 158.405 123.309 159.043 122.32C159.681 121.308 160.55 120.516 161.649 119.944C162.771 119.373 164.035 119.087 165.443 119.087C166.916 119.087 168.236 119.362 169.402 119.911C170.589 120.439 171.59 121.143 172.404 122.023C173.217 122.902 173.8 123.881 174.152 124.959L171.843 125.882C171.315 124.431 170.49 123.331 169.369 122.583C168.269 121.836 166.971 121.462 165.476 121.462C164.53 121.462 163.695 121.627 162.969 121.957C162.265 122.287 161.715 122.759 161.319 123.375C160.924 123.991 160.726 124.717 160.726 125.552C160.726 126.564 161.044 127.477 161.682 128.29C162.32 129.082 163.299 129.676 164.618 130.072L168.511 131.226C170.446 131.798 171.909 132.623 172.898 133.701C173.888 134.778 174.383 136.131 174.383 137.758C174.383 139.078 174.042 140.243 173.36 141.255C172.7 142.245 171.766 143.025 170.556 143.597C169.369 144.169 167.994 144.455 166.433 144.455ZM187.198 144.455C185.461 144.455 183.933 144.048 182.613 143.234C181.294 142.421 180.26 141.321 179.512 139.935C178.764 138.528 178.391 136.945 178.391 135.185C178.391 133.426 178.764 131.853 179.512 130.468C180.26 129.082 181.294 127.994 182.613 127.202C183.933 126.388 185.461 125.981 187.198 125.981C188.298 125.981 189.332 126.179 190.299 126.575C191.267 126.971 192.125 127.51 192.873 128.192C193.62 128.851 194.181 129.621 194.555 130.501L192.312 131.655C191.872 130.71 191.201 129.94 190.299 129.346C189.398 128.752 188.364 128.455 187.198 128.455C186.033 128.455 184.977 128.752 184.032 129.346C183.108 129.918 182.371 130.721 181.821 131.754C181.294 132.766 181.03 133.921 181.03 135.218C181.03 136.494 181.294 137.648 181.821 138.682C182.371 139.694 183.108 140.496 184.032 141.09C184.977 141.684 186.033 141.981 187.198 141.981C188.364 141.981 189.387 141.684 190.266 141.09C191.168 140.496 191.85 139.705 192.312 138.715L194.555 139.935C194.181 140.793 193.62 141.563 192.873 142.245C192.125 142.926 191.267 143.465 190.299 143.861C189.332 144.257 188.298 144.455 187.198 144.455ZM203.688 144.455C202.566 144.455 201.565 144.246 200.686 143.828C199.806 143.388 199.113 142.795 198.607 142.047C198.102 141.299 197.849 140.441 197.849 139.474C197.849 138.55 198.047 137.714 198.442 136.967C198.838 136.197 199.454 135.548 200.29 135.02C201.126 134.492 202.192 134.118 203.49 133.899L210.417 132.744V134.987L204.084 136.043C202.808 136.263 201.884 136.67 201.312 137.263C200.763 137.857 200.488 138.561 200.488 139.375C200.488 140.166 200.796 140.837 201.411 141.387C202.049 141.937 202.863 142.212 203.853 142.212C205.062 142.212 206.118 141.959 207.02 141.453C207.921 140.925 208.625 140.221 209.131 139.342C209.637 138.462 209.89 137.483 209.89 136.406V131.919C209.89 130.864 209.505 130.006 208.735 129.346C207.965 128.686 206.965 128.356 205.733 128.356C204.655 128.356 203.71 128.631 202.896 129.181C202.082 129.709 201.477 130.402 201.082 131.259L198.838 130.039C199.168 129.291 199.685 128.609 200.389 127.994C201.115 127.378 201.939 126.894 202.863 126.542C203.787 126.168 204.743 125.981 205.733 125.981C207.031 125.981 208.174 126.234 209.164 126.74C210.175 127.246 210.956 127.95 211.506 128.851C212.078 129.731 212.364 130.754 212.364 131.919V144.059H209.89V140.529L210.252 140.892C209.945 141.552 209.461 142.157 208.801 142.707C208.163 143.234 207.404 143.663 206.525 143.993C205.667 144.301 204.721 144.455 203.688 144.455ZM217.453 144.059V119.087H219.927V144.059H217.453ZM233.04 144.455C231.391 144.455 229.895 144.059 228.554 143.267C227.234 142.454 226.19 141.343 225.42 139.935C224.65 138.528 224.265 136.934 224.265 135.152C224.265 133.371 224.639 131.798 225.387 130.435C226.135 129.049 227.146 127.961 228.422 127.169C229.72 126.377 231.171 125.981 232.776 125.981C234.052 125.981 235.185 126.223 236.174 126.707C237.186 127.169 238.044 127.807 238.747 128.62C239.451 129.412 239.99 130.314 240.364 131.325C240.738 132.315 240.925 133.338 240.925 134.393C240.925 134.613 240.914 134.866 240.892 135.152C240.87 135.416 240.837 135.691 240.793 135.977H225.849V133.668H239.374L238.187 134.657C238.385 133.448 238.242 132.37 237.758 131.424C237.296 130.457 236.625 129.698 235.745 129.148C234.866 128.576 233.876 128.29 232.776 128.29C231.677 128.29 230.654 128.576 229.709 129.148C228.785 129.72 228.059 130.523 227.531 131.556C227.003 132.568 226.795 133.778 226.904 135.185C226.795 136.593 227.014 137.824 227.564 138.88C228.136 139.914 228.906 140.716 229.873 141.288C230.863 141.86 231.919 142.146 233.04 142.146C234.338 142.146 235.427 141.838 236.306 141.222C237.186 140.606 237.901 139.837 238.451 138.913L240.562 140.034C240.21 140.826 239.671 141.563 238.945 142.245C238.22 142.904 237.351 143.443 236.339 143.861C235.35 144.257 234.25 144.455 233.04 144.455ZM254.293 144.455C252.555 144.455 251.027 144.092 249.707 143.366C248.388 142.641 247.365 141.651 246.639 140.397C245.914 139.122 245.551 137.67 245.551 136.043V119.483H248.19V136.043C248.19 137.23 248.443 138.275 248.949 139.177C249.476 140.056 250.191 140.749 251.093 141.255C252.017 141.739 253.083 141.981 254.293 141.981C255.502 141.981 256.558 141.739 257.46 141.255C258.383 140.749 259.098 140.056 259.604 139.177C260.132 138.275 260.396 137.23 260.396 136.043V119.483H263.035V136.043C263.035 137.67 262.672 139.122 261.946 140.397C261.22 141.651 260.198 142.641 258.878 143.366C257.581 144.092 256.052 144.455 254.293 144.455ZM268.385 150.657V126.377H270.86V130.336L270.464 129.643C271.167 128.521 272.102 127.631 273.268 126.971C274.455 126.311 275.808 125.981 277.325 125.981C278.997 125.981 280.481 126.388 281.779 127.202C283.098 127.994 284.132 129.082 284.88 130.468C285.649 131.853 286.034 133.437 286.034 135.218C286.034 136.978 285.649 138.561 284.88 139.968C284.132 141.354 283.098 142.454 281.779 143.267C280.481 144.059 278.997 144.455 277.325 144.455C275.808 144.455 274.433 144.114 273.202 143.432C271.992 142.729 271.079 141.739 270.464 140.463L270.86 140.1V150.657H268.385ZM277.193 141.981C278.381 141.981 279.437 141.684 280.36 141.09C281.306 140.496 282.043 139.694 282.571 138.682C283.12 137.648 283.395 136.494 283.395 135.218C283.395 133.921 283.12 132.766 282.571 131.754C282.043 130.743 281.306 129.94 280.36 129.346C279.437 128.752 278.381 128.455 277.193 128.455C276.006 128.455 274.928 128.752 273.961 129.346C273.015 129.94 272.256 130.754 271.684 131.787C271.134 132.799 270.86 133.943 270.86 135.218C270.86 136.494 271.134 137.648 271.684 138.682C272.256 139.694 273.015 140.496 273.961 141.09C274.928 141.684 276.006 141.981 277.193 141.981Z" fill="black"/>
</svg>
