<svg width="347" height="223" viewBox="0 0 347 223" fill="none" xmlns="http://www.w3.org/2000/svg">
<path d="M123.392 176.167C112.678 176.167 103.288 173.278 95.223 167.499C87.1576 161.601 80.8376 153.475 76.2632 143.123C71.8092 132.65 69.5821 120.491 69.5821 106.648C69.5821 92.6835 71.8092 80.5251 76.2632 70.1725C80.8376 59.8198 87.0974 51.7544 95.0424 45.9762C103.108 40.1979 112.498 37.3088 123.211 37.3088C133.925 37.3088 143.255 40.1979 151.2 45.9762C159.265 51.7544 165.525 59.88 169.979 70.3531C174.553 80.7057 176.84 92.8039 176.84 106.648C176.84 120.491 174.613 132.65 170.159 143.123C165.705 153.475 159.446 161.601 151.38 167.499C143.435 173.278 134.106 176.167 123.392 176.167ZM123.392 156.665C130.013 156.665 135.731 154.619 140.546 150.526C145.361 146.433 149.093 140.655 151.741 133.191C154.39 125.728 155.714 116.88 155.714 106.648C155.714 96.4153 154.39 87.5674 151.741 80.1038C149.093 72.6403 145.361 66.862 140.546 62.7691C135.731 58.6762 129.953 56.6298 123.211 56.6298C116.59 56.6298 110.872 58.6762 106.057 62.7691C101.242 66.862 97.5102 72.6403 94.8619 80.1038C92.2135 87.5674 90.8893 96.4153 90.8893 106.648C90.8893 116.759 92.2135 125.607 94.8619 133.191C97.5102 140.655 101.242 146.433 106.057 150.526C110.993 154.619 116.771 156.665 123.392 156.665ZM258.967 174V143.664H194.865V125.968L258.064 39.4757H279.191V125.968H297.79V143.664H279.191V174H258.967ZM210.575 133.733L207.144 125.968H258.967V56.4492L264.745 58.2549L210.575 133.733Z" fill="#0A0A0A"/>
<rect x="15.0869" y="148.62" width="315.748" height="73.7281" rx="36.864" fill="white"/>
<rect x="15.8883" y="149.421" width="314.146" height="72.1253" rx="36.0626" stroke="white" stroke-opacity="0.2" stroke-width="1.60278"/>
<rect x="0.801392" y="157.506" width="345.397" height="64.1332" rx="32.0666" fill="white"/>
<rect x="0.801392" y="157.506" width="345.397" height="64.1332" rx="32.0666" stroke="black" stroke-width="1.60278"/>
<rect x="0.801392" y="157.506" width="345.397" height="64.1332" rx="32.0666" stroke="white" stroke-opacity="0.2" stroke-width="1.60278"/>
<path d="M54.9878 203.454C53.4264 203.454 52.0079 203.158 50.7323 202.564C49.4567 201.97 48.3791 201.178 47.4994 200.189C46.6197 199.177 45.9929 198.066 45.6191 196.857L47.9942 195.966C48.5661 197.637 49.4567 198.913 50.6663 199.793C51.8759 200.65 53.3164 201.079 54.9878 201.079C56.0435 201.079 56.9672 200.914 57.7589 200.584C58.5726 200.233 59.1994 199.749 59.6392 199.133C60.0791 198.517 60.299 197.802 60.299 196.989C60.299 195.779 59.9691 194.844 59.3094 194.185C58.6496 193.525 57.7039 193.019 56.4723 192.667L52.0519 191.348C50.3145 190.842 48.9729 189.995 48.0272 188.807C47.1036 187.62 46.6417 186.267 46.6417 184.75C46.6417 183.452 46.9606 182.309 47.5984 181.319C48.2362 180.307 49.1049 179.516 50.2045 178.944C51.3261 178.372 52.5907 178.086 53.9982 178.086C55.4717 178.086 56.7912 178.361 57.9568 178.911C59.1444 179.439 60.1451 180.142 60.9588 181.022C61.7725 181.902 62.3553 182.881 62.7072 183.958L60.398 184.882C59.8702 183.43 59.0455 182.331 57.9238 181.583C56.8242 180.835 55.5267 180.461 54.0312 180.461C53.0855 180.461 52.2498 180.626 51.524 180.956C50.8203 181.286 50.2705 181.759 49.8746 182.375C49.4787 182.99 49.2808 183.716 49.2808 184.552C49.2808 185.564 49.5997 186.476 50.2375 187.29C50.8753 188.082 51.8539 188.676 53.1735 189.071L57.0661 190.226C59.0015 190.798 60.464 191.623 61.4536 192.7C62.4433 193.778 62.9381 195.13 62.9381 196.758C62.9381 198.077 62.5972 199.243 61.9155 200.255C61.2557 201.244 60.321 202.025 59.1114 202.597C57.9238 203.169 56.5493 203.454 54.9878 203.454ZM75.7537 203.454C74.0163 203.454 72.4878 203.048 71.1683 202.234C69.8487 201.42 68.8151 200.321 68.0673 198.935C67.3196 197.527 66.9457 195.944 66.9457 194.185C66.9457 192.425 67.3196 190.853 68.0673 189.467C68.8151 188.082 69.8487 186.993 71.1683 186.201C72.4878 185.388 74.0163 184.981 75.7537 184.981C76.8533 184.981 77.887 185.179 78.8546 185.575C79.8223 185.97 80.68 186.509 81.4278 187.191C82.1755 187.851 82.7363 188.621 83.1102 189.5L80.8669 190.655C80.4271 189.709 79.7563 188.939 78.8546 188.346C77.9529 187.752 76.9193 187.455 75.7537 187.455C74.5881 187.455 73.5325 187.752 72.5868 188.346C71.6631 188.917 70.9264 189.72 70.3765 190.754C69.8487 191.765 69.5848 192.92 69.5848 194.218C69.5848 195.493 69.8487 196.648 70.3765 197.681C70.9264 198.693 71.6631 199.496 72.5868 200.09C73.5325 200.683 74.5881 200.98 75.7537 200.98C76.9193 200.98 77.9419 200.683 78.8216 200.09C79.7233 199.496 80.4051 198.704 80.8669 197.714L83.1102 198.935C82.7363 199.793 82.1755 200.562 81.4278 201.244C80.68 201.926 79.8223 202.465 78.8546 202.861C77.887 203.257 76.8533 203.454 75.7537 203.454ZM92.2429 203.454C91.1213 203.454 90.1206 203.246 89.2409 202.828C88.3612 202.388 87.6685 201.794 87.1626 201.046C86.6568 200.299 86.4039 199.441 86.4039 198.473C86.4039 197.549 86.6018 196.714 86.9977 195.966C87.3935 195.196 88.0093 194.548 88.845 194.02C89.6808 193.492 90.7474 193.118 92.0449 192.898L98.9726 191.743V193.987L92.6387 195.042C91.3632 195.262 90.4395 195.669 89.8677 196.263C89.3179 196.857 89.043 197.56 89.043 198.374C89.043 199.166 89.3509 199.837 89.9667 200.387C90.6044 200.936 91.4182 201.211 92.4078 201.211C93.6174 201.211 94.673 200.958 95.5747 200.452C96.4764 199.925 97.1802 199.221 97.686 198.341C98.1918 197.462 98.4448 196.483 98.4448 195.405V190.919C98.4448 189.863 98.0599 189.005 97.2901 188.346C96.5204 187.686 95.5198 187.356 94.2882 187.356C93.2105 187.356 92.2649 187.631 91.4512 188.181C90.6374 188.709 90.0326 189.401 89.6368 190.259L87.3935 189.038C87.7234 188.291 88.2403 187.609 88.944 186.993C89.6698 186.377 90.4945 185.893 91.4182 185.542C92.3418 185.168 93.2985 184.981 94.2882 184.981C95.5857 184.981 96.7293 185.234 97.719 185.74C98.7307 186.245 99.5114 186.949 100.061 187.851C100.633 188.731 100.919 189.753 100.919 190.919V203.059H98.4448V199.529L98.8076 199.892C98.4997 200.551 98.0159 201.156 97.3561 201.706C96.7183 202.234 95.9596 202.663 95.0799 202.993C94.2222 203.301 93.2765 203.454 92.2429 203.454ZM106.008 203.059V178.086H108.482V203.059H106.008ZM121.596 203.454C119.946 203.454 118.451 203.059 117.109 202.267C115.79 201.453 114.745 200.343 113.975 198.935C113.205 197.527 112.821 195.933 112.821 194.152C112.821 192.37 113.194 190.798 113.942 189.434C114.69 188.049 115.702 186.96 116.977 186.168C118.275 185.377 119.726 184.981 121.332 184.981C122.607 184.981 123.74 185.223 124.73 185.707C125.741 186.168 126.599 186.806 127.303 187.62C128.006 188.412 128.545 189.313 128.919 190.325C129.293 191.315 129.48 192.337 129.48 193.393C129.48 193.613 129.469 193.866 129.447 194.152C129.425 194.416 129.392 194.69 129.348 194.976H114.404V192.667H127.929L126.742 193.657C126.94 192.447 126.797 191.37 126.313 190.424C125.851 189.456 125.18 188.698 124.301 188.148C123.421 187.576 122.431 187.29 121.332 187.29C120.232 187.29 119.209 187.576 118.264 188.148C117.34 188.72 116.614 189.522 116.086 190.556C115.559 191.568 115.35 192.777 115.46 194.185C115.35 195.592 115.57 196.824 116.119 197.879C116.691 198.913 117.461 199.716 118.429 200.288C119.418 200.859 120.474 201.145 121.596 201.145C122.893 201.145 123.982 200.837 124.861 200.222C125.741 199.606 126.456 198.836 127.006 197.912L129.117 199.034C128.765 199.826 128.226 200.562 127.501 201.244C126.775 201.904 125.906 202.443 124.894 202.861C123.905 203.257 122.805 203.454 121.596 203.454ZM142.848 203.454C141.111 203.454 139.582 203.092 138.263 202.366C136.943 201.64 135.92 200.65 135.195 199.397C134.469 198.121 134.106 196.67 134.106 195.042V178.482H136.745V195.042C136.745 196.23 136.998 197.275 137.504 198.176C138.032 199.056 138.746 199.749 139.648 200.255C140.572 200.738 141.638 200.98 142.848 200.98C144.058 200.98 145.113 200.738 146.015 200.255C146.939 199.749 147.653 199.056 148.159 198.176C148.687 197.275 148.951 196.23 148.951 195.042V178.482H151.59V195.042C151.59 196.67 151.227 198.121 150.501 199.397C149.776 200.65 148.753 201.64 147.433 202.366C146.136 203.092 144.607 203.454 142.848 203.454ZM156.941 209.656V185.377H159.415V189.335L159.019 188.643C159.723 187.521 160.657 186.63 161.823 185.97C163.011 185.311 164.363 184.981 165.881 184.981C167.552 184.981 169.036 185.388 170.334 186.201C171.654 186.993 172.687 188.082 173.435 189.467C174.205 190.853 174.59 192.436 174.59 194.218C174.59 195.977 174.205 197.56 173.435 198.968C172.687 200.354 171.654 201.453 170.334 202.267C169.036 203.059 167.552 203.454 165.881 203.454C164.363 203.454 162.989 203.114 161.757 202.432C160.547 201.728 159.635 200.738 159.019 199.463L159.415 199.1V209.656H156.941ZM165.749 200.98C166.936 200.98 167.992 200.683 168.916 200.09C169.861 199.496 170.598 198.693 171.126 197.681C171.676 196.648 171.95 195.493 171.95 194.218C171.95 192.92 171.676 191.765 171.126 190.754C170.598 189.742 169.861 188.939 168.916 188.346C167.992 187.752 166.936 187.455 165.749 187.455C164.561 187.455 163.483 187.752 162.516 188.346C161.57 188.939 160.811 189.753 160.239 190.787C159.69 191.798 159.415 192.942 159.415 194.218C159.415 195.493 159.69 196.648 160.239 197.681C160.811 198.693 161.57 199.496 162.516 200.09C163.483 200.683 164.561 200.98 165.749 200.98ZM189.168 203.059V180.956H182.372V178.482H198.536V180.956H191.807V203.059H189.168ZM201.43 203.059V185.377H203.904V203.059H201.43ZM201.43 182.111V178.482H203.904V182.111H201.43ZM208.969 203.059V185.377H211.443V188.742L211.047 188.247C211.531 187.213 212.246 186.41 213.191 185.839C214.159 185.267 215.215 184.981 216.358 184.981C217.722 184.981 218.953 185.366 220.053 186.135C221.152 186.905 221.933 187.906 222.395 189.137L221.702 189.17C222.142 187.807 222.901 186.773 223.979 186.069C225.078 185.344 226.288 184.981 227.607 184.981C228.795 184.981 229.883 185.267 230.873 185.839C231.885 186.41 232.688 187.202 233.281 188.214C233.897 189.203 234.205 190.325 234.205 191.579V203.059H231.731V192.535C231.731 191.458 231.533 190.545 231.137 189.797C230.763 189.049 230.246 188.478 229.587 188.082C228.927 187.664 228.168 187.455 227.31 187.455C226.475 187.455 225.716 187.664 225.034 188.082C224.352 188.478 223.814 189.06 223.418 189.83C223.022 190.578 222.824 191.48 222.824 192.535V203.059H220.35V192.535C220.35 191.458 220.152 190.545 219.756 189.797C219.382 189.049 218.865 188.478 218.205 188.082C217.546 187.664 216.787 187.455 215.929 187.455C215.072 187.455 214.302 187.664 213.62 188.082C212.96 188.478 212.432 189.06 212.037 189.83C211.641 190.578 211.443 191.48 211.443 192.535V203.059H208.969ZM246.978 203.454C245.329 203.454 243.833 203.059 242.492 202.267C241.172 201.453 240.128 200.343 239.358 198.935C238.588 197.527 238.203 195.933 238.203 194.152C238.203 192.37 238.577 190.798 239.325 189.434C240.073 188.049 241.084 186.96 242.36 186.168C243.657 185.377 245.109 184.981 246.714 184.981C247.99 184.981 249.123 185.223 250.112 185.707C251.124 186.168 251.982 186.806 252.685 187.62C253.389 188.412 253.928 189.313 254.302 190.325C254.676 191.315 254.863 192.337 254.863 193.393C254.863 193.613 254.852 193.866 254.83 194.152C254.808 194.416 254.775 194.69 254.731 194.976H239.787V192.667H253.312L252.125 193.657C252.322 192.447 252.18 191.37 251.696 190.424C251.234 189.456 250.563 188.698 249.683 188.148C248.804 187.576 247.814 187.29 246.714 187.29C245.615 187.29 244.592 187.576 243.646 188.148C242.723 188.72 241.997 189.522 241.469 190.556C240.941 191.568 240.732 192.777 240.842 194.185C240.732 195.592 240.952 196.824 241.502 197.879C242.074 198.913 242.844 199.716 243.811 200.288C244.801 200.859 245.857 201.145 246.978 201.145C248.276 201.145 249.364 200.837 250.244 200.222C251.124 199.606 251.839 198.836 252.388 197.912L254.5 199.034C254.148 199.826 253.609 200.562 252.883 201.244C252.158 201.904 251.289 202.443 250.277 202.861C249.288 203.257 248.188 203.454 246.978 203.454ZM259.225 203.059V178.086H261.699V203.059H259.225ZM266.763 203.059V185.377H269.237V203.059H266.763ZM266.763 182.111V178.482H269.237V182.111H266.763ZM274.302 203.059V185.377H276.776V188.807L276.215 188.676C276.655 187.532 277.37 186.63 278.359 185.97C279.371 185.311 280.537 184.981 281.856 184.981C283.11 184.981 284.231 185.267 285.221 185.839C286.233 186.41 287.024 187.202 287.596 188.214C288.19 189.203 288.487 190.325 288.487 191.579V203.059H286.013V192.535C286.013 191.458 285.815 190.545 285.419 189.797C285.045 189.049 284.506 188.478 283.802 188.082C283.121 187.664 282.329 187.455 281.427 187.455C280.526 187.455 279.723 187.664 279.019 188.082C278.315 188.478 277.765 189.06 277.37 189.83C276.974 190.578 276.776 191.48 276.776 192.535V203.059H274.302ZM301.261 203.454C299.612 203.454 298.117 203.059 296.775 202.267C295.455 201.453 294.411 200.343 293.641 198.935C292.871 197.527 292.486 195.933 292.486 194.152C292.486 192.37 292.86 190.798 293.608 189.434C294.356 188.049 295.367 186.96 296.643 186.168C297.941 185.377 299.392 184.981 300.998 184.981C302.273 184.981 303.406 185.223 304.395 185.707C305.407 186.168 306.265 186.806 306.968 187.62C307.672 188.412 308.211 189.313 308.585 190.325C308.959 191.315 309.146 192.337 309.146 193.393C309.146 193.613 309.135 193.866 309.113 194.152C309.091 194.416 309.058 194.69 309.014 194.976H294.07V192.667H307.595L306.408 193.657C306.606 192.447 306.463 191.37 305.979 190.424C305.517 189.456 304.846 188.698 303.966 188.148C303.087 187.576 302.097 187.29 300.998 187.29C299.898 187.29 298.875 187.576 297.93 188.148C297.006 188.72 296.28 189.522 295.752 190.556C295.224 191.568 295.016 192.777 295.126 194.185C295.016 195.592 295.235 196.824 295.785 197.879C296.357 198.913 297.127 199.716 298.095 200.288C299.084 200.859 300.14 201.145 301.261 201.145C302.559 201.145 303.648 200.837 304.527 200.222C305.407 199.606 306.122 198.836 306.672 197.912L308.783 199.034C308.431 199.826 307.892 200.562 307.166 201.244C306.441 201.904 305.572 202.443 304.56 202.861C303.571 203.257 302.471 203.454 301.261 203.454Z" fill="black"/>
</svg>
