<svg width="347" height="201" viewBox="0 0 347 201" fill="none" xmlns="http://www.w3.org/2000/svg">
<path d="M126.392 176.167C115.678 176.167 106.289 173.278 98.2233 167.499C90.1578 161.601 83.8379 153.475 79.2634 143.123C74.8094 132.65 72.5824 120.491 72.5824 106.648C72.5824 92.6835 74.8094 80.5251 79.2634 70.1725C83.8379 59.8198 90.0976 51.7544 98.0427 45.9762C106.108 40.1979 115.498 37.3088 126.212 37.3088C136.925 37.3088 146.255 40.1979 154.2 45.9762C162.265 51.7544 168.525 59.88 172.979 70.3531C177.553 80.7057 179.841 92.8039 179.841 106.648C179.841 120.491 177.614 132.65 173.16 143.123C168.706 153.475 162.446 161.601 154.38 167.499C146.435 173.278 137.106 176.167 126.392 176.167ZM126.392 156.665C133.013 156.665 138.731 154.619 143.546 150.526C148.361 146.433 152.093 140.655 154.742 133.191C157.39 125.728 158.714 116.88 158.714 106.648C158.714 96.4153 157.39 87.5674 154.742 80.1038C152.093 72.6403 148.361 66.862 143.546 62.7691C138.731 58.6762 132.953 56.6298 126.212 56.6298C119.591 56.6298 113.873 58.6762 109.057 62.7691C104.242 66.862 100.51 72.6403 97.8621 80.1038C95.2138 87.5674 93.8896 96.4153 93.8896 106.648C93.8896 116.759 95.2138 125.607 97.8621 133.191C100.51 140.655 104.242 146.433 109.057 150.526C113.993 154.619 119.771 156.665 126.392 156.665ZM244.813 176.167C237.711 176.167 231.03 174.903 224.77 172.375C218.51 169.727 213.093 166.055 208.519 161.36C203.944 156.665 200.694 151.007 198.768 144.387L216.644 137.525C218.932 143.905 222.663 148.78 227.84 152.151C233.016 155.522 238.674 157.207 244.813 157.207C249.869 157.207 254.323 156.063 258.175 153.776C262.028 151.489 265.037 148.359 267.204 144.387C269.491 140.414 270.635 135.9 270.635 130.844C270.635 125.668 269.491 121.153 267.204 117.301C265.037 113.329 262.028 110.259 258.175 108.092C254.323 105.805 249.869 104.661 244.813 104.661C239.757 104.661 235.123 105.805 230.909 108.092C226.696 110.379 223.626 113.449 221.7 117.301L204.546 113.509L215.019 39.4757H286.705V57.5326H223.326L231.451 48.6847L223.687 105.384L217.006 100.869C220.617 95.8134 225.011 92.1418 230.187 89.8546C235.363 87.5674 241.262 86.4238 247.883 86.4238C256.671 86.4238 264.315 88.41 270.815 92.3825C277.436 96.2347 282.552 101.531 286.164 108.273C289.896 114.894 291.761 122.417 291.761 130.844C291.761 139.391 289.715 147.095 285.622 153.957C281.529 160.818 275.931 166.236 268.829 170.208C261.847 174.181 253.842 176.167 244.813 176.167Z" fill="#0A0A0A"/>
<rect x="15.0869" y="126.62" width="315.748" height="73.7281" rx="36.864" fill="white"/>
<rect x="15.8883" y="127.421" width="314.146" height="72.1253" rx="36.0626" stroke="white" stroke-opacity="0.2" stroke-width="1.60278"/>
<rect x="0.801392" y="135.506" width="345.397" height="64.1332" rx="32.0666" fill="white"/>
<rect x="0.801392" y="135.506" width="345.397" height="64.1332" rx="32.0666" stroke="black" stroke-width="1.60278"/>
<rect x="0.801392" y="135.506" width="345.397" height="64.1332" rx="32.0666" stroke="white" stroke-opacity="0.2" stroke-width="1.60278"/>
<path d="M47.1832 181.396C45.6217 181.396 44.2032 181.099 42.9276 180.505C41.6521 179.911 40.5744 179.12 39.6947 178.13C38.815 177.118 38.1882 176.008 37.8144 174.798L40.1896 173.907C40.7614 175.579 41.6521 176.854 42.8616 177.734C44.0712 178.592 45.5117 179.021 47.1832 179.021C48.2388 179.021 49.1625 178.856 49.9542 178.526C50.7679 178.174 51.3947 177.69 51.8346 177.074C52.2744 176.459 52.4943 175.744 52.4943 174.93C52.4943 173.72 52.1644 172.786 51.5047 172.126C50.8449 171.466 49.8992 170.96 48.6676 170.609L44.2472 169.289C42.5098 168.783 41.1682 167.936 40.2226 166.749C39.2989 165.561 38.837 164.209 38.837 162.691C38.837 161.394 39.1559 160.25 39.7937 159.26C40.4315 158.249 41.3002 157.457 42.3998 156.885C43.5214 156.313 44.786 156.028 46.1935 156.028C47.667 156.028 48.9865 156.302 50.1521 156.852C51.3397 157.38 52.3404 158.084 53.1541 158.964C53.9678 159.843 54.5506 160.822 54.9025 161.9L52.5933 162.823C52.0655 161.372 51.2408 160.272 50.1192 159.524C49.0195 158.777 47.722 158.403 46.2265 158.403C45.2808 158.403 44.4451 158.568 43.7193 158.898C43.0156 159.227 42.4658 159.7 42.0699 160.316C41.6741 160.932 41.4761 161.658 41.4761 162.493C41.4761 163.505 41.795 164.418 42.4328 165.231C43.0706 166.023 44.0492 166.617 45.3688 167.013L49.2614 168.167C51.1968 168.739 52.6593 169.564 53.6489 170.642C54.6386 171.719 55.1334 173.072 55.1334 174.699C55.1334 176.019 54.7925 177.184 54.1108 178.196C53.451 179.186 52.5163 179.966 51.3067 180.538C50.1192 181.11 48.7446 181.396 47.1832 181.396ZM67.949 181.396C66.2116 181.396 64.6831 180.989 63.3636 180.175C62.044 179.362 61.0104 178.262 60.2627 176.876C59.5149 175.469 59.141 173.885 59.141 172.126C59.141 170.367 59.5149 168.794 60.2627 167.409C61.0104 166.023 62.044 164.935 63.3636 164.143C64.6831 163.329 66.2116 162.922 67.949 162.922C69.0486 162.922 70.0823 163.12 71.0499 163.516C72.0176 163.912 72.8753 164.451 73.6231 165.132C74.3708 165.792 74.9316 166.562 75.3055 167.442L73.0623 168.596C72.6224 167.651 71.9516 166.881 71.0499 166.287C70.1483 165.693 69.1146 165.396 67.949 165.396C66.7834 165.396 65.7278 165.693 64.7821 166.287C63.8584 166.859 63.1217 167.662 62.5719 168.695C62.044 169.707 61.7801 170.861 61.7801 172.159C61.7801 173.435 62.044 174.589 62.5719 175.623C63.1217 176.634 63.8584 177.437 64.7821 178.031C65.7278 178.625 66.7834 178.922 67.949 178.922C69.1146 178.922 70.1373 178.625 71.017 178.031C71.9186 177.437 72.6004 176.645 73.0623 175.656L75.3055 176.876C74.9316 177.734 74.3708 178.504 73.6231 179.186C72.8753 179.867 72.0176 180.406 71.0499 180.802C70.0823 181.198 69.0486 181.396 67.949 181.396ZM84.4382 181.396C83.3166 181.396 82.3159 181.187 81.4362 180.769C80.5565 180.329 79.8638 179.735 79.3579 178.988C78.8521 178.24 78.5992 177.382 78.5992 176.415C78.5992 175.491 78.7971 174.655 79.193 173.907C79.5889 173.138 80.2046 172.489 81.0404 171.961C81.8761 171.433 82.9427 171.059 84.2403 170.839L91.1679 169.685V171.928L84.8341 172.984C83.5585 173.204 82.6348 173.611 82.063 174.204C81.5132 174.798 81.2383 175.502 81.2383 176.316C81.2383 177.107 81.5462 177.778 82.162 178.328C82.7998 178.878 83.6135 179.153 84.6031 179.153C85.8127 179.153 86.8684 178.9 87.77 178.394C88.6717 177.866 89.3755 177.162 89.8813 176.283C90.3871 175.403 90.6401 174.424 90.6401 173.347V168.86C90.6401 167.805 90.2552 166.947 89.4855 166.287C88.7157 165.627 87.7151 165.297 86.4835 165.297C85.4059 165.297 84.4602 165.572 83.6465 166.122C82.8327 166.65 82.228 167.343 81.8321 168.2L79.5889 166.98C79.9187 166.232 80.4356 165.55 81.1393 164.935C81.8651 164.319 82.6898 163.835 83.6135 163.483C84.5372 163.109 85.4938 162.922 86.4835 162.922C87.781 162.922 88.9247 163.175 89.9143 163.681C90.926 164.187 91.7067 164.891 92.2565 165.792C92.8283 166.672 93.1142 167.695 93.1142 168.86V181H90.6401V177.47L91.0029 177.833C90.695 178.493 90.2112 179.098 89.5514 179.647C88.9137 180.175 88.1549 180.604 87.2752 180.934C86.4175 181.242 85.4718 181.396 84.4382 181.396ZM98.2032 181V156.028H100.677V181H98.2032ZM113.791 181.396C112.141 181.396 110.646 181 109.304 180.208C107.985 179.395 106.94 178.284 106.171 176.876C105.401 175.469 105.016 173.874 105.016 172.093C105.016 170.312 105.39 168.739 106.138 167.376C106.885 165.99 107.897 164.902 109.172 164.11C110.47 163.318 111.922 162.922 113.527 162.922C114.803 162.922 115.935 163.164 116.925 163.648C117.936 164.11 118.794 164.748 119.498 165.561C120.202 166.353 120.741 167.255 121.114 168.266C121.488 169.256 121.675 170.279 121.675 171.334C121.675 171.554 121.664 171.807 121.642 172.093C121.62 172.357 121.587 172.632 121.543 172.918H106.599V170.609H120.125L118.937 171.598C119.135 170.389 118.992 169.311 118.508 168.365C118.046 167.398 117.376 166.639 116.496 166.089C115.616 165.517 114.627 165.231 113.527 165.231C112.427 165.231 111.405 165.517 110.459 166.089C109.535 166.661 108.81 167.464 108.282 168.497C107.754 169.509 107.545 170.719 107.655 172.126C107.545 173.534 107.765 174.765 108.315 175.821C108.887 176.854 109.656 177.657 110.624 178.229C111.614 178.801 112.669 179.087 113.791 179.087C115.088 179.087 116.177 178.779 117.057 178.163C117.936 177.547 118.651 176.777 119.201 175.854L121.312 176.975C120.96 177.767 120.422 178.504 119.696 179.186C118.97 179.845 118.101 180.384 117.09 180.802C116.1 181.198 115 181.396 113.791 181.396ZM135.043 181.396C133.306 181.396 131.777 181.033 130.458 180.307C129.138 179.581 128.116 178.592 127.39 177.338C126.664 176.063 126.301 174.611 126.301 172.984V156.423H128.94V172.984C128.94 174.171 129.193 175.216 129.699 176.118C130.227 176.997 130.942 177.69 131.843 178.196C132.767 178.68 133.834 178.922 135.043 178.922C136.253 178.922 137.309 178.68 138.21 178.196C139.134 177.69 139.849 176.997 140.355 176.118C140.882 175.216 141.146 174.171 141.146 172.984V156.423H143.785V172.984C143.785 174.611 143.422 176.063 142.697 177.338C141.971 178.592 140.948 179.581 139.629 180.307C138.331 181.033 136.803 181.396 135.043 181.396ZM149.136 187.598V163.318H151.61V167.277L151.214 166.584C151.918 165.462 152.853 164.572 154.018 163.912C155.206 163.252 156.558 162.922 158.076 162.922C159.747 162.922 161.232 163.329 162.529 164.143C163.849 164.935 164.883 166.023 165.63 167.409C166.4 168.794 166.785 170.378 166.785 172.159C166.785 173.918 166.4 175.502 165.63 176.909C164.883 178.295 163.849 179.395 162.529 180.208C161.232 181 159.747 181.396 158.076 181.396C156.558 181.396 155.184 181.055 153.952 180.373C152.743 179.669 151.83 178.68 151.214 177.404L151.61 177.041V187.598H149.136ZM157.944 178.922C159.132 178.922 160.187 178.625 161.111 178.031C162.057 177.437 162.793 176.634 163.321 175.623C163.871 174.589 164.146 173.435 164.146 172.159C164.146 170.861 163.871 169.707 163.321 168.695C162.793 167.684 162.057 166.881 161.111 166.287C160.187 165.693 159.132 165.396 157.944 165.396C156.756 165.396 155.679 165.693 154.711 166.287C153.765 166.881 153.007 167.695 152.435 168.728C151.885 169.74 151.61 170.883 151.61 172.159C151.61 173.435 151.885 174.589 152.435 175.623C153.007 176.634 153.765 177.437 154.711 178.031C155.679 178.625 156.756 178.922 157.944 178.922ZM185.388 181.396C183.826 181.396 182.408 181.099 181.132 180.505C179.857 179.911 178.779 179.12 177.899 178.13C177.02 177.118 176.393 176.008 176.019 174.798L178.394 173.907C178.966 175.579 179.857 176.854 181.066 177.734C182.276 178.592 183.716 179.021 185.388 179.021C186.443 179.021 187.367 178.856 188.159 178.526C188.972 178.174 189.599 177.69 190.039 177.074C190.479 176.459 190.699 175.744 190.699 174.93C190.699 173.72 190.369 172.786 189.709 172.126C189.049 171.466 188.104 170.96 186.872 170.609L182.452 169.289C180.714 168.783 179.373 167.936 178.427 166.749C177.503 165.561 177.042 164.209 177.042 162.691C177.042 161.394 177.36 160.25 177.998 159.26C178.636 158.249 179.505 157.457 180.604 156.885C181.726 156.313 182.99 156.028 184.398 156.028C185.871 156.028 187.191 156.302 188.357 156.852C189.544 157.38 190.545 158.084 191.359 158.964C192.172 159.843 192.755 160.822 193.107 161.9L190.798 162.823C190.27 161.372 189.445 160.272 188.324 159.524C187.224 158.777 185.926 158.403 184.431 158.403C183.485 158.403 182.65 158.568 181.924 158.898C181.22 159.227 180.67 159.7 180.274 160.316C179.879 160.932 179.681 161.658 179.681 162.493C179.681 163.505 179.999 164.418 180.637 165.231C181.275 166.023 182.254 166.617 183.573 167.013L187.466 168.167C189.401 168.739 190.864 169.564 191.853 170.642C192.843 171.719 193.338 173.072 193.338 174.699C193.338 176.019 192.997 177.184 192.315 178.196C191.655 179.186 190.721 179.966 189.511 180.538C188.324 181.11 186.949 181.396 185.388 181.396ZM198.071 187.598V163.318H200.545V167.277L200.15 166.584C200.853 165.462 201.788 164.572 202.954 163.912C204.141 163.252 205.494 162.922 207.011 162.922C208.683 162.922 210.167 163.329 211.465 164.143C212.784 164.935 213.818 166.023 214.566 167.409C215.335 168.794 215.72 170.378 215.72 172.159C215.72 173.918 215.335 175.502 214.566 176.909C213.818 178.295 212.784 179.395 211.465 180.208C210.167 181 208.683 181.396 207.011 181.396C205.494 181.396 204.119 181.055 202.888 180.373C201.678 179.669 200.765 178.68 200.15 177.404L200.545 177.041V187.598H198.071ZM206.879 178.922C208.067 178.922 209.122 178.625 210.046 178.031C210.992 177.437 211.729 176.634 212.256 175.623C212.806 174.589 213.081 173.435 213.081 172.159C213.081 170.861 212.806 169.707 212.256 168.695C211.729 167.684 210.992 166.881 210.046 166.287C209.122 165.693 208.067 165.396 206.879 165.396C205.692 165.396 204.614 165.693 203.646 166.287C202.701 166.881 201.942 167.695 201.37 168.728C200.82 169.74 200.545 170.883 200.545 172.159C200.545 173.435 200.82 174.589 201.37 175.623C201.942 176.634 202.701 177.437 203.646 178.031C204.614 178.625 205.692 178.922 206.879 178.922ZM228.124 181.396C226.474 181.396 224.979 181 223.637 180.208C222.318 179.395 221.273 178.284 220.503 176.876C219.734 175.469 219.349 173.874 219.349 172.093C219.349 170.312 219.723 168.739 220.47 167.376C221.218 165.99 222.23 164.902 223.505 164.11C224.803 163.318 226.254 162.922 227.86 162.922C229.135 162.922 230.268 163.164 231.258 163.648C232.269 164.11 233.127 164.748 233.831 165.561C234.534 166.353 235.073 167.255 235.447 168.266C235.821 169.256 236.008 170.279 236.008 171.334C236.008 171.554 235.997 171.807 235.975 172.093C235.953 172.357 235.92 172.632 235.876 172.918H220.932V170.609H234.458L233.27 171.598C233.468 170.389 233.325 169.311 232.841 168.365C232.379 167.398 231.708 166.639 230.829 166.089C229.949 165.517 228.959 165.231 227.86 165.231C226.76 165.231 225.738 165.517 224.792 166.089C223.868 166.661 223.142 167.464 222.615 168.497C222.087 169.509 221.878 170.719 221.988 172.126C221.878 173.534 222.098 174.765 222.648 175.821C223.219 176.854 223.989 177.657 224.957 178.229C225.946 178.801 227.002 179.087 228.124 179.087C229.421 179.087 230.51 178.779 231.39 178.163C232.269 177.547 232.984 176.777 233.534 175.854L235.645 176.975C235.293 177.767 234.754 178.504 234.029 179.186C233.303 179.845 232.434 180.384 231.423 180.802C230.433 181.198 229.333 181.396 228.124 181.396ZM245.161 181.396C244.04 181.396 243.039 181.187 242.159 180.769C241.28 180.329 240.587 179.735 240.081 178.988C239.575 178.24 239.322 177.382 239.322 176.415C239.322 175.491 239.52 174.655 239.916 173.907C240.312 173.138 240.928 172.489 241.763 171.961C242.599 171.433 243.666 171.059 244.963 170.839L251.891 169.685V171.928L245.557 172.984C244.282 173.204 243.358 173.611 242.786 174.204C242.236 174.798 241.961 175.502 241.961 176.316C241.961 177.107 242.269 177.778 242.885 178.328C243.523 178.878 244.337 179.153 245.326 179.153C246.536 179.153 247.591 178.9 248.493 178.394C249.395 177.866 250.099 177.162 250.604 176.283C251.11 175.403 251.363 174.424 251.363 173.347V168.86C251.363 167.805 250.978 166.947 250.209 166.287C249.439 165.627 248.438 165.297 247.207 165.297C246.129 165.297 245.183 165.572 244.37 166.122C243.556 166.65 242.951 167.343 242.555 168.2L240.312 166.98C240.642 166.232 241.159 165.55 241.862 164.935C242.588 164.319 243.413 163.835 244.337 163.483C245.26 163.109 246.217 162.922 247.207 162.922C248.504 162.922 249.648 163.175 250.637 163.681C251.649 164.187 252.43 164.891 252.98 165.792C253.551 166.672 253.837 167.695 253.837 168.86V181H251.363V177.47L251.726 177.833C251.418 178.493 250.934 179.098 250.275 179.647C249.637 180.175 248.878 180.604 247.998 180.934C247.141 181.242 246.195 181.396 245.161 181.396ZM258.926 181V156.028H261.401V173.512L260.345 173.347L270.274 163.318H273.474L266.547 170.411L274.101 181H271.132L264.04 171.202L265.623 171.334L260.576 176.547L261.401 174.501V181H258.926ZM284.726 181.396C283.077 181.396 281.581 181 280.24 180.208C278.92 179.395 277.876 178.284 277.106 176.876C276.336 175.469 275.951 173.874 275.951 172.093C275.951 170.312 276.325 168.739 277.073 167.376C277.821 165.99 278.832 164.902 280.108 164.11C281.405 163.318 282.857 162.922 284.462 162.922C285.738 162.922 286.871 163.164 287.86 163.648C288.872 164.11 289.73 164.748 290.433 165.561C291.137 166.353 291.676 167.255 292.05 168.266C292.424 169.256 292.611 170.279 292.611 171.334C292.611 171.554 292.6 171.807 292.578 172.093C292.556 172.357 292.523 172.632 292.479 172.918H277.535V170.609H291.06L289.873 171.598C290.07 170.389 289.928 169.311 289.444 168.365C288.982 167.398 288.311 166.639 287.431 166.089C286.552 165.517 285.562 165.231 284.462 165.231C283.363 165.231 282.34 165.517 281.394 166.089C280.471 166.661 279.745 167.464 279.217 168.497C278.689 169.509 278.48 170.719 278.59 172.126C278.48 173.534 278.7 174.765 279.25 175.821C279.822 176.854 280.592 177.657 281.559 178.229C282.549 178.801 283.605 179.087 284.726 179.087C286.024 179.087 287.113 178.779 287.992 178.163C288.872 177.547 289.587 176.777 290.136 175.854L292.248 176.975C291.896 177.767 291.357 178.504 290.631 179.186C289.906 179.845 289.037 180.384 288.025 180.802C287.036 181.198 285.936 181.396 284.726 181.396ZM296.973 181V163.318H299.447V166.221L299.117 165.792C299.535 164.957 300.162 164.297 300.997 163.813C301.855 163.329 302.889 163.087 304.098 163.087H305.22V165.561H303.67C302.394 165.561 301.371 165.957 300.602 166.749C299.832 167.541 299.447 168.662 299.447 170.114V181H296.973ZM314.255 181.396C312.562 181.396 311.077 180.967 309.802 180.109C308.526 179.252 307.603 178.086 307.031 176.613L309.109 175.623C309.615 176.7 310.319 177.558 311.22 178.196C312.144 178.834 313.156 179.153 314.255 179.153C315.311 179.153 316.202 178.9 316.927 178.394C317.653 177.866 318.016 177.184 318.016 176.349C318.016 175.733 317.84 175.249 317.488 174.897C317.136 174.523 316.729 174.237 316.268 174.039C315.806 173.841 315.399 173.699 315.047 173.611L312.507 172.885C310.879 172.423 309.703 171.774 308.977 170.938C308.251 170.103 307.888 169.135 307.888 168.035C307.888 167.002 308.152 166.1 308.68 165.33C309.208 164.561 309.923 163.967 310.824 163.549C311.726 163.131 312.727 162.922 313.826 162.922C315.322 162.922 316.674 163.318 317.884 164.11C319.116 164.88 319.984 165.957 320.49 167.343L318.379 168.332C317.939 167.343 317.301 166.573 316.466 166.023C315.652 165.451 314.739 165.165 313.727 165.165C312.738 165.165 311.946 165.418 311.352 165.924C310.759 166.43 310.462 167.068 310.462 167.838C310.462 168.431 310.616 168.904 310.923 169.256C311.231 169.608 311.583 169.872 311.979 170.048C312.397 170.224 312.76 170.356 313.068 170.444L316.004 171.301C317.433 171.719 318.544 172.368 319.336 173.248C320.149 174.127 320.556 175.161 320.556 176.349C320.556 177.316 320.281 178.185 319.731 178.955C319.204 179.724 318.467 180.329 317.521 180.769C316.576 181.187 315.487 181.396 314.255 181.396Z" fill="black"/>
</svg>
