<svg width="347" height="202" viewBox="0 0 347 202" fill="none" xmlns="http://www.w3.org/2000/svg">
<path d="M108.824 176.167C98.1107 176.167 88.7211 173.278 80.6556 167.499C72.5902 161.601 66.2702 153.475 61.6958 143.123C57.2418 132.65 55.0147 120.491 55.0147 106.648C55.0147 92.6835 57.2418 80.5251 61.6958 70.1725C66.2702 59.8198 72.53 51.7544 80.4751 45.9762C88.5405 40.1979 97.9301 37.3088 108.644 37.3088C119.358 37.3088 128.687 40.1979 136.632 45.9762C144.698 51.7544 150.957 59.88 155.411 70.3531C159.986 80.7057 162.273 92.8039 162.273 106.648C162.273 120.491 160.046 132.65 155.592 143.123C151.138 153.475 144.878 161.601 136.813 167.499C128.868 173.278 119.538 176.167 108.824 176.167ZM108.824 156.665C115.445 156.665 121.163 154.619 125.979 150.526C130.794 146.433 134.526 140.655 137.174 133.191C139.822 125.728 141.146 116.88 141.146 106.648C141.146 96.4153 139.822 87.5674 137.174 80.1038C134.526 72.6403 130.794 66.862 125.979 62.7691C121.163 58.6762 115.385 56.6298 108.644 56.6298C102.023 56.6298 96.305 58.6762 91.4898 62.7691C86.6746 66.862 82.9428 72.6403 80.2945 80.1038C77.6461 87.5674 76.322 96.4153 76.322 106.648C76.322 116.759 77.6461 125.607 80.2945 133.191C82.9428 140.655 86.6746 146.433 91.4898 150.526C96.4254 154.619 102.204 156.665 108.824 156.665ZM227.607 176.167C218.819 176.167 210.994 174.241 204.133 170.389C197.271 166.536 191.854 161.24 187.882 154.498C184.029 147.757 182.103 140.113 182.103 131.566C182.103 127.112 182.585 122.658 183.548 118.204C184.511 113.75 186.196 109.115 188.604 104.3C191.132 99.4849 194.502 94.3086 198.716 88.7712L236.274 39.4757H261.734L215.689 99.0636L212.078 96.7162C213.763 94.7901 215.569 93.2854 217.495 92.202C219.541 91.1186 221.648 90.3361 223.815 89.8546C226.102 89.3731 228.51 89.1323 231.038 89.1323C239.103 89.1323 246.326 90.9982 252.706 94.73C259.086 98.4617 264.082 103.518 267.693 109.898C271.425 116.278 273.291 123.621 273.291 131.927C273.291 140.354 271.305 147.938 267.332 154.679C263.36 161.3 257.943 166.536 251.081 170.389C244.34 174.241 236.515 176.167 227.607 176.167ZM227.607 157.207C232.302 157.207 236.455 156.124 240.066 153.957C243.678 151.79 246.567 148.841 248.733 145.109C250.9 141.257 251.984 136.923 251.984 132.108C251.984 127.172 250.9 122.839 248.733 119.107C246.687 115.375 243.798 112.486 240.066 110.44C236.455 108.273 232.302 107.189 227.607 107.189C223.032 107.189 218.879 108.273 215.148 110.44C211.536 112.486 208.647 115.375 206.48 119.107C204.313 122.839 203.23 127.172 203.23 132.108C203.23 136.923 204.313 141.257 206.48 145.109C208.647 148.841 211.536 151.79 215.148 153.957C218.879 156.124 223.032 157.207 227.607 157.207Z" fill="#0A0A0A"/>
<rect x="15.0869" y="127.62" width="315.748" height="73.7281" rx="36.864" fill="white"/>
<rect x="15.8883" y="128.421" width="314.146" height="72.1253" rx="36.0626" stroke="white" stroke-opacity="0.2" stroke-width="1.60278"/>
<rect x="0.801392" y="136.506" width="345.397" height="64.1332" rx="32.0666" fill="white"/>
<rect x="0.801392" y="136.506" width="345.397" height="64.1332" rx="32.0666" stroke="black" stroke-width="1.60278"/>
<rect x="0.801392" y="136.506" width="345.397" height="64.1332" rx="32.0666" stroke="white" stroke-opacity="0.2" stroke-width="1.60278"/>
<path d="M53.136 178.288C52 178.288 50.968 178.072 50.04 177.64C49.112 177.208 48.328 176.632 47.688 175.912C47.048 175.176 46.592 174.368 46.32 173.488L48.048 172.84C48.464 174.056 49.112 174.984 49.992 175.624C50.872 176.248 51.92 176.56 53.136 176.56C53.904 176.56 54.576 176.44 55.152 176.2C55.744 175.944 56.2 175.592 56.52 175.144C56.84 174.696 57 174.176 57 173.584C57 172.704 56.76 172.024 56.28 171.544C55.8 171.064 55.112 170.696 54.216 170.44L51 169.48C49.736 169.112 48.76 168.496 48.072 167.632C47.4 166.768 47.064 165.784 47.064 164.68C47.064 163.736 47.296 162.904 47.76 162.184C48.224 161.448 48.856 160.872 49.656 160.456C50.472 160.04 51.392 159.832 52.416 159.832C53.488 159.832 54.448 160.032 55.296 160.432C56.16 160.816 56.888 161.328 57.48 161.968C58.072 162.608 58.496 163.32 58.752 164.104L57.072 164.776C56.688 163.72 56.088 162.92 55.272 162.376C54.472 161.832 53.528 161.56 52.44 161.56C51.752 161.56 51.144 161.68 50.616 161.92C50.104 162.16 49.704 162.504 49.416 162.952C49.128 163.4 48.984 163.928 48.984 164.536C48.984 165.272 49.216 165.936 49.68 166.528C50.144 167.104 50.856 167.536 51.816 167.824L54.648 168.664C56.056 169.08 57.12 169.68 57.84 170.464C58.56 171.248 58.92 172.232 58.92 173.416C58.92 174.376 58.672 175.224 58.176 175.96C57.696 176.68 57.016 177.248 56.136 177.664C55.272 178.08 54.272 178.288 53.136 178.288ZM68.2436 178.288C66.9796 178.288 65.8676 177.992 64.9076 177.4C63.9476 176.808 63.1956 176.008 62.6516 175C62.1076 173.976 61.8356 172.824 61.8356 171.544C61.8356 170.264 62.1076 169.12 62.6516 168.112C63.1956 167.104 63.9476 166.312 64.9076 165.736C65.8676 165.144 66.9796 164.848 68.2436 164.848C69.0436 164.848 69.7956 164.992 70.4996 165.28C71.2036 165.568 71.8276 165.96 72.3716 166.456C72.9156 166.936 73.3236 167.496 73.5956 168.136L71.9636 168.976C71.6436 168.288 71.1556 167.728 70.4996 167.296C69.8436 166.864 69.0916 166.648 68.2436 166.648C67.3956 166.648 66.6276 166.864 65.9396 167.296C65.2676 167.712 64.7316 168.296 64.3316 169.048C63.9476 169.784 63.7556 170.624 63.7556 171.568C63.7556 172.496 63.9476 173.336 64.3316 174.088C64.7316 174.824 65.2676 175.408 65.9396 175.84C66.6276 176.272 67.3956 176.488 68.2436 176.488C69.0916 176.488 69.8356 176.272 70.4756 175.84C71.1316 175.408 71.6276 174.832 71.9636 174.112L73.5956 175C73.3236 175.624 72.9156 176.184 72.3716 176.68C71.8276 177.176 71.2036 177.568 70.4996 177.856C69.7956 178.144 69.0436 178.288 68.2436 178.288ZM80.2399 178.288C79.4239 178.288 78.6959 178.136 78.0559 177.832C77.4159 177.512 76.9119 177.08 76.5439 176.536C76.1759 175.992 75.9919 175.368 75.9919 174.664C75.9919 173.992 76.1359 173.384 76.4239 172.84C76.7119 172.28 77.1599 171.808 77.7679 171.424C78.3759 171.04 79.1519 170.768 80.0959 170.608L85.1359 169.768V171.4L80.5279 172.168C79.5999 172.328 78.9279 172.624 78.5119 173.056C78.1119 173.488 77.9119 174 77.9119 174.592C77.9119 175.168 78.1359 175.656 78.5839 176.056C79.0479 176.456 79.6399 176.656 80.3599 176.656C81.2399 176.656 82.0079 176.472 82.6639 176.104C83.3199 175.72 83.8319 175.208 84.1999 174.568C84.5679 173.928 84.7519 173.216 84.7519 172.432V169.168C84.7519 168.4 84.4719 167.776 83.9119 167.296C83.3519 166.816 82.6239 166.576 81.7279 166.576C80.9439 166.576 80.2559 166.776 79.6639 167.176C79.0719 167.56 78.6319 168.064 78.3439 168.688L76.7119 167.8C76.9519 167.256 77.3279 166.76 77.8399 166.312C78.3679 165.864 78.9679 165.512 79.6399 165.256C80.3119 164.984 81.0079 164.848 81.7279 164.848C82.6719 164.848 83.5039 165.032 84.2239 165.4C84.9599 165.768 85.5279 166.28 85.9279 166.936C86.3439 167.576 86.5519 168.32 86.5519 169.168V178H84.7519V175.432L85.0159 175.696C84.7919 176.176 84.4399 176.616 83.9599 177.016C83.4959 177.4 82.9439 177.712 82.3039 177.952C81.6799 178.176 80.9919 178.288 80.2399 178.288ZM90.2543 178V159.832H92.0543V178H90.2543ZM101.595 178.288C100.395 178.288 99.3066 178 98.3306 177.424C97.3706 176.832 96.6106 176.024 96.0506 175C95.4906 173.976 95.2106 172.816 95.2106 171.52C95.2106 170.224 95.4826 169.08 96.0266 168.088C96.5706 167.08 97.3066 166.288 98.2346 165.712C99.1786 165.136 100.235 164.848 101.403 164.848C102.331 164.848 103.155 165.024 103.875 165.376C104.611 165.712 105.235 166.176 105.747 166.768C106.259 167.344 106.651 168 106.923 168.736C107.195 169.456 107.331 170.2 107.331 170.968C107.331 171.128 107.323 171.312 107.307 171.52C107.291 171.712 107.267 171.912 107.235 172.12H96.3626V170.44H106.203L105.339 171.16C105.483 170.28 105.379 169.496 105.027 168.808C104.691 168.104 104.203 167.552 103.563 167.152C102.923 166.736 102.203 166.528 101.403 166.528C100.603 166.528 99.8586 166.736 99.1706 167.152C98.4986 167.568 97.9706 168.152 97.5866 168.904C97.2026 169.64 97.0506 170.52 97.1306 171.544C97.0506 172.568 97.2106 173.464 97.6106 174.232C98.0266 174.984 98.5866 175.568 99.2906 175.984C100.011 176.4 100.779 176.608 101.595 176.608C102.539 176.608 103.331 176.384 103.971 175.936C104.611 175.488 105.131 174.928 105.531 174.256L107.067 175.072C106.811 175.648 106.419 176.184 105.891 176.68C105.363 177.16 104.731 177.552 103.995 177.856C103.275 178.144 102.475 178.288 101.595 178.288ZM117.056 178.288C115.792 178.288 114.68 178.024 113.72 177.496C112.76 176.968 112.016 176.248 111.488 175.336C110.96 174.408 110.696 173.352 110.696 172.168V160.12H112.616V172.168C112.616 173.032 112.8 173.792 113.168 174.448C113.552 175.088 114.072 175.592 114.728 175.96C115.4 176.312 116.176 176.488 117.056 176.488C117.936 176.488 118.704 176.312 119.36 175.96C120.032 175.592 120.552 175.088 120.92 174.448C121.304 173.792 121.496 173.032 121.496 172.168V160.12H123.416V172.168C123.416 173.352 123.152 174.408 122.624 175.336C122.096 176.248 121.352 176.968 120.392 177.496C119.448 178.024 118.336 178.288 117.056 178.288ZM127.309 182.8V165.136H129.109V168.016L128.821 167.512C129.333 166.696 130.013 166.048 130.861 165.568C131.725 165.088 132.709 164.848 133.813 164.848C135.029 164.848 136.109 165.144 137.053 165.736C138.013 166.312 138.765 167.104 139.309 168.112C139.869 169.12 140.149 170.272 140.149 171.568C140.149 172.848 139.869 174 139.309 175.024C138.765 176.032 138.013 176.832 137.053 177.424C136.109 178 135.029 178.288 133.813 178.288C132.709 178.288 131.709 178.04 130.813 177.544C129.933 177.032 129.269 176.312 128.821 175.384L129.109 175.12V182.8H127.309ZM133.717 176.488C134.581 176.488 135.349 176.272 136.021 175.84C136.709 175.408 137.245 174.824 137.629 174.088C138.029 173.336 138.229 172.496 138.229 171.568C138.229 170.624 138.029 169.784 137.629 169.048C137.245 168.312 136.709 167.728 136.021 167.296C135.349 166.864 134.581 166.648 133.717 166.648C132.853 166.648 132.069 166.864 131.365 167.296C130.677 167.728 130.125 168.32 129.709 169.072C129.309 169.808 129.109 170.64 129.109 171.568C129.109 172.496 129.309 173.336 129.709 174.088C130.125 174.824 130.677 175.408 131.365 175.84C132.069 176.272 132.853 176.488 133.717 176.488ZM147.659 178V160.12H159.179V161.92H149.579V168.136H158.699V169.936H149.579V176.2H159.179V178H147.659ZM165.522 178L160.506 165.136H162.522L166.746 176.416H166.098L170.346 165.136H172.386L167.322 178H165.522ZM180.11 178.288C178.91 178.288 177.822 178 176.846 177.424C175.886 176.832 175.126 176.024 174.566 175C174.006 173.976 173.726 172.816 173.726 171.52C173.726 170.224 173.998 169.08 174.542 168.088C175.086 167.08 175.822 166.288 176.75 165.712C177.694 165.136 178.75 164.848 179.918 164.848C180.846 164.848 181.67 165.024 182.39 165.376C183.126 165.712 183.75 166.176 184.262 166.768C184.774 167.344 185.166 168 185.438 168.736C185.71 169.456 185.846 170.2 185.846 170.968C185.846 171.128 185.838 171.312 185.822 171.52C185.806 171.712 185.782 171.912 185.75 172.12H174.878V170.44H184.718L183.854 171.16C183.998 170.28 183.894 169.496 183.542 168.808C183.206 168.104 182.718 167.552 182.078 167.152C181.438 166.736 180.718 166.528 179.918 166.528C179.118 166.528 178.374 166.736 177.686 167.152C177.014 167.568 176.486 168.152 176.102 168.904C175.718 169.64 175.566 170.52 175.646 171.544C175.566 172.568 175.726 173.464 176.126 174.232C176.542 174.984 177.102 175.568 177.806 175.984C178.526 176.4 179.294 176.608 180.11 176.608C181.054 176.608 181.846 176.384 182.486 175.936C183.126 175.488 183.646 174.928 184.046 174.256L185.582 175.072C185.326 175.648 184.934 176.184 184.406 176.68C183.878 177.16 183.246 177.552 182.51 177.856C181.79 178.144 180.99 178.288 180.11 178.288ZM189.02 178V165.136H190.82V167.632L190.412 167.536C190.732 166.704 191.252 166.048 191.972 165.568C192.708 165.088 193.556 164.848 194.516 164.848C195.428 164.848 196.244 165.056 196.964 165.472C197.7 165.888 198.276 166.464 198.692 167.2C199.124 167.92 199.34 168.736 199.34 169.648V178H197.54V170.344C197.54 169.56 197.396 168.896 197.108 168.352C196.836 167.808 196.444 167.392 195.932 167.104C195.436 166.8 194.86 166.648 194.204 166.648C193.548 166.648 192.964 166.8 192.452 167.104C191.94 167.392 191.54 167.816 191.252 168.376C190.964 168.92 190.82 169.576 190.82 170.344V178H189.02ZM207.698 178.144C206.546 178.144 205.658 177.808 205.034 177.136C204.41 176.464 204.098 175.504 204.098 174.256V166.936H201.722V165.136H202.322C202.866 165.136 203.298 164.96 203.618 164.608C203.938 164.24 204.098 163.784 204.098 163.24V162.16H205.898V165.136H208.73V166.936H205.898V174.256C205.898 174.688 205.962 175.072 206.09 175.408C206.218 175.728 206.434 175.984 206.738 176.176C207.058 176.368 207.482 176.464 208.01 176.464C208.138 176.464 208.29 176.456 208.466 176.44C208.642 176.424 208.794 176.408 208.922 176.392V178C208.73 178.048 208.514 178.08 208.274 178.096C208.034 178.128 207.842 178.144 207.698 178.144ZM216.425 178V160.12H222.569C223.737 160.12 224.761 160.352 225.641 160.816C226.521 161.264 227.201 161.904 227.681 162.736C228.177 163.552 228.424 164.504 228.424 165.592C228.424 166.856 228.089 167.936 227.417 168.832C226.76 169.728 225.865 170.36 224.729 170.728L228.905 178H226.648L222.281 170.296L223.577 171.04H218.345V178H216.425ZM218.345 169.24H222.665C223.433 169.24 224.105 169.096 224.681 168.808C225.257 168.504 225.705 168.08 226.025 167.536C226.345 166.976 226.505 166.32 226.505 165.568C226.505 164.816 226.345 164.168 226.025 163.624C225.705 163.08 225.257 162.664 224.681 162.376C224.105 162.072 223.433 161.92 222.665 161.92H218.345V169.24ZM236.833 178.288C235.617 178.288 234.513 178 233.521 177.424C232.529 176.832 231.737 176.032 231.145 175.024C230.569 174 230.281 172.84 230.281 171.544C230.281 170.264 230.569 169.12 231.145 168.112C231.721 167.104 232.497 166.312 233.473 165.736C234.465 165.144 235.585 164.848 236.833 164.848C238.081 164.848 239.193 165.136 240.169 165.712C241.161 166.288 241.937 167.08 242.497 168.088C243.073 169.096 243.361 170.248 243.361 171.544C243.361 172.856 243.065 174.024 242.473 175.048C241.881 176.056 241.089 176.848 240.097 177.424C239.121 178 238.033 178.288 236.833 178.288ZM236.833 176.488C237.697 176.488 238.473 176.272 239.161 175.84C239.865 175.408 240.417 174.816 240.817 174.064C241.233 173.312 241.441 172.472 241.441 171.544C241.441 170.616 241.233 169.784 240.817 169.048C240.417 168.312 239.865 167.728 239.161 167.296C238.473 166.864 237.697 166.648 236.833 166.648C235.969 166.648 235.185 166.864 234.481 167.296C233.793 167.728 233.241 168.312 232.825 169.048C232.409 169.784 232.201 170.616 232.201 171.544C232.201 172.472 232.409 173.312 232.825 174.064C233.241 174.816 233.793 175.408 234.481 175.84C235.185 176.272 235.969 176.488 236.833 176.488ZM250.256 178.288C249.44 178.288 248.712 178.136 248.072 177.832C247.432 177.512 246.928 177.08 246.56 176.536C246.192 175.992 246.008 175.368 246.008 174.664C246.008 173.992 246.152 173.384 246.44 172.84C246.728 172.28 247.176 171.808 247.784 171.424C248.392 171.04 249.168 170.768 250.112 170.608L255.152 169.768V171.4L250.544 172.168C249.616 172.328 248.944 172.624 248.528 173.056C248.128 173.488 247.928 174 247.928 174.592C247.928 175.168 248.152 175.656 248.6 176.056C249.064 176.456 249.656 176.656 250.376 176.656C251.256 176.656 252.024 176.472 252.68 176.104C253.336 175.72 253.848 175.208 254.216 174.568C254.584 173.928 254.768 173.216 254.768 172.432V169.168C254.768 168.4 254.488 167.776 253.928 167.296C253.368 166.816 252.64 166.576 251.743 166.576C250.96 166.576 250.272 166.776 249.68 167.176C249.088 167.56 248.648 168.064 248.36 168.688L246.728 167.8C246.968 167.256 247.344 166.76 247.855 166.312C248.384 165.864 248.984 165.512 249.656 165.256C250.328 164.984 251.024 164.848 251.743 164.848C252.688 164.848 253.52 165.032 254.24 165.4C254.976 165.768 255.544 166.28 255.944 166.936C256.36 167.576 256.568 168.32 256.568 169.168V178H254.768V175.432L255.032 175.696C254.808 176.176 254.456 176.616 253.976 177.016C253.512 177.4 252.96 177.712 252.32 177.952C251.696 178.176 251.008 178.288 250.256 178.288ZM264.734 178.288C263.502 178.288 262.422 177.976 261.494 177.352C260.566 176.728 259.894 175.88 259.478 174.808L260.99 174.088C261.358 174.872 261.87 175.496 262.526 175.96C263.198 176.424 263.934 176.656 264.734 176.656C265.502 176.656 266.15 176.472 266.678 176.104C267.206 175.72 267.47 175.224 267.47 174.616C267.47 174.168 267.342 173.816 267.086 173.56C266.83 173.288 266.534 173.08 266.198 172.936C265.862 172.792 265.566 172.688 265.31 172.624L263.462 172.096C262.278 171.76 261.422 171.288 260.894 170.68C260.366 170.072 260.102 169.368 260.102 168.568C260.102 167.816 260.294 167.16 260.678 166.6C261.062 166.04 261.582 165.608 262.238 165.304C262.894 165 263.622 164.848 264.422 164.848C265.51 164.848 266.494 165.136 267.374 165.712C268.27 166.272 268.902 167.056 269.27 168.064L267.734 168.784C267.414 168.064 266.95 167.504 266.342 167.104C265.75 166.688 265.086 166.48 264.35 166.48C263.63 166.48 263.054 166.664 262.622 167.032C262.19 167.4 261.974 167.864 261.974 168.424C261.974 168.856 262.086 169.2 262.31 169.456C262.534 169.712 262.79 169.904 263.078 170.032C263.382 170.16 263.646 170.256 263.87 170.32L266.006 170.944C267.046 171.248 267.854 171.72 268.43 172.36C269.022 173 269.318 173.752 269.318 174.616C269.318 175.32 269.118 175.952 268.718 176.512C268.334 177.072 267.798 177.512 267.11 177.832C266.422 178.136 265.63 178.288 264.734 178.288ZM277.401 178.144C276.249 178.144 275.361 177.808 274.737 177.136C274.113 176.464 273.801 175.504 273.801 174.256V166.936H271.425V165.136H272.025C272.569 165.136 273.001 164.96 273.321 164.608C273.641 164.24 273.801 163.784 273.801 163.24V162.16H275.601V165.136H278.433V166.936H275.601V174.256C275.601 174.688 275.665 175.072 275.793 175.408C275.921 175.728 276.137 175.984 276.441 176.176C276.761 176.368 277.185 176.464 277.713 176.464C277.841 176.464 277.993 176.456 278.169 176.44C278.345 176.424 278.497 176.408 278.625 176.392V178C278.433 178.048 278.217 178.08 277.977 178.096C277.737 178.128 277.545 178.144 277.401 178.144ZM287.173 178.288C285.973 178.288 284.885 178 283.909 177.424C282.949 176.832 282.189 176.024 281.629 175C281.069 173.976 280.789 172.816 280.789 171.52C280.789 170.224 281.061 169.08 281.605 168.088C282.149 167.08 282.885 166.288 283.813 165.712C284.757 165.136 285.813 164.848 286.981 164.848C287.909 164.848 288.733 165.024 289.453 165.376C290.189 165.712 290.813 166.176 291.325 166.768C291.837 167.344 292.229 168 292.501 168.736C292.773 169.456 292.909 170.2 292.909 170.968C292.909 171.128 292.901 171.312 292.885 171.52C292.869 171.712 292.845 171.912 292.813 172.12H281.941V170.44H291.781L290.917 171.16C291.061 170.28 290.957 169.496 290.605 168.808C290.269 168.104 289.781 167.552 289.141 167.152C288.501 166.736 287.781 166.528 286.981 166.528C286.181 166.528 285.437 166.736 284.749 167.152C284.077 167.568 283.549 168.152 283.165 168.904C282.781 169.64 282.629 170.52 282.709 171.544C282.629 172.568 282.789 173.464 283.189 174.232C283.605 174.984 284.165 175.568 284.869 175.984C285.589 176.4 286.357 176.608 287.173 176.608C288.117 176.608 288.909 176.384 289.549 175.936C290.189 175.488 290.709 174.928 291.109 174.256L292.645 175.072C292.389 175.648 291.997 176.184 291.469 176.68C290.941 177.16 290.309 177.552 289.573 177.856C288.853 178.144 288.053 178.288 287.173 178.288ZM296.082 178V165.136H297.882V167.248L297.642 166.936C297.946 166.328 298.402 165.848 299.01 165.496C299.634 165.144 300.386 164.968 301.266 164.968H302.082V166.768H300.954C300.026 166.768 299.282 167.056 298.722 167.632C298.162 168.208 297.882 169.024 297.882 170.08V178H296.082Z" fill="black"/>
</svg>
