<svg width="347" height="201" viewBox="0 0 347 201" fill="none" xmlns="http://www.w3.org/2000/svg">
<path d="M126.392 176.167C115.678 176.167 106.289 173.278 98.2233 167.499C90.1578 161.601 83.8379 153.475 79.2634 143.123C74.8094 132.65 72.5824 120.491 72.5824 106.648C72.5824 92.6835 74.8094 80.5251 79.2634 70.1725C83.8379 59.8198 90.0976 51.7544 98.0427 45.9762C106.108 40.1979 115.498 37.3088 126.212 37.3088C136.925 37.3088 146.255 40.1979 154.2 45.9762C162.265 51.7544 168.525 59.88 172.979 70.3531C177.553 80.7057 179.841 92.8039 179.841 106.648C179.841 120.491 177.614 132.65 173.16 143.123C168.706 153.475 162.446 161.601 154.38 167.499C146.435 173.278 137.106 176.167 126.392 176.167ZM126.392 156.665C133.013 156.665 138.731 154.619 143.546 150.526C148.361 146.433 152.093 140.655 154.742 133.191C157.39 125.728 158.714 116.88 158.714 106.648C158.714 96.4153 157.39 87.5674 154.742 80.1038C152.093 72.6403 148.361 66.862 143.546 62.7691C138.731 58.6762 132.953 56.6298 126.212 56.6298C119.591 56.6298 113.873 58.6762 109.057 62.7691C104.242 66.862 100.51 72.6403 97.8621 80.1038C95.2138 87.5674 93.8896 96.4153 93.8896 106.648C93.8896 116.759 95.2138 125.607 97.8621 133.191C100.51 140.655 104.242 146.433 109.057 150.526C113.993 154.619 119.771 156.665 126.392 156.665ZM204.366 174L261.787 57.5326H197.143V39.4757H283.997V57.5326L227.479 174H204.366Z" fill="#0A0A0A"/>
<rect x="15.0869" y="126.62" width="315.748" height="73.7281" rx="36.864" fill="white"/>
<rect x="15.8883" y="127.422" width="314.146" height="72.1253" rx="36.0626" stroke="white" stroke-opacity="0.2" stroke-width="1.60278"/>
<rect x="0.801392" y="135.506" width="345.397" height="64.1332" rx="32.0666" fill="white"/>
<rect x="0.801392" y="135.506" width="345.397" height="64.1332" rx="32.0666" stroke="black" stroke-width="1.60278"/>
<rect x="0.801392" y="135.506" width="345.397" height="64.1332" rx="32.0666" stroke="white" stroke-opacity="0.2" stroke-width="1.60278"/>
<path d="M101.136 172.288C100 172.288 98.968 172.072 98.04 171.64C97.112 171.208 96.328 170.632 95.688 169.912C95.048 169.176 94.592 168.368 94.32 167.488L96.048 166.84C96.464 168.056 97.112 168.984 97.992 169.624C98.872 170.248 99.92 170.56 101.136 170.56C101.904 170.56 102.576 170.44 103.152 170.2C103.744 169.944 104.2 169.592 104.52 169.144C104.84 168.696 105 168.176 105 167.584C105 166.704 104.76 166.024 104.28 165.544C103.8 165.064 103.112 164.696 102.216 164.44L99 163.48C97.736 163.112 96.76 162.496 96.072 161.632C95.4 160.768 95.064 159.784 95.064 158.68C95.064 157.736 95.296 156.904 95.76 156.184C96.224 155.448 96.856 154.872 97.656 154.456C98.472 154.04 99.392 153.832 100.416 153.832C101.488 153.832 102.448 154.032 103.296 154.432C104.16 154.816 104.888 155.328 105.48 155.968C106.072 156.608 106.496 157.32 106.752 158.104L105.072 158.776C104.688 157.72 104.088 156.92 103.272 156.376C102.472 155.832 101.528 155.56 100.44 155.56C99.752 155.56 99.144 155.68 98.616 155.92C98.104 156.16 97.704 156.504 97.416 156.952C97.128 157.4 96.984 157.928 96.984 158.536C96.984 159.272 97.216 159.936 97.68 160.528C98.144 161.104 98.856 161.536 99.816 161.824L102.648 162.664C104.056 163.08 105.12 163.68 105.84 164.464C106.56 165.248 106.92 166.232 106.92 167.416C106.92 168.376 106.672 169.224 106.176 169.96C105.696 170.68 105.016 171.248 104.136 171.664C103.272 172.08 102.272 172.288 101.136 172.288ZM116.244 172.288C114.98 172.288 113.868 171.992 112.908 171.4C111.948 170.808 111.196 170.008 110.652 169C110.108 167.976 109.836 166.824 109.836 165.544C109.836 164.264 110.108 163.12 110.652 162.112C111.196 161.104 111.948 160.312 112.908 159.736C113.868 159.144 114.98 158.848 116.244 158.848C117.044 158.848 117.796 158.992 118.5 159.28C119.204 159.568 119.828 159.96 120.372 160.456C120.916 160.936 121.324 161.496 121.596 162.136L119.964 162.976C119.644 162.288 119.156 161.728 118.5 161.296C117.844 160.864 117.092 160.648 116.244 160.648C115.396 160.648 114.628 160.864 113.94 161.296C113.268 161.712 112.732 162.296 112.332 163.048C111.948 163.784 111.756 164.624 111.756 165.568C111.756 166.496 111.948 167.336 112.332 168.088C112.732 168.824 113.268 169.408 113.94 169.84C114.628 170.272 115.396 170.488 116.244 170.488C117.092 170.488 117.836 170.272 118.476 169.84C119.132 169.408 119.628 168.832 119.964 168.112L121.596 169C121.324 169.624 120.916 170.184 120.372 170.68C119.828 171.176 119.204 171.568 118.5 171.856C117.796 172.144 117.044 172.288 116.244 172.288ZM128.24 172.288C127.424 172.288 126.696 172.136 126.056 171.832C125.416 171.512 124.912 171.08 124.544 170.536C124.176 169.992 123.992 169.368 123.992 168.664C123.992 167.992 124.136 167.384 124.424 166.84C124.712 166.28 125.16 165.808 125.768 165.424C126.376 165.04 127.152 164.768 128.096 164.608L133.136 163.768V165.4L128.528 166.168C127.6 166.328 126.928 166.624 126.512 167.056C126.112 167.488 125.912 168 125.912 168.592C125.912 169.168 126.136 169.656 126.584 170.056C127.048 170.456 127.64 170.656 128.36 170.656C129.24 170.656 130.008 170.472 130.664 170.104C131.32 169.72 131.832 169.208 132.2 168.568C132.568 167.928 132.752 167.216 132.752 166.432V163.168C132.752 162.4 132.472 161.776 131.912 161.296C131.352 160.816 130.624 160.576 129.728 160.576C128.944 160.576 128.256 160.776 127.664 161.176C127.072 161.56 126.632 162.064 126.344 162.688L124.712 161.8C124.952 161.256 125.328 160.76 125.84 160.312C126.368 159.864 126.968 159.512 127.64 159.256C128.312 158.984 129.008 158.848 129.728 158.848C130.672 158.848 131.504 159.032 132.224 159.4C132.96 159.768 133.528 160.28 133.928 160.936C134.344 161.576 134.552 162.32 134.552 163.168V172H132.752V169.432L133.016 169.696C132.792 170.176 132.44 170.616 131.96 171.016C131.496 171.4 130.944 171.712 130.304 171.952C129.68 172.176 128.992 172.288 128.24 172.288ZM138.254 172V153.832H140.054V172H138.254ZM149.595 172.288C148.395 172.288 147.307 172 146.331 171.424C145.371 170.832 144.611 170.024 144.051 169C143.491 167.976 143.211 166.816 143.211 165.52C143.211 164.224 143.483 163.08 144.027 162.088C144.571 161.08 145.307 160.288 146.235 159.712C147.179 159.136 148.235 158.848 149.403 158.848C150.331 158.848 151.155 159.024 151.875 159.376C152.611 159.712 153.235 160.176 153.747 160.768C154.259 161.344 154.651 162 154.923 162.736C155.195 163.456 155.331 164.2 155.331 164.968C155.331 165.128 155.323 165.312 155.307 165.52C155.291 165.712 155.267 165.912 155.235 166.12H144.363V164.44H154.203L153.339 165.16C153.483 164.28 153.379 163.496 153.027 162.808C152.691 162.104 152.203 161.552 151.563 161.152C150.923 160.736 150.203 160.528 149.403 160.528C148.603 160.528 147.859 160.736 147.171 161.152C146.499 161.568 145.971 162.152 145.587 162.904C145.203 163.64 145.051 164.52 145.131 165.544C145.051 166.568 145.211 167.464 145.611 168.232C146.027 168.984 146.587 169.568 147.291 169.984C148.011 170.4 148.779 170.608 149.595 170.608C150.539 170.608 151.331 170.384 151.971 169.936C152.611 169.488 153.131 168.928 153.531 168.256L155.067 169.072C154.811 169.648 154.419 170.184 153.891 170.68C153.363 171.16 152.731 171.552 151.995 171.856C151.275 172.144 150.475 172.288 149.595 172.288ZM165.056 172.288C163.792 172.288 162.68 172.024 161.72 171.496C160.76 170.968 160.016 170.248 159.488 169.336C158.96 168.408 158.696 167.352 158.696 166.168V154.12H160.616V166.168C160.616 167.032 160.8 167.792 161.168 168.448C161.552 169.088 162.072 169.592 162.728 169.96C163.4 170.312 164.176 170.488 165.056 170.488C165.936 170.488 166.704 170.312 167.36 169.96C168.032 169.592 168.552 169.088 168.92 168.448C169.304 167.792 169.496 167.032 169.496 166.168V154.12H171.416V166.168C171.416 167.352 171.152 168.408 170.624 169.336C170.096 170.248 169.352 170.968 168.392 171.496C167.448 172.024 166.336 172.288 165.056 172.288ZM175.309 176.8V159.136H177.109V162.016L176.821 161.512C177.333 160.696 178.013 160.048 178.861 159.568C179.725 159.088 180.709 158.848 181.813 158.848C183.029 158.848 184.109 159.144 185.053 159.736C186.013 160.312 186.765 161.104 187.309 162.112C187.869 163.12 188.149 164.272 188.149 165.568C188.149 166.848 187.869 168 187.309 169.024C186.765 170.032 186.013 170.832 185.053 171.424C184.109 172 183.029 172.288 181.813 172.288C180.709 172.288 179.709 172.04 178.813 171.544C177.933 171.032 177.269 170.312 176.821 169.384L177.109 169.12V176.8H175.309ZM181.717 170.488C182.581 170.488 183.349 170.272 184.021 169.84C184.709 169.408 185.245 168.824 185.629 168.088C186.029 167.336 186.229 166.496 186.229 165.568C186.229 164.624 186.029 163.784 185.629 163.048C185.245 162.312 184.709 161.728 184.021 161.296C183.349 160.864 182.581 160.648 181.717 160.648C180.853 160.648 180.069 160.864 179.365 161.296C178.677 161.728 178.125 162.32 177.709 163.072C177.309 163.808 177.109 164.64 177.109 165.568C177.109 166.496 177.309 167.336 177.709 168.088C178.125 168.824 178.677 169.408 179.365 169.84C180.069 170.272 180.853 170.488 181.717 170.488ZM195.659 172V154.12H206.699V155.92H197.579V162.136H205.979V163.936H197.579V172H195.659ZM206.561 172L213.089 154.12H215.153L221.681 172H219.665L218.129 167.632H210.137L208.577 172H206.561ZM210.761 165.832H217.457L213.833 155.56H214.409L210.761 165.832ZM231.763 172.288C230.515 172.288 229.347 172.064 228.259 171.616C227.187 171.152 226.243 170.512 225.427 169.696C224.611 168.864 223.971 167.888 223.507 166.768C223.043 165.632 222.811 164.392 222.811 163.048C222.811 161.704 223.043 160.472 223.507 159.352C223.971 158.216 224.611 157.24 225.427 156.424C226.243 155.592 227.187 154.952 228.259 154.504C229.347 154.056 230.515 153.832 231.763 153.832C233.011 153.832 234.171 154.064 235.243 154.528C236.331 154.976 237.283 155.616 238.099 156.448C238.915 157.264 239.555 158.232 240.019 159.352C240.483 160.472 240.715 161.704 240.715 163.048C240.715 164.392 240.483 165.632 240.019 166.768C239.555 167.888 238.915 168.864 238.099 169.696C237.283 170.512 236.331 171.152 235.243 171.616C234.171 172.064 233.011 172.288 231.763 172.288ZM231.763 170.488C232.803 170.488 233.747 170.296 234.595 169.912C235.459 169.528 236.203 168.992 236.827 168.304C237.451 167.616 237.931 166.824 238.267 165.928C238.619 165.032 238.795 164.072 238.795 163.048C238.795 162.04 238.619 161.088 238.267 160.192C237.931 159.296 237.451 158.504 236.827 157.816C236.203 157.128 235.459 156.592 234.595 156.208C233.747 155.824 232.803 155.632 231.763 155.632C230.723 155.632 229.771 155.824 228.907 156.208C228.059 156.592 227.323 157.128 226.699 157.816C226.075 158.504 225.587 159.296 225.235 160.192C224.899 161.088 224.731 162.04 224.731 163.048C224.731 164.072 224.899 165.032 225.235 165.928C225.587 166.824 226.075 167.616 226.699 168.304C227.323 168.992 228.067 169.528 228.931 169.912C229.795 170.296 230.739 170.488 231.763 170.488ZM236.923 174.16L230.563 164.848H232.747L239.107 174.16H236.923ZM248.609 172.288C247.377 172.288 246.297 171.976 245.369 171.352C244.441 170.728 243.769 169.88 243.353 168.808L244.865 168.088C245.233 168.872 245.745 169.496 246.401 169.96C247.073 170.424 247.809 170.656 248.609 170.656C249.377 170.656 250.025 170.472 250.553 170.104C251.081 169.72 251.345 169.224 251.345 168.616C251.345 168.168 251.217 167.816 250.961 167.56C250.705 167.288 250.409 167.08 250.073 166.936C249.737 166.792 249.441 166.688 249.185 166.624L247.337 166.096C246.153 165.76 245.297 165.288 244.769 164.68C244.241 164.072 243.977 163.368 243.977 162.568C243.977 161.816 244.169 161.16 244.553 160.6C244.937 160.04 245.457 159.608 246.113 159.304C246.769 159 247.497 158.848 248.297 158.848C249.385 158.848 250.369 159.136 251.249 159.712C252.145 160.272 252.777 161.056 253.145 162.064L251.609 162.784C251.289 162.064 250.825 161.504 250.217 161.104C249.625 160.688 248.961 160.48 248.225 160.48C247.505 160.48 246.929 160.664 246.497 161.032C246.065 161.4 245.849 161.864 245.849 162.424C245.849 162.856 245.961 163.2 246.185 163.456C246.409 163.712 246.665 163.904 246.953 164.032C247.257 164.16 247.521 164.256 247.745 164.32L249.881 164.944C250.921 165.248 251.729 165.72 252.305 166.36C252.897 167 253.193 167.752 253.193 168.616C253.193 169.32 252.993 169.952 252.593 170.512C252.209 171.072 251.673 171.512 250.985 171.832C250.297 172.136 249.505 172.288 248.609 172.288Z" fill="black"/>
</svg>
