<svg width="162" height="52" viewBox="0 0 162 52" fill="none" xmlns="http://www.w3.org/2000/svg">
<path d="M1.15315 50.5557V43.7441L14.5118 29.7903C17.157 27.0127 19.1851 24.8083 20.5959 23.1771C22.0508 21.5017 23.0648 20.0689 23.638 18.8785C24.2111 17.6881 24.4977 16.4757 24.4977 15.2413C24.4977 13.1691 23.8364 11.5379 22.5137 10.3475C21.2352 9.15714 19.5819 8.56195 17.5538 8.56195C15.4376 8.56195 13.608 9.17918 12.0649 10.4136C10.5218 11.604 9.39758 13.3675 8.69218 15.7042L0.822489 13.2573C1.35154 10.6561 2.4317 8.40765 4.06295 6.51187C5.6942 4.572 7.67815 3.09506 10.0148 2.08104C12.3956 1.02293 14.9086 0.493874 17.5538 0.493874C20.7282 0.493874 23.5057 1.06702 25.8864 2.2133C28.3113 3.35959 30.185 4.96879 31.5077 7.04092C32.8744 9.11306 33.5577 11.5379 33.5577 14.3154C33.5577 16.0789 33.2271 17.8204 32.5658 19.5398C31.9044 21.2593 30.9125 23.0228 29.5898 24.8304C28.2672 26.5939 26.5478 28.5779 24.4316 30.7822L12.8585 42.9505H34.2191V50.5557H1.15315ZM60.9813 51.3492C57.0574 51.3492 53.6186 50.2911 50.6647 48.1749C47.7108 46.0587 45.3962 43.0828 43.7209 39.2471C42.0896 35.4115 41.274 30.9586 41.274 25.8885C41.274 20.7743 42.0896 16.3214 43.7209 12.5299C45.3521 8.73831 47.6447 5.78442 50.5986 3.6682C53.5525 1.55198 56.9913 0.493874 60.9151 0.493874C64.9271 0.493874 68.388 1.55198 71.2978 3.6682C74.2517 5.78442 76.5663 8.76035 78.2417 12.596C79.917 16.3876 80.7547 20.8184 80.7547 25.8885C80.7547 30.9586 79.917 35.4115 78.2417 39.2471C76.6104 43.0387 74.3178 46.0146 71.364 48.1749C68.4101 50.2911 64.9492 51.3492 60.9813 51.3492ZM61.0474 43.1489C63.2959 43.1489 65.2137 42.4655 66.8009 41.0988C68.388 39.688 69.6004 37.704 70.4381 35.1469C71.3199 32.5458 71.7608 29.4596 71.7608 25.8885C71.7608 22.3174 71.3199 19.2533 70.4381 16.6962C69.6004 14.095 68.366 12.111 66.7347 10.7443C65.1476 9.37758 63.2077 8.69422 60.9151 8.69422C58.7107 8.69422 56.815 9.37758 55.2278 10.7443C53.6406 12.111 52.4062 14.095 51.5244 16.6962C50.6867 19.2533 50.2679 22.3174 50.2679 25.8885C50.2679 29.4155 50.6867 32.4796 51.5244 35.0808C52.4062 37.6379 53.6406 39.6219 55.2278 41.0327C56.859 42.4435 58.7989 43.1489 61.0474 43.1489ZM87.4345 50.5557V43.7441L100.793 29.7903C103.438 27.0127 105.466 24.8083 106.877 23.1771C108.332 21.5017 109.346 20.0689 109.919 18.8785C110.492 17.6881 110.779 16.4757 110.779 15.2413C110.779 13.1691 110.118 11.5379 108.795 10.3475C107.517 9.15714 105.863 8.56195 103.835 8.56195C101.719 8.56195 99.8893 9.17918 98.3463 10.4136C96.8032 11.604 95.6789 13.3675 94.9735 15.7042L87.1038 13.2573C87.6329 10.6561 88.7131 8.40765 90.3443 6.51187C91.9756 4.572 93.9595 3.09506 96.2962 2.08104C98.6769 1.02293 101.19 0.493874 103.835 0.493874C107.01 0.493874 109.787 1.06702 112.168 2.2133C114.593 3.35959 116.466 4.96879 117.789 7.04092C119.156 9.11306 119.839 11.5379 119.839 14.3154C119.839 16.0789 119.508 17.8204 118.847 19.5398C118.186 21.2593 117.194 23.0228 115.871 24.8304C114.549 26.5939 112.829 28.5779 110.713 30.7822L99.1398 42.9505H120.5V50.5557H87.4345ZM143.493 51.3492C140.892 51.3492 138.401 50.8643 136.02 49.8943C133.684 48.9244 131.656 47.5577 129.936 45.7942C128.261 43.9866 127.114 41.8483 126.497 39.3794L134.301 36.6018C135.05 38.8503 136.263 40.5257 137.938 41.6279C139.613 42.686 141.465 43.215 143.493 43.215C145.168 43.215 146.645 42.8623 147.924 42.1569C149.247 41.4074 150.261 40.3934 150.966 39.1149C151.671 37.7922 152.024 36.2712 152.024 34.5518C152.024 32.8323 151.649 31.3333 150.9 30.0548C150.194 28.7763 149.202 27.7843 147.924 27.0789C146.645 26.3294 145.168 25.9546 143.493 25.9546C141.774 25.9546 140.209 26.3294 138.798 27.0789C137.431 27.8284 136.439 28.9085 135.822 30.3193L128.481 28.666L132.383 1.28745H159.232V8.89261H135.954L139.327 4.99084L136.549 25.624L133.97 23.5077C135.205 21.7001 136.704 20.3775 138.467 19.5398C140.275 18.7022 142.457 18.2833 145.014 18.2833C148.277 18.2833 151.098 18.9887 153.479 20.3996C155.904 21.8104 157.778 23.7282 159.1 26.153C160.423 28.5779 161.084 31.3774 161.084 34.5518C161.084 37.7261 160.313 40.5918 158.77 43.1489C157.226 45.706 155.132 47.712 152.487 49.1669C149.842 50.6218 146.844 51.3492 143.493 51.3492Z" fill="#E052FF"/>
</svg>
