<svg width="100" height="28" viewBox="0 0 100 28" fill="none" xmlns="http://www.w3.org/2000/svg">
<path d="M97.6942 0C98.4537 0 99.069 0.615533 99.0692 1.375V18.3887C99.0692 19.1483 98.4538 19.7646 97.6942 19.7646H88.4739C87.4914 19.7646 86.713 20.5659 86.4725 21.5186C85.4886 25.4156 81.6328 27.7896 77.8602 26.8213C74.0875 25.8527 71.8265 21.908 72.8104 18.0107C73.3868 15.7278 74.9488 13.9685 76.9022 13.0971C78.254 12.4941 79.4696 11.3259 79.4696 9.8456V1.375C79.4698 0.615534 80.0861 0 80.8456 0H97.6942Z" fill="#9CF694"/>
<circle cx="42.6656" cy="6.91795" r="6.53323" fill="#418CFF"/>
<circle cx="55.7317" cy="6.91795" r="6.53323" fill="#418CFF"/>
<circle cx="55.7317" cy="19.9844" r="6.53323" fill="#418CFF"/>
<circle cx="42.6656" cy="19.9844" r="6.53323" fill="#418CFF"/>
<path d="M11.8906 0.463867C12.6984 0.463992 13.3535 1.11892 13.3535 1.92676V11.4326L21.5859 6.67969C22.2856 6.27574 23.181 6.51521 23.585 7.21484C23.9889 7.91452 23.7485 8.80991 23.0488 9.21387L19.1592 11.458C19.1564 11.4596 19.1542 11.4622 19.1514 11.4639L14.8164 13.9658L23.0488 18.7197C23.7485 19.1237 23.9889 20.0191 23.585 20.7188C23.181 21.4184 22.2856 21.6578 21.5859 21.2539L13.3535 16.5V26.0068C13.3535 26.8147 12.6984 27.4696 11.8906 27.4697C11.0827 27.4697 10.4277 26.8147 10.4277 26.0068V16.5L2.19435 21.2539C1.4948 21.6577 0.600301 21.4181 0.196301 20.7188C-0.207651 20.0191 0.0317981 19.1237 0.731458 18.7197L8.9629 13.9658L0.731458 9.21387C0.0317866 8.80991 -0.207654 7.91452 0.196301 7.21484C0.600296 6.51542 1.49479 6.27591 2.19435 6.67969L10.4277 11.4326V1.92676C10.4277 1.11885 11.0827 0.463867 11.8906 0.463867Z" fill="#E052FF"/>
</svg>
