<svg width="131" height="88" viewBox="0 0 131 88" fill="none" xmlns="http://www.w3.org/2000/svg">
<path d="M123.636 24.8622L125.44 24.8622C125.56 24.8622 125.659 24.9591 125.659 25.0803L125.661 25.3244L125.663 25.7121C125.664 26.0064 125.782 26.2721 125.976 26.4634C126.169 26.6556 126.435 26.7733 126.729 26.7733C127.319 26.7733 127.796 26.2929 127.795 25.7026L127.794 25.2759L127.794 25.082C127.793 24.9609 127.891 24.8622 128.013 24.8622L129.78 24.8622C129.964 24.8622 130.066 25.0751 129.951 25.2188L126.88 29.0427C126.793 29.1518 126.626 29.1518 126.539 29.0427L123.467 25.2188C123.352 25.0751 123.454 24.8622 123.637 24.8622" fill="#9CF694"/>
<path d="M55.759 52.9434V34.6562H50.1364V32.6092H63.5106V34.6562H57.9426V52.9434H55.759ZM65.9048 52.9434V32.2816H67.9519V41.1523L67.4879 41.0431C67.8518 40.0969 68.4432 39.3508 69.262 38.805C70.099 38.2591 71.0634 37.9861 72.1552 37.9861C73.1924 37.9861 74.1204 38.2227 74.9392 38.6958C75.7762 39.1689 76.4313 39.8239 76.9044 40.661C77.3957 41.4798 77.6413 42.4078 77.6413 43.445V52.9434H75.5942V44.2365C75.5942 43.3449 75.4305 42.5898 75.1029 41.9711C74.7754 41.3524 74.3205 40.8793 73.7382 40.5518C73.1742 40.2061 72.5282 40.0332 71.8003 40.0332C71.0725 40.0332 70.4174 40.2061 69.8352 40.5518C69.2529 40.8793 68.7889 41.3615 68.4432 41.9984C68.1156 42.617 67.9519 43.3631 67.9519 44.2365V52.9434H65.9048ZM88.2108 53.2709C86.8461 53.2709 85.6087 52.9434 84.4988 52.2883C83.407 51.615 82.5427 50.6961 81.9058 49.5316C81.269 48.367 80.9505 47.0478 80.9505 45.5739C80.9505 44.1 81.2599 42.799 81.8785 41.6708C82.4972 40.5245 83.3342 39.6238 84.3896 38.9687C85.4632 38.3137 86.6641 37.9861 87.9924 37.9861C89.0478 37.9861 89.9849 38.1863 90.8037 38.5866C91.6408 38.9687 92.3504 39.4964 92.9327 40.1697C93.515 40.8247 93.9608 41.5708 94.2701 42.4078C94.5794 43.2266 94.7341 44.0727 94.7341 44.9462C94.7341 45.1281 94.725 45.3374 94.7068 45.5739C94.6886 45.7923 94.6613 46.0197 94.6249 46.2563H82.2606V44.3457H93.4513L92.4687 45.1645C92.6324 44.1637 92.5142 43.2721 92.1139 42.4897C91.7317 41.689 91.1768 41.0613 90.4489 40.6064C89.7211 40.1333 88.9022 39.8967 87.9924 39.8967C87.0826 39.8967 86.2365 40.1333 85.4541 40.6064C84.6898 41.0795 84.0894 41.7436 83.6527 42.5989C83.2159 43.4359 83.0431 44.4367 83.1341 45.6012C83.0431 46.7658 83.225 47.7848 83.6799 48.6582C84.153 49.5134 84.7899 50.1775 85.5905 50.6506C86.4094 51.1237 87.2828 51.3603 88.2108 51.3603C89.2844 51.3603 90.1851 51.1055 90.9129 50.5961C91.6408 50.0866 92.2321 49.4497 92.687 48.6855L94.4339 49.6135C94.1427 50.2685 93.6969 50.8781 93.0964 51.4422C92.496 51.9881 91.7772 52.4339 90.9402 52.7796C90.1214 53.1071 89.2116 53.2709 88.2108 53.2709Z" fill="white"/>
<path d="M103.259 52.9434L110.273 32.6092H115.077L122.092 52.9434H118.052L116.606 48.5763H108.745L107.271 52.9434H103.259ZM109.809 45.301H115.541L112.157 35.1748H113.194L109.809 45.301ZM124.355 52.9434V32.6092H128.067V52.9434H124.355ZM36.8051 76.2709C35.5132 76.2709 34.3122 76.0343 33.2023 75.5612C32.1105 75.0881 31.1643 74.4331 30.3637 73.5961C29.5812 72.7408 29.0081 71.7491 28.6441 70.621L31.7284 69.2836C32.2197 70.4481 32.9293 71.367 33.8573 72.0403C34.7853 72.6953 35.8316 73.0229 36.9962 73.0229C37.6512 73.0229 38.2153 72.9228 38.6884 72.7226C39.1797 72.5043 39.5527 72.2131 39.8075 71.8492C40.0804 71.4853 40.2169 71.0486 40.2169 70.5391C40.2169 69.9386 40.0349 69.4473 39.671 69.0652C39.3253 68.6649 38.7976 68.3556 38.0879 68.1372L34.1849 66.8817C32.6018 66.3904 31.41 65.6534 30.6093 64.6708C29.8087 63.6883 29.4084 62.5328 29.4084 61.2045C29.4084 60.0399 29.6904 59.0118 30.2545 58.1202C30.8368 57.2286 31.6374 56.5372 32.6564 56.0459C33.6936 55.5364 34.8763 55.2816 36.2046 55.2816C37.4238 55.2816 38.5428 55.5 39.5618 55.9367C40.5808 56.3552 41.4542 56.9466 42.1821 57.7108C42.9281 58.4569 43.4831 59.3394 43.847 60.3584L40.7901 61.7231C40.3898 60.7041 39.7893 59.9217 38.9886 59.3758C38.188 58.8117 37.26 58.5296 36.2046 58.5296C35.586 58.5296 35.0401 58.6388 34.567 58.8572C34.0939 59.0573 33.7209 59.3485 33.4479 59.7306C33.1932 60.0945 33.0658 60.5312 33.0658 61.0407C33.0658 61.6048 33.2478 62.1052 33.6117 62.5419C33.9756 62.9604 34.5306 63.2879 35.2766 63.5245L39.0159 64.6981C40.6354 65.2258 41.8454 65.9537 42.6461 66.8817C43.4649 67.8097 43.8743 68.956 43.8743 70.3208C43.8743 71.4853 43.5741 72.5134 42.9736 73.405C42.3731 74.2966 41.5452 74.9972 40.4898 75.5067C39.4345 76.0161 38.2062 76.2709 36.8051 76.2709ZM52.2116 76.2709C51.0653 76.2709 50.0645 76.0161 49.2093 75.5067C48.3722 74.9972 47.7263 74.2875 47.2714 73.3777C46.8347 72.4679 46.6163 71.4034 46.6163 70.1843V61.0953H50.1919V69.884C50.1919 70.5027 50.3101 71.0486 50.5467 71.5217C50.8014 71.9766 51.1563 72.3405 51.6112 72.6135C52.0843 72.8682 52.6119 72.9956 53.1942 72.9956C53.7765 72.9956 54.2951 72.8682 54.75 72.6135C55.2049 72.3405 55.5597 71.9675 55.8145 71.4944C56.0692 71.0213 56.1966 70.4572 56.1966 69.8022V61.0953H59.7721V75.9434H56.3876V73.0229L56.6879 73.5415C56.3422 74.4513 55.769 75.1336 54.9683 75.5885C54.1859 76.0434 53.267 76.2709 52.2116 76.2709ZM63.0958 75.9434V61.0953H66.453V64.5344L66.0709 63.9612C66.3439 62.8876 66.8897 62.087 67.7086 61.5593C68.5274 61.0316 69.4918 60.7678 70.6018 60.7678C71.8209 60.7678 72.8945 61.0862 73.8225 61.7231C74.7505 62.3599 75.3509 63.197 75.6239 64.2341L74.614 64.316C75.0689 63.1333 75.7513 62.2508 76.6611 61.6685C77.5709 61.068 78.6172 60.7678 79.7999 60.7678C80.8553 60.7678 81.7924 61.0043 82.6112 61.4774C83.4482 61.9505 84.1033 62.6147 84.5764 63.4699C85.0495 64.3069 85.286 65.2804 85.286 66.3904V75.9434H81.7105V67.2365C81.7105 66.5814 81.5922 66.0174 81.3557 65.5443C81.1191 65.0712 80.7916 64.7072 80.3731 64.4525C79.9546 64.1796 79.4451 64.0431 78.8446 64.0431C78.2805 64.0431 77.7801 64.1796 77.3434 64.4525C76.9067 64.7072 76.5701 65.0712 76.3335 65.5443C76.097 66.0174 75.9787 66.5814 75.9787 67.2365V75.9434H72.4032V67.2365C72.4032 66.5814 72.2849 66.0174 72.0483 65.5443C71.8118 65.0712 71.4752 64.7072 71.0385 64.4525C70.6199 64.1796 70.1196 64.0431 69.5373 64.0431C68.9732 64.0431 68.4728 64.1796 68.0361 64.4525C67.5994 64.7072 67.2628 65.0712 67.0262 65.5443C66.7897 66.0174 66.6714 66.5814 66.6714 67.2365V75.9434H63.0958ZM88.311 75.9434V61.0953H91.6682V64.5344L91.2861 63.9612C91.559 62.8876 92.1049 62.087 92.9237 61.5593C93.7426 61.0316 94.7069 60.7678 95.8169 60.7678C97.0361 60.7678 98.1096 61.0862 99.0376 61.7231C99.9656 62.3599 100.566 63.197 100.839 64.2341L99.8292 64.316C100.284 63.1333 100.966 62.2508 101.876 61.6685C102.786 61.068 103.832 60.7678 105.015 60.7678C106.07 60.7678 107.008 61.0043 107.826 61.4774C108.663 61.9505 109.318 62.6147 109.792 63.4699C110.265 64.3069 110.501 65.2804 110.501 66.3904V75.9434H106.926V67.2365C106.926 66.5814 106.807 66.0174 106.571 65.5443C106.334 65.0712 106.007 64.7072 105.588 64.4525C105.17 64.1796 104.66 64.0431 104.06 64.0431C103.496 64.0431 102.995 64.1796 102.559 64.4525C102.122 64.7072 101.785 65.0712 101.549 65.5443C101.312 66.0174 101.194 66.5814 101.194 67.2365V75.9434H97.6183V67.2365C97.6183 66.5814 97.5001 66.0174 97.2635 65.5443C97.027 65.0712 96.6903 64.7072 96.2536 64.4525C95.8351 64.1796 95.3347 64.0431 94.7524 64.0431C94.1884 64.0431 93.688 64.1796 93.2513 64.4525C92.8146 64.7072 92.4779 65.0712 92.2414 65.5443C92.0048 66.0174 91.8865 66.5814 91.8865 67.2365V75.9434H88.311ZM113.526 75.9434V61.0953H117.102V75.9434H113.526ZM113.526 59.4304V55.6092H117.102V59.4304H113.526ZM127.172 76.1071C125.498 76.1071 124.197 75.6522 123.269 74.7424C122.359 73.8144 121.904 72.5134 121.904 70.8393V64.2887H119.339V61.0953H119.611C120.339 61.0953 120.903 60.9042 121.304 60.5221C121.704 60.14 121.904 59.585 121.904 58.8572V57.7108H125.48V61.0953H128.892V64.2887H125.48V70.6483C125.48 71.1396 125.562 71.5581 125.725 71.9038C125.907 72.2495 126.18 72.5134 126.544 72.6953C126.926 72.8773 127.409 72.9683 127.991 72.9683C128.118 72.9683 128.264 72.9592 128.428 72.941C128.609 72.9228 128.782 72.9046 128.946 72.8864V75.9434C128.691 75.9798 128.4 76.0161 128.073 76.0525C127.745 76.0889 127.445 76.1071 127.172 76.1071Z" fill="#9CF694"/>
<path d="M25.7749 75.4349H2.64548C1.73671 75.4349 1 74.6982 1 73.7894V2.64841C1 1.73964 1.73671 1.00293 2.64548 1.00293H125.052C125.961 1.00293 126.698 1.73964 126.698 2.64841V24.8541" stroke="white" stroke-width="0.822742" stroke-linecap="round"/>
<path d="M54.9653 86.0363L54.9574 86.0442C54.3645 86.0442 53.8468 85.8822 53.4041 85.5541C52.9614 85.2261 52.665 84.8269 52.5148 84.3526L52.9101 84.238C53.0444 84.6491 53.2974 84.9889 53.6689 85.2577C54.0404 85.5265 54.4752 85.6608 54.9771 85.6608C55.4672 85.6608 55.8703 85.5383 56.1865 85.2893C56.5027 85.0403 56.6608 84.7558 56.6608 84.4317C56.6608 84.1748 56.5738 83.9614 56.3999 83.7954C56.226 83.6294 55.9217 83.4752 55.483 83.3329L54.0839 82.8824C53.6768 82.752 53.3685 82.586 53.1591 82.3844C52.9496 82.1828 52.8468 81.922 52.8468 81.6018C52.8468 81.2185 53.0207 80.8865 53.3685 80.6019C53.7163 80.3173 54.1511 80.1751 54.6688 80.1751C55.2261 80.1751 55.6925 80.2976 56.0719 80.5426C56.4513 80.7877 56.7319 81.1117 56.9177 81.5109L56.5304 81.6295C56.3762 81.2936 56.1391 81.0288 55.815 80.839C55.4909 80.6493 55.1036 80.5545 54.6491 80.5545C54.242 80.5545 53.906 80.6572 53.6412 80.8667C53.3764 81.0762 53.246 81.3212 53.246 81.6018C53.246 81.8232 53.3251 82.005 53.4831 82.1472C53.6412 82.2895 53.9139 82.42 54.2973 82.5425L55.6569 82.9772C56.143 83.1274 56.4987 83.3092 56.728 83.5226C56.9572 83.7361 57.0718 84.0325 57.0718 84.408C57.0718 84.8546 56.8742 85.2379 56.475 85.5581C56.0759 85.8782 55.5739 86.0363 54.9653 86.0363ZM59.9965 86.0363L59.9847 86.0442C59.3879 86.0442 58.8938 85.8426 58.5026 85.4395C58.1113 85.0364 57.9137 84.5344 57.9137 83.9297C57.9137 83.3329 58.1113 82.8349 58.5026 82.4397C58.8938 82.0445 59.3918 81.8469 59.9926 81.8469C60.451 81.8469 60.8423 81.9654 61.1664 82.2065C61.4905 82.4476 61.7 82.7164 61.7909 83.0128L61.4194 83.1235C61.3364 82.8824 61.1625 82.669 60.8977 82.4871C60.6328 82.3053 60.3285 82.2144 59.9847 82.2144C59.4946 82.2144 59.0915 82.3844 58.7792 82.7203C58.467 83.0563 58.3089 83.4634 58.3089 83.9416C58.3089 84.4159 58.467 84.823 58.7792 85.1589C59.0915 85.4948 59.4946 85.6648 59.9886 85.6648C60.3325 85.6648 60.6368 85.5778 60.9016 85.4039C61.1664 85.23 61.3403 85.0206 61.4233 84.7795L61.7948 84.8783C61.7039 85.1826 61.4984 85.4514 61.1743 85.6846C60.8502 85.9177 60.4589 86.0363 59.9965 86.0363ZM64.6326 86.0363L64.6247 86.0442C64.0358 86.0442 63.5496 85.8426 63.1623 85.4395C62.775 85.0364 62.5813 84.5344 62.5813 83.9376C62.5813 83.3408 62.775 82.8429 63.1623 82.4437C63.5496 82.0445 64.0397 81.8429 64.6286 81.8429C65.0159 81.8429 65.3598 81.9259 65.6562 82.0919C65.9526 82.2579 66.1898 82.4871 66.3637 82.7757V81.9338H66.7589V85.9415H66.3637V85.0917C66.1977 85.3881 65.9645 85.6213 65.6641 85.7873C65.3637 85.9533 65.0199 86.0363 64.6326 86.0363ZM64.6681 85.6766V85.6885C65.1385 85.6885 65.5376 85.5225 65.8696 85.1866C66.2016 84.8506 66.3676 84.4396 66.3676 83.9534C66.3676 83.4673 66.2016 83.0563 65.8696 82.7203C65.5376 82.3844 65.1385 82.2184 64.6681 82.2184C64.1741 82.2184 63.767 82.3844 63.4508 82.7124C63.1347 83.0405 62.9766 83.4515 62.9766 83.9495C62.9766 84.4475 63.1347 84.8585 63.4548 85.1866C63.7749 85.5146 64.1781 85.6766 64.6681 85.6766ZM68.0553 85.9375V80.0288H68.4505V85.9375H68.0553ZM71.5609 86.0363H71.5688C70.9602 86.0363 70.4622 85.8426 70.0709 85.4593C69.6797 85.0759 69.486 84.5661 69.486 83.9297C69.486 83.3329 69.6757 82.8349 70.0512 82.4358C70.4266 82.0366 70.9128 81.835 71.5056 81.835C72.1182 81.835 72.6004 82.0247 72.9522 82.4002C73.3039 82.7757 73.4818 83.2499 73.4818 83.823C73.4818 83.9218 73.4778 84.0048 73.4739 84.072H69.897C69.9168 84.5502 70.0788 84.9336 70.3832 85.2261C70.6875 85.5186 71.0827 85.6648 71.5688 85.6648C71.9285 85.6648 72.2407 85.5778 72.5016 85.4039C72.7624 85.23 72.9482 85.0166 73.0628 84.7637L73.4462 84.8783C73.2841 85.2142 73.047 85.4909 72.7348 85.7083C72.4225 85.9256 72.0313 86.0363 71.5609 86.0363ZM69.8931 83.7124L73.0826 83.7045C73.051 83.2499 72.8968 82.8863 72.6202 82.6136C72.3435 82.3409 71.972 82.2026 71.5017 82.2026C71.0551 82.2026 70.6835 82.3488 70.3832 82.6413C70.0828 82.9338 69.9207 83.2895 69.8931 83.7124ZM78.9201 82.3014L77.442 82.3053V84.7992C77.442 85.3407 77.687 85.6095 78.1771 85.6095C78.3826 85.6095 78.5921 85.5581 78.8015 85.4553L78.9201 85.8268C78.6514 85.9415 78.3905 85.9968 78.1376 85.9968C77.7779 85.9968 77.5052 85.8901 77.3194 85.6766C77.1337 85.4632 77.0428 85.1708 77.0428 84.7953V82.3014H76.193V81.9299H77.0428V80.507H77.442V81.9299H78.9201V82.3014ZM81.497 86.0363L81.4891 86.0403C80.8844 86.0403 80.3825 85.8387 79.9793 85.4356C79.5762 85.0324 79.3746 84.5305 79.3746 83.9337C79.3746 83.3369 79.5762 82.8389 79.9793 82.4397C80.3825 82.0405 80.8884 81.839 81.4931 81.839C82.0899 81.839 82.5878 82.0366 82.987 82.4358C83.3862 82.8349 83.5878 83.3329 83.5878 83.9297C83.5878 84.5265 83.3902 85.0285 82.991 85.4316C82.5918 85.8347 82.0938 86.0363 81.497 86.0363ZM81.4891 85.6648V85.6687C81.9673 85.6687 82.3705 85.5027 82.6985 85.1747C83.0266 84.8467 83.1886 84.4356 83.1886 83.9455C83.1886 83.4555 83.0266 83.0444 82.6985 82.7124C82.3705 82.3804 81.9673 82.2144 81.4891 82.2144C81.003 82.2144 80.5959 82.3804 80.2678 82.7124C79.9398 83.0444 79.7738 83.4555 79.7738 83.9455C79.7738 84.4356 79.9398 84.8467 80.2678 85.1747C80.5959 85.5027 81.003 85.6648 81.4891 85.6648ZM86.7654 85.9375V80.2699H87.1765V85.9375H86.7654ZM90.4569 81.835H90.4529C90.947 81.835 91.3422 81.9892 91.6347 82.2974C91.9271 82.6057 92.0734 83.0326 92.0734 83.578V85.9415H91.6781V83.6175C91.6781 83.1748 91.5675 82.831 91.3461 82.586C91.1248 82.3409 90.8126 82.2184 90.4055 82.2184C89.947 82.2184 89.5755 82.3725 89.2909 82.6848C89.0064 82.997 88.8641 83.4041 88.8641 83.906V85.9375H88.4689V81.9299H88.8641V82.7559C89.0103 82.4753 89.2198 82.25 89.4925 82.084C89.7652 81.918 90.0854 81.835 90.4569 81.835ZM95.6146 82.3014L94.1365 82.3053V84.7992C94.1365 85.3407 94.3815 85.6095 94.8716 85.6095C95.0771 85.6095 95.2866 85.5581 95.496 85.4553L95.6146 85.8268C95.3459 85.9415 95.085 85.9968 94.8321 85.9968C94.4724 85.9968 94.1997 85.8901 94.0139 85.6766C93.8282 85.4632 93.7373 85.1708 93.7373 84.7953V82.3014H92.8875V81.9299H93.7373V80.507H94.1365V81.9299H95.6146V82.3014ZM98.1599 86.0363H98.1678C97.5591 86.0363 97.0612 85.8426 96.6699 85.4593C96.2786 85.0759 96.0849 84.5661 96.0849 83.9297C96.0849 83.3329 96.2746 82.8349 96.6501 82.4358C97.0256 82.0366 97.5117 81.835 98.1046 81.835C98.7172 81.835 99.1993 82.0247 99.5511 82.4002C99.9029 82.7757 100.081 83.2499 100.081 83.823C100.081 83.9218 100.077 84.0048 100.073 84.072H96.496C96.5157 84.5502 96.6778 84.9336 96.9821 85.2261C97.2864 85.5186 97.6817 85.6648 98.1678 85.6648C98.5275 85.6648 98.8397 85.5778 99.1005 85.4039C99.3614 85.23 99.5471 85.0166 99.6618 84.7637L100.045 84.8783C99.8831 85.2142 99.646 85.4909 99.3337 85.7083C99.0215 85.9256 98.6302 86.0363 98.1599 86.0363ZM96.492 83.7124L99.6815 83.7045C99.6499 83.2499 99.4958 82.8863 99.2191 82.6136C98.9424 82.3409 98.5709 82.2026 98.1006 82.2026C97.654 82.2026 97.2825 82.3488 96.9821 82.6413C96.6817 82.9338 96.5197 83.2895 96.492 83.7124ZM101.096 85.9375V80.0288H101.492V85.9375H101.096ZM102.788 85.9375V80.0288H103.183V85.9375H102.788ZM104.721 81.0801L104.713 81.092C104.622 81.092 104.547 81.0604 104.484 80.9971C104.42 80.9339 104.389 80.8548 104.389 80.7639C104.389 80.677 104.42 80.6019 104.484 80.5426C104.547 80.4833 104.626 80.4517 104.717 80.4517C104.808 80.4517 104.887 80.4833 104.95 80.5426C105.013 80.6019 105.045 80.673 105.045 80.756C105.045 80.8469 105.013 80.922 104.95 80.9853C104.887 81.0485 104.812 81.0801 104.721 81.0801ZM104.519 85.9494V81.9417H104.914V85.9494H104.519ZM109.772 81.9299L110.155 81.9378V85.815C110.155 86.3723 109.973 86.8307 109.61 87.1943C109.246 87.5579 108.776 87.7397 108.203 87.7397C107.337 87.7397 106.709 87.388 106.317 86.6845L106.681 86.5501C107.001 87.0955 107.507 87.3682 108.203 87.3643C108.673 87.3643 109.048 87.218 109.329 86.9256C109.61 86.6331 109.756 86.2616 109.768 85.815V85.0245C109.602 85.2972 109.369 85.5107 109.068 85.6648C108.768 85.8189 108.424 85.894 108.033 85.894C107.444 85.894 106.958 85.7004 106.57 85.313C106.183 84.9257 105.989 84.4396 105.989 83.8586C105.989 83.2816 106.183 82.7994 106.57 82.4121C106.958 82.0247 107.448 81.8311 108.037 81.8311C108.424 81.8311 108.768 81.9062 109.064 82.0603C109.361 82.2144 109.598 82.4279 109.772 82.7006V81.9299ZM108.068 85.5344V85.5265C108.539 85.5265 108.938 85.3644 109.27 85.0443C109.602 84.7241 109.768 84.3329 109.768 83.8704C109.768 83.408 109.602 83.0168 109.27 82.6966C108.938 82.3765 108.539 82.2144 108.068 82.2144C107.574 82.2144 107.167 82.3725 106.851 82.6887C106.535 83.0049 106.377 83.4001 106.377 83.8744C106.377 84.3487 106.535 84.7439 106.855 85.0601C107.175 85.3763 107.578 85.5344 108.068 85.5344ZM113.273 86.0363H113.281C112.673 86.0363 112.175 85.8426 111.783 85.4593C111.392 85.0759 111.199 84.5661 111.199 83.9297C111.199 83.3329 111.388 82.8349 111.764 82.4358C112.139 82.0366 112.625 81.835 113.218 81.835C113.831 81.835 114.313 82.0247 114.665 82.4002C115.016 82.7757 115.194 83.2499 115.194 83.823C115.194 83.9218 115.19 84.0048 115.186 84.072H111.61C111.629 84.5502 111.791 84.9336 112.096 85.2261C112.4 85.5186 112.795 85.6648 113.281 85.6648C113.641 85.6648 113.953 85.5778 114.214 85.4039C114.475 85.23 114.661 85.0166 114.775 84.7637L115.159 84.8783C114.997 85.2142 114.76 85.4909 114.447 85.7083C114.135 85.9256 113.744 86.0363 113.273 86.0363ZM111.606 83.7124L114.795 83.7045C114.763 83.2499 114.609 82.8863 114.333 82.6136C114.056 82.3409 113.684 82.2026 113.214 82.2026C112.768 82.2026 112.396 82.3488 112.096 82.6413C111.795 82.9338 111.633 83.2895 111.606 83.7124ZM118.194 81.835H118.19C118.684 81.835 119.079 81.9892 119.372 82.2974C119.664 82.6057 119.811 83.0326 119.811 83.578V85.9415H119.415V83.6175C119.415 83.1748 119.305 82.831 119.083 82.586C118.862 82.3409 118.55 82.2184 118.143 82.2184C117.684 82.2184 117.313 82.3725 117.028 82.6848C116.744 82.997 116.601 83.4041 116.601 83.906V85.9375H116.206V81.9299H116.601V82.7559C116.748 82.4753 116.957 82.25 117.23 82.084C117.502 81.918 117.823 81.835 118.194 81.835ZM122.878 86.0363L122.866 86.0442C122.269 86.0442 121.775 85.8426 121.384 85.4395C120.992 85.0364 120.795 84.5344 120.795 83.9297C120.795 83.3329 120.992 82.8349 121.384 82.4397C121.775 82.0445 122.273 81.8469 122.874 81.8469C123.332 81.8469 123.723 81.9654 124.047 82.2065C124.372 82.4476 124.581 82.7164 124.672 83.0128L124.3 83.1235C124.217 82.8824 124.043 82.669 123.779 82.4871C123.514 82.3053 123.21 82.2144 122.866 82.2144C122.376 82.2144 121.972 82.3844 121.66 82.7203C121.348 83.0563 121.19 83.4634 121.19 83.9416C121.19 84.4159 121.348 84.823 121.66 85.1589C121.972 85.4948 122.376 85.6648 122.87 85.6648C123.213 85.6648 123.518 85.5778 123.783 85.4039C124.047 85.23 124.221 85.0206 124.304 84.7795L124.676 84.8783C124.585 85.1826 124.379 85.4514 124.055 85.6846C123.731 85.9177 123.34 86.0363 122.878 86.0363ZM127.549 86.0363H127.557C126.948 86.0363 126.45 85.8426 126.059 85.4593C125.668 85.0759 125.474 84.5661 125.474 83.9297C125.474 83.3329 125.664 82.8349 126.039 82.4358C126.415 82.0366 126.901 81.835 127.494 81.835C128.106 81.835 128.589 82.0247 128.94 82.4002C129.292 82.7757 129.47 83.2499 129.47 83.823C129.47 83.9218 129.466 84.0048 129.462 84.072H125.885C125.905 84.5502 126.067 84.9336 126.371 85.2261C126.676 85.5186 127.071 85.6648 127.557 85.6648C127.917 85.6648 128.229 85.5778 128.49 85.4039C128.751 85.23 128.936 85.0166 129.051 84.7637L129.434 84.8783C129.272 85.2142 129.035 85.4909 128.723 85.7083C128.411 85.9256 128.019 86.0363 127.549 86.0363ZM125.881 83.7124L129.071 83.7045C129.039 83.2499 128.885 82.8863 128.608 82.6136C128.332 82.3409 127.96 82.2026 127.49 82.2026C127.043 82.2026 126.672 82.3488 126.371 82.6413C126.071 82.9338 125.909 83.2895 125.881 83.7124Z" fill="white"/>
</svg>
