<svg width="75" height="42" viewBox="0 0 75 42" fill="none" xmlns="http://www.w3.org/2000/svg">
<path d="M71.5232 13.3003L72.4532 13.3003C72.5152 13.3003 72.5661 13.3502 72.5661 13.4127L72.567 13.5385L72.5679 13.7384C72.5687 13.8902 72.6294 14.0272 72.7294 14.1258C72.8289 14.2248 72.9659 14.2855 73.1176 14.2855C73.4219 14.2855 73.6678 14.0379 73.6674 13.7335L73.6665 13.5135L73.6665 13.4136C73.666 13.3511 73.7164 13.3003 73.7793 13.3003L74.6905 13.3003C74.7856 13.3003 74.8382 13.41 74.7789 13.4841L73.1957 15.4555C73.1506 15.5117 73.0645 15.5117 73.0194 15.4555L71.4358 13.4841C71.3764 13.41 71.4291 13.3003 71.5237 13.3003" fill="#4028C8"/>
<path d="M40.2506 16.84V18.5852H36.9458V26.6927H35.0151V18.5852H31.7102V16.84H40.2506ZM45.5205 19.3754V19.3822C46.4343 19.3822 47.1283 19.6639 47.6092 20.2273C48.0902 20.7907 48.3307 21.5603 48.3307 22.5359V26.6996H46.4687V22.8863C46.4687 22.3298 46.3381 21.8969 46.0839 21.5809C45.8297 21.2648 45.4518 21.1068 44.9502 21.1068C44.4349 21.1068 44.0227 21.2923 43.7066 21.6702C43.3906 22.0481 43.2325 22.5497 43.2325 23.1749V26.6927H41.3774V16.4209H43.2325V20.4747C43.8028 19.7395 44.5655 19.3754 45.5205 19.3754ZM53.5181 26.892L53.4975 26.8989C52.3501 26.8989 51.4225 26.5553 50.7079 25.8683C49.9934 25.1812 49.6361 24.2742 49.6361 23.1474C49.6361 22.0687 49.9796 21.1686 50.6667 20.4541C51.3538 19.7395 52.2539 19.3822 53.3601 19.3822C54.4937 19.3822 55.3938 19.7258 56.0534 20.4197C56.713 21.1137 57.0428 21.9863 57.0428 23.0375C57.0428 23.3261 57.0291 23.5459 57.0016 23.6971H51.4706C51.5324 24.1849 51.7386 24.5765 52.089 24.872C52.4394 25.1674 52.9203 25.3117 53.5387 25.3117C54.3632 25.3117 54.9403 24.9957 55.2701 24.3704L56.9466 24.8651C56.713 25.401 56.3008 25.8751 55.703 26.2805C55.1052 26.6859 54.3769 26.892 53.5181 26.892ZM51.4569 22.5359H55.222C55.174 22.0893 54.9816 21.7114 54.6449 21.4091C54.3082 21.1068 53.8754 20.9556 53.3395 20.9556C52.8241 20.9556 52.3982 21.1137 52.0546 21.4229C51.7111 21.732 51.5118 22.1031 51.4569 22.5359Z" fill="#060832"/>
<path d="M69.1079 26.6927L68.304 24.5559H63.8724L63.0547 26.6927H61.0553L64.8274 16.84H67.3352L71.121 26.6927H69.1079ZM64.5045 22.852H67.6582L66.0779 18.6883L64.5045 22.852ZM72.0692 26.6927V16.84H74.0274V26.6927H72.0692ZM26.2823 38.892L26.248 38.9126C25.1143 38.9126 24.1455 38.624 23.3485 38.0469C22.5515 37.4697 22.0018 36.7621 21.6995 35.9238L23.5477 35.3673C23.7539 35.9101 24.1043 36.3498 24.599 36.6934C25.0937 37.0369 25.6846 37.2087 26.3648 37.2087C26.9213 37.2087 27.3748 37.085 27.7252 36.8376C28.0756 36.5903 28.2474 36.3017 28.2474 35.965C28.2474 35.704 28.1512 35.4772 27.9519 35.2848C27.7527 35.0925 27.416 34.9207 26.9419 34.7764L24.4272 33.9863C23.7401 33.7733 23.1973 33.4503 22.792 33.0244C22.3866 32.5984 22.1873 32.0831 22.1942 31.4716C22.1873 30.6952 22.524 30.0287 23.1973 29.479C23.8707 28.9294 24.7158 28.6545 25.7258 28.6545C26.7495 28.6545 27.6427 28.895 28.4054 29.376C29.168 29.8569 29.6902 30.4547 29.9719 31.1761L28.1786 31.6983C27.9725 31.2929 27.6496 30.97 27.2167 30.7226C26.7839 30.4753 26.2961 30.3516 25.7533 30.3516C25.286 30.3516 24.9082 30.4547 24.6127 30.6608C24.3173 30.8669 24.173 31.1211 24.173 31.4166C24.173 31.8494 24.489 32.1586 25.1143 32.3441L27.5603 33.1343C28.4191 33.3954 29.0787 33.7252 29.5322 34.1237C29.9857 34.5222 30.2124 35.0925 30.2124 35.8345C30.2124 36.6934 29.8482 37.4148 29.1199 38.0057C28.3916 38.5966 27.4435 38.892 26.2823 38.892ZM36.4854 31.5746L38.3405 31.5884V38.7065H36.4786V37.8064C35.922 38.5416 35.1594 38.9057 34.1906 38.9057C33.2699 38.9057 32.5691 38.624 32.095 38.0606C31.6209 37.4972 31.3804 36.7208 31.3804 35.7383V31.5884H33.2355V35.3879C33.2355 35.9444 33.3661 36.3773 33.6272 36.6934C33.8883 37.0094 34.2662 37.1674 34.7609 37.1674C35.2899 37.1674 35.709 36.9819 36.0182 36.604C36.3274 36.2261 36.4854 35.7177 36.4854 35.0787V31.5746ZM48.6879 31.3754L48.6811 31.3685C49.5399 31.3685 50.227 31.6365 50.7354 32.1792C51.2439 32.722 51.4981 33.4778 51.4981 34.4535V38.6859H49.6361V34.8451C49.6361 33.6839 49.1826 33.0999 48.2757 33.0999C47.7879 33.0999 47.4168 33.2717 47.1557 33.6152C46.8947 33.9588 46.7641 34.4397 46.7641 35.065V38.6927H44.8884V34.852C44.8884 33.6908 44.4418 33.1068 43.5555 33.1068C43.0539 33.1068 42.676 33.2854 42.4149 33.6359C42.1538 33.9863 42.0233 34.481 42.0233 35.1199V38.6927H40.1682V31.5746H42.0233V32.4197C42.5592 31.7258 43.2669 31.3754 44.1395 31.3754C45.1083 31.3754 45.8228 31.7326 46.2832 32.4472C46.8466 31.7326 47.6504 31.3754 48.6879 31.3754ZM61.7699 31.3754L61.763 31.3685C62.6219 31.3685 63.309 31.6365 63.8174 32.1792C64.3258 32.722 64.5801 33.4778 64.5801 34.4535V38.6859H62.7181V34.8451C62.7181 33.6839 62.2646 33.0999 61.3577 33.0999C60.8698 33.0999 60.4988 33.2717 60.2377 33.6152C59.9766 33.9588 59.8461 34.4397 59.8461 35.065V38.6927H57.9704V34.852C57.9704 33.6908 57.5238 33.1068 56.6374 33.1068C56.1359 33.1068 55.758 33.2854 55.4969 33.6359C55.2358 33.9863 55.1052 34.481 55.1052 35.1199V38.6927H53.2501V31.5746H55.1052V32.4197C55.6412 31.7258 56.3489 31.3754 57.2214 31.3754C58.1902 31.3754 58.9048 31.7326 59.3651 32.4472C59.9285 31.7326 60.7324 31.3754 61.7699 31.3754ZM67.2803 30.5715V30.5852C66.9711 30.5852 66.71 30.4822 66.497 30.2692C66.284 30.0562 66.1741 29.7951 66.1741 29.4859C66.1741 29.1836 66.284 28.9294 66.497 28.7232C66.71 28.5171 66.9711 28.4141 67.2803 28.4141C67.5895 28.4141 67.8505 28.5171 68.0635 28.7232C68.2765 28.9294 68.3865 29.1836 68.3865 29.4859C68.3865 29.7951 68.2765 30.0562 68.0635 30.2623C67.8505 30.4684 67.5895 30.5715 67.2803 30.5715ZM66.3184 38.7065V31.5884H68.1872V38.7065H66.3184ZM74.1167 36.9613L74.5702 38.466C74.0068 38.6927 73.4502 38.8027 72.9074 38.8027C72.1173 38.8027 71.5264 38.5759 71.1279 38.1293C70.7294 37.6827 70.5302 37.0575 70.5302 36.2605V33.203H69.3346V31.5746H70.5302V29.266H72.399V31.5746H74.4809V33.203H72.399V36.2605C72.399 36.8582 72.6876 37.1606 73.2716 37.1606C73.5739 37.1606 73.8556 37.0919 74.1167 36.9613Z" fill="#4028C8"/>
<path d="M20.7234 39.3855H1.84832C1.37981 39.3855 1 39.0057 1 38.5372V1.84734C1 1.37883 1.37981 0.999023 1.84832 0.999023H72.2588C72.7273 0.999023 73.1071 1.37883 73.1071 1.84734V13.2997" stroke="#060832" stroke-width="0.572322" stroke-linecap="round"/>
</svg>
