<svg width="25" height="27" viewBox="0 0 25 27" fill="none" xmlns="http://www.w3.org/2000/svg">
<path d="M20.373 11.1939V7.99614C20.373 6.81875 19.4805 5.86428 18.3796 5.86428H6.41902C5.31808 5.86428 4.4256 6.81875 4.4256 7.99614V11.1939M20.373 11.1939V20.7873C20.373 21.9647 19.4805 22.9191 18.3796 22.9191H6.41902C5.31808 22.9191 4.4256 21.9647 4.4256 20.7873V11.1939M20.373 11.1939H4.4256M8.41245 3.73242V7.99614M16.3862 3.73242V7.99614" stroke="white" stroke-width="1.99343" stroke-linecap="round"/>
<path d="M8.91024 13.3254H6.91681C6.64158 13.3254 6.41846 13.5641 6.41846 13.8584V15.9903C6.41846 16.2846 6.64158 16.5232 6.91681 16.5232H8.91024C9.18547 16.5232 9.4086 16.2846 9.4086 15.9903V13.8584C9.4086 13.5641 9.18547 13.3254 8.91024 13.3254Z" fill="white"/>
<path d="M13.3955 13.3254H11.4021C11.1269 13.3254 10.9037 13.5641 10.9037 13.8584V15.9903C10.9037 16.2846 11.1269 16.5232 11.4021 16.5232H13.3955C13.6708 16.5232 13.8939 16.2846 13.8939 15.9903V13.8584C13.8939 13.5641 13.6708 13.3254 13.3955 13.3254Z" fill="white"/>
<path d="M17.8809 13.3254H15.8875C15.6122 13.3254 15.3891 13.5641 15.3891 13.8584V15.9903C15.3891 16.2846 15.6122 16.5232 15.8875 16.5232H17.8809C18.1561 16.5232 18.3792 16.2846 18.3792 15.9903V13.8584C18.3792 13.5641 18.1561 13.3254 17.8809 13.3254Z" fill="white"/>
</svg>
