<svg width="110" height="31" viewBox="0 0 110 31" fill="none" xmlns="http://www.w3.org/2000/svg">
<path d="M17.9244 16.0776C20.3722 16.0776 22.82 16.138 25.2643 16.0562C26.8248 16.0029 27.4561 16.5362 27.4456 18.186C27.428 21.1904 27.6454 24.1984 27.6875 27.2064C27.7226 29.7842 26.8038 30.4811 24.3034 29.8055C20.2109 28.7033 17.0862 26.314 15.0698 22.5024C14.8629 22.1078 14.6244 21.7273 14.0563 21.3931C14.0563 23.4838 14.0668 25.5744 14.0563 27.6651C14.0387 29.9619 13.6565 30.3424 11.3981 30.3424C8.42072 30.3424 5.44338 30.3495 2.46604 30.3211C0.183058 30.2997 -0.25881 29.7451 0.197085 27.5335C1.10537 23.1069 3.53914 19.8144 7.43879 17.6242C7.94378 17.3398 8.44527 17.0518 8.94675 16.7602C8.98182 16.7389 8.98182 16.6536 9.08352 16.3016C7.71233 16.3656 6.42881 16.4722 5.14529 16.4794C-0.791856 16.5114 0.0743426 16.81 0.0147256 11.4198C-0.00982254 9.11583 0.000698105 6.81185 0.0147256 4.51141C0.0287532 2.34609 0.393469 2.07943 2.54669 2.50609C7.15824 3.42698 10.4828 6.02963 12.5659 10.2821C12.7482 10.6518 12.9306 11.0216 13.1305 11.3807C13.1796 11.4732 13.2988 11.5265 13.674 11.8358C13.674 9.2865 13.667 6.96829 13.674 4.65008C13.6845 2.4492 13.8178 2.29632 15.9219 2.28565C19.015 2.27143 22.1081 2.27143 25.2011 2.2892C27.2948 2.30343 27.6454 2.74787 27.2492 4.85986C26.3654 9.53539 23.7528 12.8776 19.5551 14.9754C19.243 15.1318 18.9133 15.2598 18.5942 15.3985C18.3417 15.5122 18.0857 15.626 17.8332 15.7398C17.8648 15.8536 17.8963 15.9638 17.9244 16.0776Z" fill="#EBECF1"/>
<circle cx="54.8113" cy="14.9827" r="14.6028" fill="#418CFF"/>
<path d="M53.1035 7.20703C51.0916 7.20703 49.1621 8.00626 47.7394 9.42889C46.3168 10.8515 45.5176 12.781 45.5176 14.7929C45.5176 16.8048 46.3168 18.7343 47.7394 20.157C49.1621 21.5796 51.0916 22.3788 53.1035 22.3788L53.1035 14.7929V7.20703Z" fill="#9CF694"/>
<rect x="95.4988" width="20.6544" height="20.6544" transform="rotate(45.4052 95.4988 0)" fill="#9CF694"/>
</svg>
