<svg width="54" height="39" viewBox="0 0 54 39" fill="none" xmlns="http://www.w3.org/2000/svg">
<path d="M8.74902 13.1589C8.70562 13.1459 8.66003 13.1372 8.61446 13.1307L3.41544 12.2823C2.90986 12.1565 2.53011 11.6509 2.53011 11.0194C2.53011 10.286 3.16162 9.75658 3.79305 9.75658H9.91862C10.2311 9.75658 10.5174 9.62855 10.7214 9.42459C10.9275 9.21845 11.0535 8.93202 11.0535 8.61956C11.0535 7.99246 10.5457 7.48254 9.91639 7.48254H3.66284C1.51683 7.48254 0 8.99712 0 11.0194C0 12.764 1.2304 14.0421 2.79054 14.463C2.83394 14.4761 2.87513 14.4847 2.91853 14.4891L8.02643 15.2984C8.08936 15.3093 8.15226 15.3223 8.21301 15.344C8.69256 15.5219 9.005 15.982 9.005 16.5765C9.005 17.3099 8.39964 17.8394 7.74217 17.8394H1.39093C1.07629 17.8394 0.792103 17.9674 0.588135 18.1714C0.381996 18.3775 0.256084 18.6618 0.256084 18.9742C0.256084 19.6013 0.763887 20.1112 1.39315 20.1112H7.99825C10.0184 20.1112 11.5351 18.4708 11.5351 16.5743C11.5351 14.8319 10.3308 13.6016 8.7468 13.1568" fill="#060832"/>
<path d="M22.6648 17.8394H17.6133C16.3982 17.8394 15.4174 16.8543 15.4174 15.6413V10.7677C15.4174 10.1862 15.9208 9.75658 16.5284 9.75658H22.6648C22.9794 9.75658 23.2637 9.62855 23.4698 9.42459C23.6759 9.21845 23.8018 8.93202 23.8018 8.61956C23.8018 7.99246 23.2919 7.48254 22.6648 7.48254H16.5284C14.5169 7.48254 12.8895 9.10995 12.8895 11.1193V15.3136C12.8895 17.9522 15.0506 20.1112 17.6892 20.1112H22.6648C22.9794 20.1112 23.2637 19.9832 23.4698 19.7793C23.6759 19.5731 23.8018 19.2889 23.8018 18.9764C23.8018 18.3493 23.2919 17.8394 22.6648 17.8394Z" fill="#060832"/>
<path d="M32.2304 7.48254H26.4108C25.7837 7.48254 25.2738 7.99246 25.2738 8.61956C25.2738 9.24665 25.7837 9.75658 26.4108 9.75658H32.2304C32.8379 9.75658 33.2416 10.184 33.2416 10.7677V12.0805L27.908 13.0917C26.4433 13.4432 24.9287 14.5542 24.9287 16.5765C24.9287 18.7225 26.5714 20.1134 28.4657 20.1134H35.7717V11.0194C35.7717 9.06656 34.1876 7.48254 32.2347 7.48254M33.2459 17.8394H28.7196C28.0881 17.8394 27.4566 17.3078 27.4566 16.5765C27.4566 15.9451 27.8364 15.4156 28.4939 15.2637L33.2459 14.4305V17.8415V17.8394Z" fill="#060832"/>
<path d="M52.3422 17.7915L47.3949 17.8349C46.0561 17.8349 44.9928 16.8736 44.9429 15.5587L50.9643 14.4173C52.5331 13.9877 54 12.8485 54 10.952C54 8.92751 52.609 7.41077 50.4587 7.41077L46.1342 7.46284C44.1119 7.46284 42.415 9.03167 42.415 11.0041V15.1768C42.415 17.8848 44.6651 20.1089 47.397 20.1089L52.366 20.0655C52.9909 20.059 53.4944 19.5512 53.4944 18.9285C53.4944 18.3057 52.9801 17.785 52.3465 17.7915M44.9451 11.0063C44.9451 10.2728 45.4767 9.74339 46.1342 9.74339L50.207 9.68914C50.8645 9.68914 51.4721 10.2208 51.4721 10.9542C51.4721 11.5357 50.9904 12.0912 50.4609 12.217L44.9451 13.1327V11.0063Z" fill="#060832"/>
<path d="M49.4814 22.3199H43.115V34.046C43.115 34.7295 43.6683 35.2828 44.3496 35.2828C44.6903 35.2828 45.0007 35.1439 45.2242 34.9204C45.4498 34.6969 45.5865 34.3888 45.5865 34.046V24.6678H49.3859C50.4904 24.6678 51.3476 25.7093 51.1913 26.8333C51.0611 27.7707 50.2214 28.4477 49.2753 28.4477H47.8193C47.1727 28.4477 46.6476 28.9706 46.6476 29.6194C46.6476 29.9427 46.7777 30.2378 46.9904 30.4505C47.2008 30.6631 47.496 30.7933 47.8193 30.7933H49.5683C51.9443 30.7933 53.8668 28.8665 53.8147 26.4753C53.7626 24.1513 51.8032 22.3243 49.4814 22.3243" fill="#060832"/>
<path d="M40.6013 29.3979C40.6013 32.6484 37.967 35.2826 34.7187 35.2826H34.4019C31.1514 35.2826 28.5193 32.6484 28.5193 29.3979L28.4065 26.0433C28.4065 25.5811 28.0333 25.2079 27.5733 25.2079H1.51304C0.777449 25.2079 0.185118 24.6046 0.204647 23.8669C0.222006 23.1465 0.851229 22.5932 1.57163 22.5932H28.6691C29.9666 22.5932 31.0191 23.6456 31.0191 24.9453L31.1319 29.6952C31.1319 31.3356 32.462 32.6657 34.1024 32.6657H35.0095C36.6499 32.6657 37.98 31.3356 37.98 29.6952L37.8759 5.23413H40.4928L40.5969 29.4001L40.6013 29.3979Z" fill="#418CFF"/>
<path d="M42.9381 5.23049H40.7248C40.5772 5.23049 40.4557 5.11115 40.4557 4.9636V4.66416L40.4514 4.18895C40.4514 3.82875 40.3038 3.5011 40.0673 3.26675C39.8308 3.03241 39.5053 2.88702 39.1429 2.88702C38.4182 2.88702 37.8323 3.47723 37.8345 4.1998V4.72274L37.8366 4.96143C37.8366 5.11115 37.7173 5.23049 37.5676 5.23049H35.3999C35.1742 5.23049 35.0484 4.97011 35.1894 4.79218L38.9563 0.100899C39.0648 -0.0336331 39.2688 -0.0336331 39.3752 0.100899L43.1442 4.79218C43.2852 4.96794 43.1594 5.23049 42.9337 5.23049" fill="#418CFF"/>
<path d="M7.32859 33.7088C7.32859 33.9266 7.25724 34.1031 7.11455 34.2383C6.97185 34.3735 6.79911 34.4598 6.59633 34.4974C6.37102 34.55 6.11567 34.5988 5.83028 34.6438C5.54488 34.6814 5.25198 34.7152 4.95156 34.7452C4.65866 34.7753 4.36951 34.7978 4.08412 34.8128C3.79873 34.8279 3.53962 34.8354 3.3068 34.8354C3.24671 34.8354 3.16035 34.8316 3.04769 34.8241C2.94255 34.8241 2.82989 34.8166 2.70972 34.8016C2.59707 34.7941 2.48817 34.779 2.38302 34.7565C2.28539 34.734 2.21029 34.7039 2.15771 34.6664C2.10514 34.6213 2.05632 34.5612 2.01126 34.4861C1.97371 34.4035 1.93991 34.3171 1.90987 34.227C1.87983 34.1294 1.8573 34.0355 1.84228 33.9454C1.82726 33.8553 1.81975 33.7764 1.81975 33.7088C1.81975 33.6037 1.83101 33.5098 1.85354 33.4272C1.88359 33.337 1.93616 33.2544 2.01126 33.1793C2.10139 33.0817 2.19527 32.9878 2.2929 32.8977C2.39053 32.8001 2.48441 32.7062 2.57454 32.6161C2.67968 32.5034 2.81862 32.3569 2.99136 32.1767C3.1641 31.9889 3.3481 31.7824 3.54337 31.5571C3.74615 31.3243 3.94518 31.0839 4.14045 30.8361C4.34323 30.5807 4.52723 30.3329 4.69246 30.0926C4.85769 29.8522 4.98912 29.6269 5.08675 29.4166C5.1919 29.2064 5.24447 29.0261 5.24447 28.8759C5.24447 28.7332 5.20316 28.6168 5.12055 28.5267C5.03793 28.429 4.92528 28.3802 4.78258 28.3802C4.62486 28.3802 4.47841 28.4365 4.34323 28.5492C4.20804 28.6619 4.07285 28.7858 3.93767 28.921C3.80248 29.0486 3.65603 29.1688 3.49831 29.2815C3.3481 29.3941 3.17537 29.4504 2.9801 29.4504C2.74728 29.4504 2.56327 29.3828 2.42809 29.2477C2.30041 29.1125 2.23657 28.9322 2.23657 28.7069C2.23657 28.3765 2.30792 28.0723 2.45062 27.7944C2.60082 27.509 2.79609 27.2649 3.03642 27.0621C3.27676 26.8594 3.54713 26.7017 3.84754 26.589C4.14796 26.4688 4.45588 26.4087 4.77132 26.4087C5.09426 26.4087 5.39468 26.4463 5.67256 26.5214C5.95044 26.5965 6.19077 26.7129 6.39355 26.8706C6.59633 27.0284 6.75405 27.2311 6.8667 27.479C6.98687 27.7193 7.04695 28.0122 7.04695 28.3577C7.04695 28.6281 6.99814 28.9135 6.9005 29.2139C6.81038 29.5068 6.68646 29.8034 6.52874 30.1038C6.37853 30.4043 6.20204 30.7047 5.99926 31.0051C5.80399 31.298 5.60121 31.5796 5.39092 31.85C5.18063 32.1204 4.97034 32.372 4.76005 32.6048C4.54976 32.8376 4.35825 33.0404 4.18551 33.2131C4.55352 33.1681 4.9403 33.123 5.34586 33.0779C5.75142 33.0329 6.14196 33.0103 6.51747 33.0103C6.73527 33.0103 6.92303 33.0704 7.08075 33.1906C7.24598 33.3033 7.32859 33.476 7.32859 33.7088ZM14.4371 30.8361C14.4371 31.3468 14.3583 31.8613 14.2006 32.3795C14.0504 32.8902 13.825 33.3558 13.5246 33.7764C13.2317 34.1895 12.8637 34.5237 12.4206 34.779C11.9775 35.0419 11.4668 35.1733 10.8885 35.1733C10.4003 35.1733 9.96097 35.0457 9.57043 34.7903C9.17989 34.5349 8.84568 34.212 8.5678 33.8215C8.29743 33.4234 8.08714 32.9916 7.93693 32.5259C7.79423 32.0528 7.72289 31.5984 7.72289 31.1628C7.72289 30.8549 7.76419 30.5319 7.84681 30.194C7.92942 29.856 8.04583 29.5218 8.19604 29.1913C8.35375 28.8609 8.53776 28.5454 8.74805 28.245C8.96585 27.9371 9.20618 27.6705 9.46904 27.4452C9.73941 27.2124 10.0286 27.0284 10.3365 26.8932C10.6519 26.758 10.9786 26.6904 11.3166 26.6904C11.8949 26.6904 12.3831 26.8143 12.7811 27.0621C13.1792 27.31 13.4983 27.6329 13.7387 28.031C13.9865 28.4215 14.163 28.8646 14.2682 29.3603C14.3808 29.8485 14.4371 30.3404 14.4371 30.8361ZM12.8036 30.7798C12.8036 30.592 12.7774 30.3705 12.7248 30.1151C12.6722 29.8598 12.5896 29.6194 12.4769 29.3941C12.3718 29.1688 12.2329 28.9773 12.0601 28.8196C11.8874 28.6619 11.6808 28.583 11.4405 28.583C11.1476 28.583 10.8847 28.6769 10.6519 28.8646C10.4266 29.0449 10.2351 29.2702 10.0774 29.5406C9.91966 29.8109 9.79574 30.1001 9.70562 30.408C9.623 30.7159 9.5817 30.9938 9.5817 31.2417C9.5817 31.4369 9.60798 31.6585 9.66056 31.9063C9.71313 32.1542 9.79574 32.3907 9.9084 32.6161C10.0211 32.8339 10.1637 33.0216 10.3365 33.1793C10.5167 33.3295 10.727 33.4046 10.9674 33.4046C11.2603 33.4046 11.5194 33.3145 11.7447 33.1343C11.9775 32.9465 12.169 32.7212 12.3192 32.4583C12.4769 32.188 12.5971 31.9026 12.6797 31.6022C12.7623 31.2942 12.8036 31.0201 12.8036 30.7798ZM20.2952 33.7088C20.2952 33.9266 20.2239 34.1031 20.0812 34.2383C19.9385 34.3735 19.7657 34.4598 19.563 34.4974C19.3376 34.55 19.0823 34.5988 18.7969 34.6438C18.5115 34.6814 18.2186 34.7152 17.9182 34.7452C17.6253 34.7753 17.3361 34.7978 17.0507 34.8128C16.7653 34.8279 16.5062 34.8354 16.2734 34.8354C16.2133 34.8354 16.127 34.8316 16.0143 34.8241C15.9092 34.8241 15.7965 34.8166 15.6763 34.8016C15.5637 34.7941 15.4548 34.779 15.3496 34.7565C15.252 34.734 15.1769 34.7039 15.1243 34.6664C15.0718 34.6213 15.0229 34.5612 14.9779 34.4861C14.9403 34.4035 14.9065 34.3171 14.8765 34.227C14.8465 34.1294 14.8239 34.0355 14.8089 33.9454C14.7939 33.8553 14.7864 33.7764 14.7864 33.7088C14.7864 33.6037 14.7976 33.5098 14.8202 33.4272C14.8502 33.337 14.9028 33.2544 14.9779 33.1793C15.068 33.0817 15.1619 32.9878 15.2595 32.8977C15.3572 32.8001 15.451 32.7062 15.5412 32.6161C15.6463 32.5034 15.7852 32.3569 15.958 32.1767C16.1307 31.9889 16.3147 31.7824 16.51 31.5571C16.7128 31.3243 16.9118 31.0839 17.1071 30.8361C17.3099 30.5807 17.4939 30.3329 17.6591 30.0926C17.8243 29.8522 17.9557 29.6269 18.0534 29.4166C18.1585 29.2064 18.2111 29.0261 18.2111 28.8759C18.2111 28.7332 18.1698 28.6168 18.0872 28.5267C18.0046 28.429 17.8919 28.3802 17.7492 28.3802C17.5915 28.3802 17.445 28.4365 17.3099 28.5492C17.1747 28.6619 17.0395 28.7858 16.9043 28.921C16.7691 29.0486 16.6227 29.1688 16.4649 29.2815C16.3147 29.3941 16.142 29.4504 15.9467 29.4504C15.7139 29.4504 15.5299 29.3828 15.3947 29.2477C15.267 29.1125 15.2032 28.9322 15.2032 28.7069C15.2032 28.3765 15.2745 28.0723 15.4172 27.7944C15.5674 27.509 15.7627 27.2649 16.003 27.0621C16.2434 26.8594 16.5138 26.7017 16.8142 26.589C17.1146 26.4688 17.4225 26.4087 17.7379 26.4087C18.0609 26.4087 18.3613 26.4463 18.6392 26.5214C18.9171 26.5965 19.1574 26.7129 19.3602 26.8706C19.563 27.0284 19.7207 27.2311 19.8333 27.479C19.9535 27.7193 20.0136 28.0122 20.0136 28.3577C20.0136 28.6281 19.9648 28.9135 19.8671 29.2139C19.777 29.5068 19.6531 29.8034 19.4954 30.1038C19.3452 30.4043 19.1687 30.7047 18.9659 31.0051C18.7706 31.298 18.5678 31.5796 18.3575 31.85C18.1473 32.1204 17.937 32.372 17.7267 32.6048C17.5164 32.8376 17.3249 33.0404 17.1521 33.2131C17.5201 33.1681 17.9069 33.123 18.3125 33.0779C18.718 33.0329 19.1086 33.0103 19.4841 33.0103C19.7019 33.0103 19.8897 33.0704 20.0474 33.1906C20.2126 33.3033 20.2952 33.476 20.2952 33.7088ZM26.3223 32.2894C26.3223 32.725 26.2434 33.108 26.0857 33.4384C25.9355 33.7689 25.729 34.043 25.4661 34.2608C25.2032 34.4786 24.8916 34.6438 24.5311 34.7565C24.1781 34.8692 23.795 34.9255 23.382 34.9255C22.9163 34.9255 22.5108 34.8316 22.1653 34.6438C21.8273 34.4561 21.5494 34.2082 21.3316 33.9003C21.1138 33.5849 20.9524 33.2319 20.8472 32.8414C20.7421 32.4433 20.6895 32.034 20.6895 31.6134C20.6895 31.313 20.7421 30.975 20.8472 30.5995C20.9524 30.224 21.0988 29.8447 21.2866 29.4617C21.4743 29.0712 21.6921 28.6957 21.94 28.3352C22.1878 27.9671 22.4544 27.6404 22.7398 27.3551C23.0252 27.0697 23.3219 26.8406 23.6298 26.6679C23.9452 26.4951 24.2532 26.4087 24.5536 26.4087C24.7263 26.4087 24.8803 26.4576 25.0155 26.5552C25.1582 26.6453 25.2295 26.7843 25.2295 26.972C25.2295 27.0772 25.1845 27.1898 25.0943 27.31C25.0042 27.4302 24.8953 27.5503 24.7676 27.6705C24.6475 27.7831 24.5198 27.8958 24.3846 28.0085C24.2569 28.1136 24.1555 28.2112 24.0804 28.3014C23.9077 28.4966 23.7462 28.7069 23.596 28.9322C23.4533 29.15 23.3294 29.3791 23.2243 29.6194C23.3369 29.5819 23.4533 29.5556 23.5735 29.5406C23.6937 29.518 23.8138 29.5068 23.934 29.5068C24.317 29.5068 24.655 29.5856 24.9479 29.7433C25.2483 29.9011 25.4999 30.1114 25.7027 30.3742C25.9054 30.6296 26.0594 30.9262 26.1646 31.2642C26.2697 31.5946 26.3223 31.9364 26.3223 32.2894ZM24.7451 32.3006C24.7451 31.9026 24.6212 31.5984 24.3733 31.3881C24.133 31.1703 23.8213 31.0614 23.4383 31.0614C23.3106 31.0614 23.1642 31.0802 22.9989 31.1177C22.8337 31.1553 22.691 31.2116 22.5709 31.2867C22.5258 31.3168 22.4995 31.3731 22.492 31.4557C22.4845 31.5383 22.4807 31.6059 22.4807 31.6585C22.4807 31.8312 22.5033 32.0152 22.5483 32.2105C22.6009 32.3983 22.676 32.5747 22.7736 32.74C22.8713 32.9052 22.9952 33.0404 23.1454 33.1455C23.2956 33.2507 23.4721 33.3033 23.6749 33.3033C23.9828 33.3033 24.2382 33.2169 24.4409 33.0441C24.6437 32.8714 24.7451 32.6236 24.7451 32.3006Z" fill="#060832"/>
</svg>
