<svg width="144" height="79" viewBox="0 0 144 79" fill="none" xmlns="http://www.w3.org/2000/svg">
<path d="M137.34 24.7814L139.137 24.7814C139.257 24.7814 139.356 24.8781 139.356 24.9988L139.357 25.2421L139.359 25.6286C139.361 25.9219 139.478 26.1867 139.671 26.3774C139.864 26.5689 140.129 26.6862 140.422 26.6862C141.01 26.6862 141.486 26.2074 141.485 25.6191L141.483 25.1938L141.483 25.0006C141.482 24.8798 141.58 24.7814 141.701 24.7814L143.463 24.7814C143.647 24.7814 143.748 24.9936 143.634 25.1368L140.573 28.9481C140.486 29.0568 140.319 29.0568 140.232 28.9481L137.171 25.1368C137.056 24.9936 137.158 24.7814 137.341 24.7814" fill="white"/>
<path d="M73.8612 54.34V36.1136H68.2572V34.0733H81.587V36.1136H76.0374V54.34H73.8612ZM83.9732 54.34V33.7469H86.0135V42.588L85.5511 42.4792C85.9138 41.5362 86.5032 40.7926 87.3193 40.2485C88.1535 39.7045 89.1147 39.4324 90.2029 39.4324C91.2366 39.4324 92.1615 39.6682 92.9776 40.1397C93.8119 40.6112 94.4648 41.2641 94.9363 42.0984C95.426 42.9145 95.6708 43.8394 95.6708 44.8731V54.34H93.6305V45.662C93.6305 44.7734 93.4673 44.0208 93.1409 43.4041C92.8144 42.7875 92.361 42.316 91.7807 41.9896C91.2185 41.645 90.5747 41.4727 89.8492 41.4727C89.1238 41.4727 88.4709 41.645 87.8906 41.9896C87.3102 42.316 86.8478 42.7966 86.5032 43.4313C86.1767 44.048 86.0135 44.7915 86.0135 45.662V54.34H83.9732ZM106.205 54.6664C104.845 54.6664 103.612 54.34 102.506 53.6871C101.417 53.0161 100.556 52.1002 99.9212 50.9395C99.2864 49.7789 98.969 48.464 98.969 46.995C98.969 45.526 99.2773 44.2293 99.894 43.1049C100.511 41.9624 101.345 41.0646 102.397 40.4117C103.467 39.7589 104.664 39.4324 105.988 39.4324C107.039 39.4324 107.973 39.6319 108.79 40.0309C109.624 40.4117 110.331 40.9377 110.911 41.6087C111.492 42.2616 111.936 43.0052 112.244 43.8394C112.553 44.6555 112.707 45.4988 112.707 46.3693C112.707 46.5507 112.698 46.7593 112.68 46.995C112.662 47.2126 112.634 47.4393 112.598 47.6751H100.275V45.7709H111.428L110.449 46.587C110.612 45.5895 110.494 44.7008 110.095 43.921C109.714 43.123 109.161 42.4974 108.436 42.044C107.71 41.5724 106.894 41.3367 105.988 41.3367C105.081 41.3367 104.237 41.5724 103.458 42.044C102.696 42.5155 102.097 43.1774 101.662 44.0298C101.227 44.8641 101.055 45.8615 101.145 47.0222C101.055 48.1829 101.236 49.1985 101.689 50.069C102.161 50.9214 102.796 51.5834 103.594 52.0549C104.41 52.5264 105.28 52.7622 106.205 52.7622C107.275 52.7622 108.173 52.5083 108.898 52.0005C109.624 51.4927 110.213 50.8579 110.667 50.0962L112.408 51.0212C112.117 51.674 111.673 52.2816 111.075 52.8438C110.476 53.3879 109.76 53.8322 108.926 54.1768C108.109 54.5032 107.203 54.6664 106.205 54.6664ZM119.131 54.34L126.531 34.0733H128.87L136.269 54.34H133.984L132.243 49.3889H123.184L121.416 54.34H119.131ZM123.892 47.3487H131.482L127.374 35.7055H128.027L123.892 47.3487ZM138.972 54.34V34.0733H141.148V54.34H138.972ZM53.4034 77.6664C52.1158 77.6664 50.946 77.4216 49.8941 76.9319C48.8423 76.4423 47.9536 75.7894 47.2282 74.9733C46.5028 74.139 45.9859 73.2232 45.6776 72.2257L47.6362 71.4912C48.1078 72.8695 48.8423 73.9214 49.8397 74.6468C50.8372 75.3541 52.0251 75.7078 53.4034 75.7078C54.2739 75.7078 55.0356 75.5718 55.6885 75.2997C56.3595 75.0096 56.8764 74.6106 57.2391 74.1028C57.6018 73.595 57.7832 73.0056 57.7832 72.3345C57.7832 71.3371 57.5112 70.5663 56.9671 70.0222C56.423 69.4782 55.6432 69.061 54.6276 68.7709L50.9823 67.6827C49.5496 67.2656 48.4433 66.5674 47.6634 65.588C46.9017 64.6087 46.5209 63.4934 46.5209 62.242C46.5209 61.172 46.7839 60.2289 47.3098 59.4128C47.8357 58.5786 48.5521 57.9257 49.4589 57.4542C50.3838 56.9826 51.4266 56.7469 52.5873 56.7469C53.8024 56.7469 54.8905 56.9736 55.8517 57.4269C56.8311 57.8622 57.6562 58.4426 58.3273 59.168C58.9983 59.8934 59.4789 60.7005 59.7691 61.5891L57.8648 62.3508C57.4295 61.1538 56.7495 60.2471 55.8245 59.6304C54.9177 59.0138 53.8477 58.7055 52.6145 58.7055C51.8347 58.7055 51.1455 58.8415 50.547 59.1136C49.9667 59.3856 49.5133 59.7755 49.1868 60.2833C48.8604 60.7911 48.6972 61.3896 48.6972 62.0788C48.6972 62.913 48.9601 63.6656 49.4861 64.3367C50.012 64.9896 50.8191 65.4792 51.9072 65.8057L55.1172 66.7578C56.7132 67.2293 57.9192 67.9094 58.7353 68.7981C59.5514 69.6867 59.9595 70.8021 59.9595 72.1441C59.9595 73.2323 59.6784 74.1934 59.1162 75.0277C58.5721 75.8438 57.8013 76.4876 56.8039 76.9591C55.8245 77.4307 54.691 77.6664 53.4034 77.6664ZM69.0315 77.6664C68.0159 77.6664 67.0909 77.4307 66.2567 76.9591C65.4224 76.4695 64.7605 75.7985 64.2708 74.9461C63.7993 74.0756 63.5635 73.0781 63.5635 71.9537V62.7589H65.6038V71.7088C65.6038 72.4887 65.758 73.1778 66.0663 73.7763C66.3927 74.3567 66.837 74.8101 67.3992 75.1365C67.9796 75.4629 68.6415 75.6262 69.3851 75.6262C70.1287 75.6262 70.7906 75.4629 71.371 75.1365C71.9513 74.7919 72.4047 74.3113 72.7312 73.6947C73.0576 73.06 73.2208 72.3073 73.2208 71.4368V62.7589H75.2611V77.34H73.2208V74.5108L73.6833 74.6196C73.3387 75.5627 72.7493 76.3063 71.915 76.8503C71.0808 77.3944 70.1196 77.6664 69.0315 77.6664ZM79.457 77.34V62.7589H81.4973V65.5336L81.1709 65.1256C81.5698 64.2732 82.1593 63.6112 82.9391 63.1397C83.7371 62.6682 84.6076 62.4324 85.5506 62.4324C86.6751 62.4324 87.6907 62.7498 88.5974 63.3845C89.5042 64.0193 90.1481 64.8445 90.5289 65.8601L89.9576 65.8873C90.3203 64.7629 90.946 63.9105 91.8347 63.3301C92.7415 62.7317 93.7389 62.4324 94.8271 62.4324C95.8064 62.4324 96.7041 62.6682 97.5202 63.1397C98.3545 63.6112 99.0164 64.2641 99.5061 65.0984C100.014 65.9145 100.268 66.8394 100.268 67.8731V77.34H98.2275V68.662C98.2275 67.7734 98.0643 67.0208 97.7379 66.4041C97.4296 65.7875 97.0034 65.316 96.4593 64.9896C95.9152 64.645 95.2895 64.4727 94.5822 64.4727C93.8931 64.4727 93.2674 64.645 92.7052 64.9896C92.143 65.316 91.6987 65.7966 91.3722 66.4313C91.0458 67.048 90.8826 67.7915 90.8826 68.662V77.34H88.8423V68.662C88.8423 67.7734 88.6791 67.0208 88.3526 66.4041C88.0443 65.7875 87.6181 65.316 87.074 64.9896C86.53 64.645 85.9043 64.4727 85.197 64.4727C84.4897 64.4727 83.855 64.645 83.2927 64.9896C82.7487 65.316 82.3134 65.7966 81.987 66.4313C81.6605 67.048 81.4973 67.7915 81.4973 68.662V77.34H79.457ZM104.163 77.34V62.7589H106.204V65.5336L105.877 65.1256C106.276 64.2732 106.866 63.6112 107.646 63.1397C108.443 62.6682 109.314 62.4324 110.257 62.4324C111.381 62.4324 112.397 62.7498 113.304 63.3845C114.211 64.0193 114.854 64.8445 115.235 65.8601L114.664 65.8873C115.027 64.7629 115.652 63.9105 116.541 63.3301C117.448 62.7317 118.445 62.4324 119.533 62.4324C120.513 62.4324 121.411 62.6682 122.227 63.1397C123.061 63.6112 123.723 64.2641 124.213 65.0984C124.72 65.9145 124.974 66.8394 124.974 67.8731V77.34H122.934V68.662C122.934 67.7734 122.771 67.0208 122.444 66.4041C122.136 65.7875 121.71 65.316 121.166 64.9896C120.622 64.645 119.996 64.4727 119.289 64.4727C118.599 64.4727 117.974 64.645 117.412 64.9896C116.849 65.316 116.405 65.7966 116.079 66.4313C115.752 67.048 115.589 67.7915 115.589 68.662V77.34H113.549V68.662C113.549 67.7734 113.385 67.0208 113.059 66.4041C112.751 65.7875 112.325 65.316 111.78 64.9896C111.236 64.645 110.611 64.4727 109.903 64.4727C109.196 64.4727 108.561 64.645 107.999 64.9896C107.455 65.316 107.02 65.7966 106.693 66.4313C106.367 67.048 106.204 67.7915 106.204 68.662V77.34H104.163ZM128.87 77.34V62.7589H130.91V77.34H128.87ZM128.87 60.0657V57.0733H130.91V60.0657H128.87ZM140.663 77.5032C139.357 77.5032 138.351 77.1224 137.643 76.3607C136.936 75.599 136.583 74.5108 136.583 73.0962V64.7991H133.889V62.7589H134.569C135.186 62.7589 135.676 62.5594 136.038 62.1604C136.401 61.7433 136.583 61.2264 136.583 60.6098V59.3856H138.623V62.7589H141.833V64.7991H138.623V73.0962C138.623 73.5859 138.695 74.0212 138.84 74.402C138.985 74.7647 139.23 75.0549 139.575 75.2725C139.938 75.4902 140.418 75.599 141.017 75.599C141.162 75.599 141.334 75.5899 141.534 75.5718C141.733 75.5536 141.905 75.5355 142.05 75.5174V77.34C141.833 77.3944 141.588 77.4307 141.316 77.4488C141.044 77.4851 140.826 77.5032 140.663 77.5032Z" fill="white"/>
<path d="M39.1305 75.211H2.64002C1.73426 75.211 1 74.4768 1 73.571V2.64002C1 1.73426 1.73426 1 2.64002 1H138.762C139.668 1 140.402 1.73426 140.402 2.64002V24.7803" stroke="white" stroke-width="1.10645" stroke-linecap="round"/>
</svg>
