<svg width="134" height="37" viewBox="0 0 134 37" fill="none" xmlns="http://www.w3.org/2000/svg">
<path d="M16.4352 0C17.5315 0.000187057 18.4204 0.889002 18.4205 1.98535V14.8877L29.5944 8.4375C30.544 7.88922 31.759 8.21441 32.3072 9.16406C32.8553 10.1136 32.53 11.3276 31.5807 11.876L26.2965 14.9258C26.2941 14.9272 26.2921 14.9293 26.2897 14.9307L20.4059 18.3271L31.5807 24.7793C32.53 25.3276 32.8552 26.5417 32.3072 27.4912C31.759 28.4409 30.544 28.767 29.5944 28.2188L18.4205 21.7666V34.6699C18.4205 35.7663 17.5316 36.6551 16.4352 36.6553C15.3386 36.6553 14.4489 35.7665 14.4488 34.6699V21.7666L3.27502 28.2188C2.32539 28.767 1.1104 28.4408 0.562131 27.4912C0.0142183 26.5416 0.340174 25.3275 1.28967 24.7793L6.57092 21.7295C6.57381 21.7278 6.57681 21.7263 6.57971 21.7246L12.4625 18.3271L6.57971 14.9307C6.57705 14.9291 6.57455 14.9273 6.5719 14.9258L1.28967 11.876C0.340136 11.3278 0.0141262 10.1137 0.562131 9.16406C1.11041 8.21441 2.32537 7.88922 3.27502 8.4375L14.4488 14.8877V1.98535C14.449 0.888887 15.3387 0 16.4352 0Z" fill="#E052FF"/>
<path d="M65.3083 9.46025C65.3083 14.3576 61.3382 18.3277 56.4409 18.3277C51.5436 18.3277 47.5735 14.3576 47.5735 9.46025C47.5735 4.56291 51.5436 0.592834 56.4409 0.592834C61.3382 0.592834 65.3083 4.56291 65.3083 9.46025Z" fill="#418CFF"/>
<path d="M83.0431 9.46025C83.0431 14.3576 79.0731 18.3277 74.1757 18.3277C69.2784 18.3277 65.3083 14.3576 65.3083 9.46025C65.3083 4.56291 69.2784 0.592834 74.1757 0.592834C79.0731 0.592834 83.0431 4.56291 83.0431 9.46025Z" fill="#418CFF"/>
<path d="M83.0431 27.1951C83.0431 32.0924 79.0731 36.0625 74.1757 36.0625C69.2784 36.0625 65.3083 32.0924 65.3083 27.1951C65.3083 22.2977 69.2784 18.3277 74.1757 18.3277C79.0731 18.3277 83.0431 22.2977 83.0431 27.1951Z" fill="#418CFF"/>
<path d="M65.3083 27.1951C65.3083 32.0924 61.3382 36.0625 56.4409 36.0625C51.5436 36.0625 47.5735 32.0924 47.5735 27.1951C47.5735 22.2977 51.5436 18.3277 56.4409 18.3277C61.3382 18.3277 65.3083 22.2977 65.3083 27.1951Z" fill="#418CFF"/>
<path d="M132.129 0.132202C133.16 0.132202 133.996 0.967573 133.996 1.99841V24.8676C133.996 25.8985 133.16 26.7338 132.129 26.7338H119.596C118.273 26.7338 117.225 27.8129 116.898 29.0951C115.563 34.3404 110.329 37.5354 105.209 36.2318C100.089 34.9281 97.0203 29.6197 98.3554 24.3744C99.1375 21.3027 101.256 18.9347 103.906 17.7613C105.744 16.9476 107.394 15.362 107.394 13.3525V1.99841C107.394 0.967572 108.23 0.132202 109.261 0.132202H132.129Z" fill="#9CF694"/>
</svg>
