<svg width="110" height="31" viewBox="0 0 110 31" fill="none" xmlns="http://www.w3.org/2000/svg">
<path d="M17.9244 16.2165C20.3722 16.2165 22.82 16.2769 25.2643 16.1952C26.8248 16.1418 27.4561 16.6752 27.4456 18.3249C27.428 21.3293 27.6454 24.3373 27.6875 27.3453C27.7226 29.9231 26.8038 30.62 24.3034 29.9444C20.2109 28.8422 17.0862 26.4529 15.0698 22.6413C14.8629 22.2467 14.6244 21.8662 14.0563 21.532C14.0563 23.6227 14.0668 25.7133 14.0563 27.804C14.0387 30.1009 13.6565 30.4813 11.3981 30.4813C8.42072 30.4813 5.44338 30.4884 2.46604 30.46C0.183058 30.4386 -0.25881 29.884 0.197085 27.6724C1.10537 23.2458 3.53914 19.9534 7.43879 17.7632C7.94378 17.4787 8.44527 17.1907 8.94675 16.8992C8.98182 16.8778 8.98182 16.7925 9.08352 16.4405C7.71233 16.5045 6.42881 16.6112 5.14529 16.6183C-0.791856 16.6503 0.0743426 16.9489 0.0147256 11.5587C-0.00982254 9.25475 0.000698105 6.95076 0.0147256 4.65033C0.0287532 2.48501 0.393469 2.21834 2.54669 2.64501C7.15824 3.56589 10.4828 6.16855 12.5659 10.421C12.7482 10.7907 12.9306 11.1605 13.1305 11.5196C13.1796 11.6121 13.2988 11.6654 13.674 11.9747C13.674 9.42542 13.667 7.10721 13.674 4.789C13.6845 2.58812 13.8178 2.43523 15.9219 2.42457C19.015 2.41034 22.1081 2.41034 25.2011 2.42812C27.2948 2.44234 27.6454 2.88678 27.2492 4.99877C26.3654 9.6743 23.7528 13.0165 19.5551 15.1143C19.243 15.2707 18.9133 15.3987 18.5942 15.5374C18.3417 15.6512 18.0857 15.7649 17.8332 15.8787C17.8648 15.9925 17.8963 16.1027 17.9244 16.2165Z" fill="#EBECF1"/>
<circle cx="54.8115" cy="15.1209" r="14.6028" fill="#418CFF"/>
<path d="M53.1036 7.34546C51.0917 7.34546 49.1622 8.14468 47.7396 9.56731C46.317 10.9899 45.5178 12.9194 45.5178 14.9313C45.5178 16.9432 46.317 18.8727 47.7396 20.2954C49.1622 21.718 51.0917 22.5172 53.1036 22.5172L53.1036 14.9313V7.34546Z" fill="#9CF694"/>
<rect x="95.4988" y="0.138672" width="20.6544" height="20.6544" transform="rotate(45.4052 95.4988 0.138672)" fill="#9CF694"/>
</svg>
