<svg width="33" height="37" viewBox="0 0 33 37" fill="none" xmlns="http://www.w3.org/2000/svg">
<path d="M16.4352 0C17.5315 0.000187057 18.4204 0.889002 18.4205 1.98535V14.8877L29.5944 8.4375C30.544 7.88922 31.759 8.21441 32.3072 9.16406C32.8553 10.1136 32.53 11.3276 31.5807 11.876L26.2965 14.9258C26.2941 14.9272 26.2921 14.9293 26.2897 14.9307L20.4059 18.3271L31.5807 24.7793C32.53 25.3276 32.8552 26.5417 32.3072 27.4912C31.759 28.4409 30.544 28.767 29.5944 28.2188L18.4205 21.7666V34.6699C18.4205 35.7663 17.5316 36.6551 16.4352 36.6553C15.3386 36.6553 14.4489 35.7665 14.4488 34.6699V21.7666L3.27502 28.2188C2.32539 28.767 1.1104 28.4408 0.562131 27.4912C0.0142183 26.5416 0.340174 25.3275 1.28967 24.7793L6.57092 21.7295C6.57381 21.7278 6.57681 21.7263 6.57971 21.7246L12.4625 18.3271L6.57971 14.9307C6.57705 14.9291 6.57455 14.9273 6.5719 14.9258L1.28967 11.876C0.340136 11.3278 0.0141262 10.1137 0.562131 9.16406C1.11041 8.21441 2.32537 7.88922 3.27502 8.4375L14.4488 14.8877V1.98535C14.449 0.888887 15.3387 0 16.4352 0Z" fill="#E052FF"/>
</svg>
