<svg width="1475" height="249" viewBox="0 0 1475 249" fill="none" xmlns="http://www.w3.org/2000/svg">
<path d="M68.4247 291.543L67.4691 292.116C35.9321 292.116 8.98232 284.089 -13.1891 268.033C-35.3606 251.978 -50.6512 232.292 -59.0611 208.973L-7.64626 193.492C-1.91227 208.591 7.83552 220.824 21.5971 230.38C35.3587 239.937 51.7961 244.715 70.7183 244.715C86.2001 244.715 98.8149 241.275 108.563 234.394C118.31 227.513 123.089 219.486 123.089 210.12C123.089 202.857 120.413 196.55 114.87 191.198C109.327 185.846 99.9617 181.068 86.7735 177.054L16.8188 155.074C-2.29453 149.149 -17.3941 140.165 -28.6709 128.315C-39.9478 116.465 -45.4906 102.13 -45.2995 85.1191C-45.4906 63.521 -36.1251 44.9811 -17.3941 29.6905C1.337 14.3998 24.8464 6.75448 52.9429 6.75448C81.4218 6.75448 106.269 13.4441 127.485 26.8235C148.701 40.2028 163.227 56.8314 171.063 76.9003L121.177 91.4265C115.443 80.1496 106.46 71.1663 94.4188 64.2856C82.3774 57.4048 68.807 53.9644 53.7075 53.9644C40.7104 53.9644 30.1981 56.8314 21.9794 62.5654C13.7607 68.2994 9.74685 75.3713 9.74685 83.59C9.74685 95.6314 18.539 104.232 35.9321 109.393L103.975 131.373C127.867 138.636 146.216 147.811 158.831 158.896C171.445 169.982 177.753 185.846 177.753 206.489C177.753 230.38 167.623 250.449 147.363 266.887C127.103 283.324 100.726 291.543 68.4247 291.543ZM311.164 291.543L310.208 292.116C279.818 292.116 254.78 281.986 234.902 261.917C215.024 241.848 205.085 216.81 205.085 186.993C205.085 157.176 215.024 132.329 234.902 112.451C254.78 92.5733 279.818 82.6343 309.826 82.6343C335.247 82.6343 356.653 89.324 374.047 102.703C391.44 116.083 402.334 130.991 406.73 147.62L358.565 161.381C356.271 152.398 350.728 144.753 341.936 138.254C333.144 131.756 322.632 128.506 310.208 128.506C294.344 128.506 281.347 134.24 271.408 145.517C261.469 156.794 256.5 170.556 256.5 186.802C256.5 202.666 261.469 216.428 271.599 228.087C281.729 239.746 294.726 245.48 310.59 245.48C322.823 245.48 333.335 242.422 342.319 236.114C351.302 229.807 356.845 222.353 359.138 213.752L407.304 227.131C402.908 244.142 392.204 259.05 375.002 272.047C357.8 285.044 336.585 291.543 311.164 291.543ZM530.776 291.543L530.585 291.734C502.87 291.734 479.743 281.795 461.012 261.726C442.281 241.657 432.916 216.81 432.916 187.184C432.916 157.176 442.281 132.138 461.012 112.26C479.743 92.3821 503.061 82.4432 530.776 82.4432C557.917 82.4432 579.132 92.191 594.423 111.878V87.9861H646.602V286H594.423V261.726C579.132 281.604 557.917 291.543 530.776 291.543ZM539.568 245.48V245.098C555.432 245.098 568.811 239.555 579.706 228.469C590.6 217.383 595.952 203.43 595.952 186.42C595.952 169.791 590.6 156.029 579.706 145.135C568.811 134.24 555.432 128.697 539.568 128.697C523.322 128.697 509.942 134.049 499.43 144.944C488.918 155.838 483.757 169.791 483.757 186.802C483.757 204.004 488.918 218.148 499.43 229.042C509.942 239.937 523.322 245.48 539.568 245.48ZM697.253 286V0.255953H748.859V286H697.253ZM895.267 291.543L894.693 291.734C862.774 291.734 836.971 282.177 817.093 263.064C797.215 243.951 787.276 218.721 787.276 187.375C787.276 157.367 796.833 132.329 815.946 112.451C835.06 92.5733 860.098 82.6343 890.871 82.6343C922.408 82.6343 947.446 92.191 965.795 111.495C984.144 130.8 993.318 155.074 993.318 184.317C993.318 192.345 992.936 198.461 992.171 202.666H838.309C840.029 216.236 845.763 227.131 855.511 235.35C865.259 243.568 878.638 247.582 895.84 247.582C918.776 247.582 934.831 238.79 944.006 221.397L990.642 235.159C984.144 250.067 972.676 263.255 956.047 274.532C939.418 285.809 919.158 291.543 895.267 291.543ZM837.927 170.364H942.668C941.33 157.941 935.978 147.428 926.613 139.019C917.247 130.609 905.206 126.404 890.297 126.404C875.962 126.404 864.112 130.8 854.555 139.401C844.999 148.002 839.456 158.323 837.927 170.364Z" fill="white"/>
<path d="M1212.93 11.9151H1266.64V173.614C1266.64 209.164 1256.13 237.643 1235.29 259.241C1214.46 280.839 1185.41 291.543 1148.14 291.543C1110.48 291.543 1081.43 280.839 1060.79 259.432C1040.15 238.026 1029.82 209.356 1029.82 173.614V11.9151H1084.3V172.849C1084.3 193.683 1089.84 210.502 1100.93 223.117C1112.01 235.732 1127.88 242.039 1148.33 242.039C1169.16 242.039 1185.22 235.732 1196.3 223.117C1207.39 210.502 1212.93 193.683 1212.93 172.849V11.9151ZM1431.2 82.4432H1430.82C1458.54 82.4432 1481.66 92.3821 1500.39 112.26C1519.13 132.138 1528.49 156.985 1528.49 186.993C1528.49 216.619 1519.13 241.466 1500.39 261.535C1481.66 281.604 1458.54 291.543 1431.2 291.543C1404.25 291.543 1382.85 281.604 1366.98 261.726V368.187H1315.38V87.9861H1366.98V111.878C1382.66 92.191 1404.06 82.4432 1431.2 82.4432ZM1421.84 245.289V245.671C1438.08 245.671 1451.46 240.128 1461.98 229.233C1472.49 218.339 1477.65 204.195 1477.65 186.993C1477.65 169.982 1472.49 156.029 1461.98 145.135C1451.46 134.24 1438.08 128.889 1421.84 128.889C1405.97 128.889 1392.6 134.431 1381.7 145.326C1370.81 156.221 1365.45 169.982 1365.45 186.611C1365.45 203.622 1370.81 217.574 1381.7 228.66C1392.6 239.746 1405.97 245.289 1421.84 245.289Z" fill="#418CFF"/>
</svg>
