<svg width="234" height="56" viewBox="0 0 234 56" fill="none" xmlns="http://www.w3.org/2000/svg">
<rect x="0.939209" y="0.658203" width="232.494" height="54.7114" rx="21.2167" fill="black" fill-opacity="0.01"/>
<path d="M57.6134 36.7136C56.6968 36.7136 55.8641 36.5393 55.1153 36.1907C54.3665 35.8421 53.7339 35.3774 53.2175 34.7964C52.7011 34.2025 52.3332 33.5506 52.1137 32.8405L53.508 32.3177C53.8436 33.2988 54.3665 34.0476 55.0766 34.564C55.7866 35.0675 56.6323 35.3193 57.6134 35.3193C58.2331 35.3193 58.7753 35.2225 59.2401 35.0288C59.7178 34.8222 60.0857 34.5382 60.3439 34.1767C60.6021 33.8152 60.7312 33.3957 60.7312 32.918C60.7312 32.2079 60.5376 31.6592 60.1503 31.2719C59.763 30.8846 59.2078 30.5877 58.4849 30.3811L55.8899 29.6065C54.87 29.3096 54.0825 28.8125 53.5273 28.1154C52.9851 27.4182 52.714 26.6243 52.714 25.7334C52.714 24.9717 52.9012 24.3004 53.2756 23.7195C53.65 23.1256 54.1599 22.6608 54.8055 22.3252C55.4639 21.9895 56.2062 21.8217 57.0325 21.8217C57.8975 21.8217 58.6721 21.983 59.3563 22.3058C60.0535 22.6156 60.6409 23.0288 61.1186 23.5452C61.5962 24.0616 61.9384 24.6361 62.1449 25.2687L60.7893 25.8109C60.4795 24.9588 59.9954 24.3133 59.3369 23.8744C58.6914 23.4354 57.9297 23.216 57.0518 23.216C56.4967 23.216 56.0061 23.3128 55.5801 23.5064C55.1669 23.7001 54.8442 23.9777 54.6118 24.3391C54.3794 24.7006 54.2632 25.1267 54.2632 25.6173C54.2632 26.2111 54.4504 26.7469 54.8248 27.2246C55.1992 27.6893 55.7737 28.0379 56.5483 28.2703L58.8334 28.9481C59.9695 29.2838 60.8281 29.7679 61.409 30.4005C61.99 31.0331 62.2805 31.8271 62.2805 32.7824C62.2805 33.557 62.0804 34.2413 61.6801 34.8351C61.2928 35.4161 60.7442 35.8744 60.0341 36.2101C59.3369 36.5458 58.5301 36.7136 57.6134 36.7136ZM69.8036 36.7136C68.7837 36.7136 67.8864 36.4747 67.1118 35.9971C66.3372 35.5194 65.7304 34.8739 65.2915 34.0605C64.8525 33.2343 64.6331 32.3047 64.6331 31.2719C64.6331 30.2391 64.8525 29.316 65.2915 28.5027C65.7304 27.6893 66.3372 27.0503 67.1118 26.5855C67.8864 26.1078 68.7837 25.869 69.8036 25.869C70.4491 25.869 71.0559 25.9852 71.6239 26.2176C72.192 26.45 72.6955 26.7663 73.1344 27.1665C73.5734 27.5538 73.9026 28.0056 74.1221 28.5221L72.8052 29.1998C72.547 28.6447 72.1533 28.1928 71.6239 27.8443C71.0946 27.4957 70.4878 27.3214 69.8036 27.3214C69.1194 27.3214 68.4997 27.4957 67.9445 27.8443C67.4023 28.1799 66.9698 28.6512 66.647 29.2579C66.3372 29.8518 66.1823 30.5296 66.1823 31.2913C66.1823 32.0401 66.3372 32.7179 66.647 33.3247C66.9698 33.9185 67.4023 34.3897 67.9445 34.7383C68.4997 35.0869 69.1194 35.2612 69.8036 35.2612C70.4878 35.2612 71.0882 35.0869 71.6046 34.7383C72.1339 34.3897 72.5341 33.925 72.8052 33.344L74.1221 34.0605C73.9026 34.564 73.5734 35.0159 73.1344 35.4161C72.6955 35.8163 72.192 36.1326 71.6239 36.365C71.0559 36.5974 70.4491 36.7136 69.8036 36.7136ZM79.4832 36.7136C78.8248 36.7136 78.2374 36.5909 77.721 36.3456C77.2046 36.0874 76.7979 35.7389 76.501 35.2999C76.204 34.861 76.0556 34.3575 76.0556 33.7894C76.0556 33.2472 76.1718 32.7566 76.4041 32.3177C76.6365 31.8658 76.998 31.4849 77.4886 31.1751C77.9792 30.8653 78.6053 30.6458 79.367 30.5167L83.4338 29.8389V31.1557L79.7156 31.7754C78.9668 31.9045 78.4246 32.1434 78.0889 32.4919C77.7662 32.8405 77.6048 33.2536 77.6048 33.7313C77.6048 34.1961 77.7855 34.5899 78.147 34.9126C78.5214 35.2354 78.9991 35.3967 79.5801 35.3967C80.2901 35.3967 80.9098 35.2483 81.4391 34.9513C81.9684 34.6415 82.3816 34.2284 82.6785 33.712C82.9754 33.1956 83.1239 32.621 83.1239 31.9884V29.3548C83.1239 28.7351 82.898 28.2316 82.4461 27.8443C81.9943 27.457 81.4069 27.2633 80.6839 27.2633C80.0513 27.2633 79.4961 27.4247 79.0185 27.7474C78.5408 28.0573 78.1858 28.464 77.9534 28.9675L76.6365 28.2509C76.8302 27.812 77.1336 27.4118 77.5467 27.0503C77.9727 26.6888 78.4569 26.4048 78.9991 26.1982C79.5413 25.9787 80.1029 25.869 80.6839 25.869C81.4456 25.869 82.1169 26.0175 82.6979 26.3144C83.2917 26.6113 83.7501 27.0245 84.0728 27.5538C84.4085 28.0702 84.5763 28.6705 84.5763 29.3548V36.4812H83.1239V34.4091L83.3369 34.6221C83.1562 35.0094 82.8722 35.3645 82.4849 35.6872C82.1105 35.9971 81.6651 36.2488 81.1486 36.4425C80.6451 36.6232 80.09 36.7136 79.4832 36.7136ZM87.5637 36.4812V21.8217H89.0161V36.4812H87.5637ZM96.7141 36.7136C95.7459 36.7136 94.868 36.4812 94.0804 36.0164C93.3058 35.5388 92.6926 34.8868 92.2407 34.0605C91.7889 33.2343 91.563 32.2983 91.563 31.2526C91.563 30.2068 91.7824 29.2838 92.2214 28.4833C92.6603 27.67 93.2542 27.0309 94.003 26.5662C94.7647 26.1014 95.6168 25.869 96.5592 25.869C97.308 25.869 97.9729 26.011 98.5538 26.295C99.1477 26.5662 99.6512 26.9406 100.064 27.4182C100.477 27.883 100.794 28.4123 101.013 29.0062C101.233 29.5871 101.342 30.1875 101.342 30.8072C101.342 30.9363 101.336 31.0847 101.323 31.2526C101.31 31.4075 101.291 31.5689 101.265 31.7367H92.4925V30.3811H100.432L99.7351 30.9621C99.8513 30.252 99.7674 29.6194 99.4834 29.0643C99.2123 28.4962 98.8185 28.0508 98.3021 27.7281C97.7857 27.3924 97.2047 27.2246 96.5592 27.2246C95.9137 27.2246 95.3134 27.3924 94.7582 27.7281C94.216 28.0637 93.79 28.535 93.4801 29.1417C93.1703 29.7356 93.0476 30.4457 93.1122 31.2719C93.0476 32.0982 93.1767 32.8212 93.4995 33.4408C93.8352 34.0476 94.287 34.5188 94.8551 34.8545C95.436 35.1902 96.0557 35.358 96.7141 35.358C97.4758 35.358 98.1149 35.1773 98.6313 34.8158C99.1477 34.4543 99.5673 34.0024 99.89 33.4602L101.129 34.1186C100.923 34.5834 100.607 35.0159 100.181 35.4161C99.7545 35.8034 99.2445 36.1197 98.6507 36.365C98.0697 36.5974 97.4242 36.7136 96.7141 36.7136ZM109.19 36.7136C108.17 36.7136 107.273 36.5006 106.498 36.0745C105.724 35.6485 105.123 35.0675 104.697 34.3317C104.271 33.5829 104.058 32.7308 104.058 31.7754V22.054H105.607V31.7754C105.607 32.4726 105.756 33.0858 106.053 33.6151C106.363 34.1315 106.782 34.5382 107.312 34.8351C107.854 35.1192 108.48 35.2612 109.19 35.2612C109.9 35.2612 110.52 35.1192 111.049 34.8351C111.591 34.5382 112.011 34.1315 112.308 33.6151C112.618 33.0858 112.773 32.4726 112.773 31.7754V22.054H114.322V31.7754C114.322 32.7308 114.109 33.5829 113.683 34.3317C113.257 35.0675 112.656 35.6485 111.882 36.0745C111.12 36.5006 110.223 36.7136 109.19 36.7136ZM117.463 40.3543V26.1014H118.915V28.4252L118.683 28.0186C119.096 27.3601 119.645 26.8373 120.329 26.45C121.026 26.0627 121.82 25.869 122.711 25.869C123.692 25.869 124.563 26.1078 125.325 26.5855C126.1 27.0503 126.706 27.6893 127.145 28.5027C127.597 29.316 127.823 30.2456 127.823 31.2913C127.823 32.3241 127.597 33.2536 127.145 34.0799C126.706 34.8932 126.1 35.5388 125.325 36.0164C124.563 36.4812 123.692 36.7136 122.711 36.7136C121.82 36.7136 121.013 36.5135 120.29 36.1133C119.58 35.7001 119.044 35.1192 118.683 34.3704L118.915 34.1574V40.3543H117.463ZM122.633 35.2612C123.33 35.2612 123.95 35.0869 124.492 34.7383C125.047 34.3897 125.48 33.9185 125.79 33.3247C126.113 32.7179 126.274 32.0401 126.274 31.2913C126.274 30.5296 126.113 29.8518 125.79 29.2579C125.48 28.6641 125.047 28.1928 124.492 27.8443C123.95 27.4957 123.33 27.3214 122.633 27.3214C121.936 27.3214 121.303 27.4957 120.735 27.8443C120.18 28.1928 119.735 28.6705 119.399 29.2773C119.076 29.8712 118.915 30.5425 118.915 31.2913C118.915 32.0401 119.076 32.7179 119.399 33.3247C119.735 33.9185 120.18 34.3897 120.735 34.7383C121.303 35.0869 121.936 35.2612 122.633 35.2612ZM137.64 36.5974C136.71 36.5974 135.994 36.3263 135.49 35.784C134.987 35.2418 134.735 34.4672 134.735 33.4602V27.5538H132.818V26.1014H133.302C133.741 26.1014 134.089 25.9594 134.348 25.6754C134.606 25.3784 134.735 25.0105 134.735 24.5715V23.7001H136.187V26.1014H138.472V27.5538H136.187V33.4602C136.187 33.8088 136.239 34.1186 136.342 34.3897C136.446 34.648 136.62 34.8545 136.865 35.0094C137.123 35.1644 137.465 35.2418 137.891 35.2418C137.995 35.2418 138.117 35.2354 138.259 35.2225C138.401 35.2095 138.524 35.1966 138.627 35.1837V36.4812C138.472 36.5199 138.298 36.5458 138.104 36.5587C137.911 36.5845 137.756 36.5974 137.64 36.5974ZM141.178 36.4812V21.8217H142.63V28.1154L142.301 28.0379C142.559 27.3666 142.979 26.8373 143.56 26.45C144.153 26.0627 144.838 25.869 145.612 25.869C146.348 25.869 147.007 26.0368 147.588 26.3725C148.181 26.7082 148.646 27.1729 148.982 27.7668C149.33 28.3478 149.505 29.0062 149.505 29.7421V36.4812H148.052V30.3037C148.052 29.6711 147.936 29.1353 147.704 28.6963C147.471 28.2574 147.149 27.9217 146.736 27.6893C146.335 27.4441 145.877 27.3214 145.361 27.3214C144.844 27.3214 144.379 27.4441 143.966 27.6893C143.553 27.9217 143.224 28.2638 142.979 28.7157C142.746 29.1547 142.63 29.684 142.63 30.3037V36.4812H141.178ZM157.004 36.7136C156.036 36.7136 155.158 36.4812 154.37 36.0164C153.596 35.5388 152.982 34.8868 152.53 34.0605C152.079 33.2343 151.853 32.2983 151.853 31.2526C151.853 30.2068 152.072 29.2838 152.511 28.4833C152.95 27.67 153.544 27.0309 154.293 26.5662C155.054 26.1014 155.906 25.869 156.849 25.869C157.598 25.869 158.263 26.011 158.844 26.295C159.437 26.5662 159.941 26.9406 160.354 27.4182C160.767 27.883 161.083 28.4123 161.303 29.0062C161.522 29.5871 161.632 30.1875 161.632 30.8072C161.632 30.9363 161.626 31.0847 161.613 31.2526C161.6 31.4075 161.58 31.5689 161.555 31.7367H152.782V30.3811H160.722L160.025 30.9621C160.141 30.252 160.057 29.6194 159.773 29.0643C159.502 28.4962 159.108 28.0508 158.592 27.7281C158.075 27.3924 157.494 27.2246 156.849 27.2246C156.203 27.2246 155.603 27.3924 155.048 27.7281C154.506 28.0637 154.08 28.535 153.77 29.1417C153.46 29.7356 153.337 30.4457 153.402 31.2719C153.337 32.0982 153.466 32.8212 153.789 33.4408C154.125 34.0476 154.577 34.5188 155.145 34.8545C155.726 35.1902 156.345 35.358 157.004 35.358C157.766 35.358 158.405 35.1773 158.921 34.8158C159.437 34.4543 159.857 34.0024 160.18 33.4602L161.419 34.1186C161.213 34.5834 160.896 35.0159 160.47 35.4161C160.044 35.8034 159.534 36.1197 158.94 36.365C158.359 36.5974 157.714 36.7136 157.004 36.7136ZM164.193 36.4812V26.1014H165.645V28.0767L165.413 27.7862C165.697 27.1794 166.117 26.7082 166.672 26.3725C167.24 26.0368 167.859 25.869 168.531 25.869C169.331 25.869 170.054 26.0949 170.7 26.5468C171.345 26.9986 171.803 27.5861 172.075 28.309L171.668 28.3284C171.926 27.528 172.372 26.9212 173.004 26.5081C173.65 26.082 174.36 25.869 175.134 25.869C175.831 25.869 176.471 26.0368 177.051 26.3725C177.645 26.7082 178.117 27.1729 178.465 27.7668C178.827 28.3478 179.007 29.0062 179.007 29.7421V36.4812H177.555V30.3037C177.555 29.6711 177.439 29.1353 177.206 28.6963C176.987 28.2574 176.684 27.9217 176.296 27.6893C175.909 27.4441 175.464 27.3214 174.96 27.3214C174.469 27.3214 174.024 27.4441 173.624 27.6893C173.224 27.9217 172.907 28.2638 172.675 28.7157C172.443 29.1547 172.326 29.684 172.326 30.3037V36.4812H170.874V30.3037C170.874 29.6711 170.758 29.1353 170.525 28.6963C170.306 28.2574 170.002 27.9217 169.615 27.6893C169.228 27.4441 168.782 27.3214 168.279 27.3214C167.775 27.3214 167.324 27.4441 166.923 27.6893C166.536 27.9217 166.226 28.2638 165.994 28.7157C165.761 29.1547 165.645 29.684 165.645 30.3037V36.4812H164.193ZM186.506 36.7136C185.537 36.7136 184.66 36.4812 183.872 36.0164C183.097 35.5388 182.484 34.8868 182.032 34.0605C181.58 33.2343 181.355 32.2983 181.355 31.2526C181.355 30.2068 181.574 29.2838 182.013 28.4833C182.452 27.67 183.046 27.0309 183.795 26.5662C184.556 26.1014 185.408 25.869 186.351 25.869C187.1 25.869 187.764 26.011 188.345 26.295C188.939 26.5662 189.443 26.9406 189.856 27.4182C190.269 27.883 190.585 28.4123 190.805 29.0062C191.024 29.5871 191.134 30.1875 191.134 30.8072C191.134 30.9363 191.128 31.0847 191.115 31.2526C191.102 31.4075 191.082 31.5689 191.057 31.7367H182.284V30.3811H190.224L189.527 30.9621C189.643 30.252 189.559 29.6194 189.275 29.0643C189.004 28.4962 188.61 28.0508 188.094 27.7281C187.577 27.3924 186.996 27.2246 186.351 27.2246C185.705 27.2246 185.105 27.3924 184.55 27.7281C184.008 28.0637 183.582 28.535 183.272 29.1417C182.962 29.7356 182.839 30.4457 182.904 31.2719C182.839 32.0982 182.968 32.8212 183.291 33.4408C183.627 34.0476 184.079 34.5188 184.647 34.8545C185.228 35.1902 185.847 35.358 186.506 35.358C187.267 35.358 187.906 35.1773 188.423 34.8158C188.939 34.4543 189.359 34.0024 189.682 33.4602L190.921 34.1186C190.714 34.5834 190.398 35.0159 189.972 35.4161C189.546 35.8034 189.036 36.1197 188.442 36.365C187.861 36.5974 187.216 36.7136 186.506 36.7136Z" fill="white"/>
<path d="M35.9006 23.8905C36.2548 22.8004 37.7969 22.8004 38.1511 23.8905L38.4869 24.9238C38.6452 25.4113 39.0995 25.7413 39.6121 25.7413H40.6986C41.8448 25.7413 42.3213 27.208 41.3941 27.8817L40.5151 28.5204C40.1004 28.8216 39.9269 29.3557 40.0853 29.8432L40.421 30.8765C40.7752 31.9666 39.5276 32.873 38.6003 32.1993L37.7213 31.5607C37.3066 31.2594 36.7451 31.2594 36.3304 31.5607L35.4514 32.1993C34.5241 32.873 33.2765 31.9666 33.6307 30.8765L33.9664 29.8432C34.1248 29.3557 33.9513 28.8216 33.5366 28.5204L32.6576 27.8817C31.7303 27.208 32.2069 25.7413 33.353 25.7413H34.4396C34.9521 25.7413 35.4064 25.4113 35.5648 24.9238L35.9006 23.8905Z" fill="#ECA723"/>
</svg>
