<svg width="136" height="138" viewBox="0 0 136 138" fill="none" xmlns="http://www.w3.org/2000/svg">
<path d="M88.0407 67.7934C100.064 67.7934 112.087 68.0903 124.093 67.6886C131.758 67.4267 134.858 70.0462 134.807 78.1496C134.721 92.9067 135.789 107.681 135.995 122.456C136.168 135.117 131.655 138.54 119.373 135.222C99.2714 129.808 83.9239 118.072 74.0195 99.3509C73.0032 97.4124 71.8319 95.5438 69.0415 93.9022C69.0415 104.171 69.0931 114.44 69.0415 124.709C68.9553 135.99 67.0778 137.859 55.9849 137.859C41.3608 137.859 26.7367 137.894 12.1127 137.754C0.899141 137.65 -1.27122 134.925 0.96804 124.063C5.42933 102.32 17.3835 86.1481 36.5378 75.3903C39.0182 73.9931 41.4814 72.5786 43.9446 71.1465C44.1168 71.0417 44.1168 70.6226 44.6163 68.8936C37.8813 69.208 31.577 69.7319 25.2726 69.7668C-3.88943 69.924 0.365155 71.391 0.0723292 44.9155C-0.0482462 33.5988 0.00342894 22.2821 0.0723292 10.9829C0.141229 0.347274 1.93264 -0.962527 12.5088 1.13316C35.1598 5.65634 51.4891 18.44 61.7208 39.327C62.6165 41.1433 63.5122 42.9595 64.494 44.7234C64.7352 45.1775 65.3208 45.4394 67.1639 46.9588C67.1639 34.4371 67.1295 23.0505 67.1639 11.664C67.2156 0.853731 67.8702 0.102788 78.2052 0.0503958C93.3977 -0.0194604 108.59 -0.01947 123.783 0.0678503C134.066 0.137706 135.789 2.3207 133.842 12.6943C129.501 35.6596 116.669 52.0758 96.0504 62.3795C94.5173 63.148 92.8982 63.7767 91.3307 64.4578C90.0905 65.0166 88.8331 65.5754 87.5928 66.1343C87.7479 66.6931 87.9029 67.2346 88.0407 67.7934Z" fill="#9CF694"/>
</svg>
