<svg width="72" height="47" viewBox="0 0 72 47" fill="none" xmlns="http://www.w3.org/2000/svg">
<path d="M69.3363 46.3373H49.8387C48.5389 46.3373 47.469 45.2854 47.469 43.9848V41.3453L47.4307 37.1566C47.4307 33.9817 46.1309 31.0936 44.0474 29.0279C41.9638 26.9623 39.0961 25.6808 35.9039 25.6808C29.5196 25.6808 24.359 30.8832 24.3781 37.2523V41.8617L24.3968 43.9656C24.3968 45.2853 23.3459 46.3373 22.027 46.3373H2.93085C0.942902 46.3373 -0.165236 44.0421 1.07723 42.4738L34.2603 1.12253C35.2161 -0.0633046 37.0132 -0.0633046 37.9498 1.12253L71.1516 42.4738C72.3941 44.023 71.2859 46.3373 69.298 46.3373" fill="#E052FF"/>
</svg>
