<svg width="28" height="29" viewBox="0 0 28 29" fill="none" xmlns="http://www.w3.org/2000/svg">
<path d="M17.9244 14.0776C20.3722 14.0776 22.82 14.138 25.2643 14.0562C26.8248 14.0029 27.4561 14.5362 27.4456 16.186C27.428 19.1904 27.6454 22.1984 27.6875 25.2064C27.7226 27.7842 26.8038 28.4811 24.3034 27.8055C20.2109 26.7033 17.0862 24.314 15.0698 20.5024C14.8629 20.1078 14.6244 19.7273 14.0563 19.3931C14.0563 21.4838 14.0668 23.5744 14.0563 25.6651C14.0387 27.9619 13.6565 28.3424 11.3981 28.3424C8.42072 28.3424 5.44338 28.3495 2.46604 28.3211C0.183058 28.2997 -0.25881 27.7451 0.197085 25.5335C1.10537 21.1069 3.53914 17.8144 7.43879 15.6242C7.94378 15.3398 8.44527 15.0518 8.94675 14.7602C8.98182 14.7389 8.98182 14.6536 9.08352 14.3016C7.71233 14.3656 6.42881 14.4722 5.14529 14.4794C-0.791856 14.5114 0.0743426 14.81 0.0147256 9.41982C-0.00982254 7.11583 0.000698105 4.81185 0.0147256 2.51141C0.0287532 0.346093 0.393469 0.0794279 2.54669 0.506092C7.15824 1.42698 10.4828 4.02963 12.5659 8.28205C12.7482 8.65183 12.9306 9.0216 13.1305 9.38071C13.1796 9.47316 13.2988 9.52649 13.674 9.83582C13.674 7.2865 13.667 4.96829 13.674 2.65008C13.6845 0.449203 13.8178 0.296317 15.9219 0.285651C19.015 0.271429 22.1081 0.271427 25.2011 0.289204C27.2948 0.303427 27.6454 0.747867 27.2492 2.85986C26.3654 7.53539 23.7528 10.8776 19.5551 12.9754C19.243 13.1318 18.9133 13.2598 18.5942 13.3985C18.3417 13.5122 18.0857 13.626 17.8332 13.7398C17.8648 13.8536 17.8963 13.9638 17.9244 14.0776Z" fill="#EBECF1"/>
</svg>
