<svg width="26" height="26" viewBox="0 0 26 26" fill="none" xmlns="http://www.w3.org/2000/svg">
<path fill-rule="evenodd" clip-rule="evenodd" d="M13 25.1875C19.2822 25.1875 24.375 20.0947 24.375 13.8125C24.375 7.53026 19.2822 2.4375 13 2.4375C6.71776 2.4375 1.625 7.53026 1.625 13.8125C1.625 15.8526 2.16206 17.7673 3.10251 19.4228L1.625 25.1875L7.56832 23.8093C9.18239 24.6881 11.0329 25.1875 13 25.1875ZM13 23.4375C18.3158 23.4375 22.625 19.1283 22.625 13.8125C22.625 8.4968 18.3158 4.1875 13 4.1875C7.68426 4.1875 3.375 8.4968 3.375 13.8125C3.375 15.865 4.01741 17.7673 5.11212 19.3295L4.25 22.5625L7.53994 21.74C9.09139 22.8106 10.9725 23.4375 13 23.4375Z" fill="#BFC8D0"/>
<path d="M22.75 13C22.75 18.3848 18.3848 22.75 13 22.75C10.9462 22.75 9.04061 22.115 7.46904 21.0305L4.13636 21.8636L5.00968 18.5887C3.90075 17.0062 3.25 15.0791 3.25 13C3.25 7.61522 7.61522 3.25 13 3.25C18.3848 3.25 22.75 7.61522 22.75 13Z" fill="url(#paint0_linear_64_946)"/>
<path fill-rule="evenodd" clip-rule="evenodd" d="M13 24.375C19.2822 24.375 24.375 19.2822 24.375 13C24.375 6.71776 19.2822 1.625 13 1.625C6.71776 1.625 1.625 6.71776 1.625 13C1.625 15.0401 2.16206 16.9548 3.10251 18.6103L1.625 24.375L7.56832 22.9968C9.18239 23.8756 11.0329 24.375 13 24.375ZM13 22.625C18.3158 22.625 22.625 18.3158 22.625 13C22.625 7.68426 18.3158 3.375 13 3.375C7.68426 3.375 3.375 7.68426 3.375 13C3.375 15.0525 4.01741 16.9548 5.11212 18.517L4.25 21.75L7.53994 20.9275C9.09139 21.9981 10.9725 22.625 13 22.625Z" fill="white"/>
<path d="M10.1556 7.71839C9.88522 7.17516 9.47028 7.22326 9.05119 7.22326C8.30215 7.22326 7.13414 8.12048 7.13414 9.79035C7.13414 11.1588 7.73718 12.6568 9.7692 14.8978C11.7302 17.0605 14.307 18.1792 16.4462 18.1411C18.5853 18.1031 19.0254 16.2622 19.0254 15.6406C19.0254 15.3651 18.8544 15.2276 18.7367 15.1902C18.0077 14.8404 16.6632 14.1885 16.3573 14.066C16.0514 13.9436 15.8916 14.1093 15.7923 14.1994C15.515 14.4637 14.9651 15.2429 14.7767 15.4181C14.5885 15.5934 14.3077 15.5047 14.1909 15.4384C13.761 15.2659 12.5955 14.7475 11.6665 13.8468C10.5174 12.7331 10.45 12.3498 10.2335 12.0087C10.0604 11.7358 10.1875 11.5684 10.2508 11.4952C10.4984 11.2096 10.8402 10.7686 10.9936 10.5495C11.1468 10.3303 11.0252 9.99754 10.9521 9.79035C10.6381 8.89904 10.372 8.15292 10.1556 7.71839Z" fill="white"/>
<defs>
<linearGradient id="paint0_linear_64_946" x1="21.5312" y1="5.6875" x2="3.25" y2="22.75" gradientUnits="userSpaceOnUse">
<stop stop-color="#5BD066"/>
<stop offset="1" stop-color="#27B43E"/>
</linearGradient>
</defs>
</svg>
